<svg xmlns="http://www.w3.org/2000/svg" width="100" height="70"><g fill="none" fill-rule="evenodd"><path fill="#18E9A6" d="M36.373 62.943l50.036-30.855-9.008-11.955-61.16-17.81L2.201 43.3z"/><path fill="#0B8FDF" fill-rule="nonzero" d="M27.566 15.518c-13.909 0-25.235 9.64-25.235 21.417 0 4.141 1.391 8.089 3.908 11.389l-3.842 7.311c-.33.647-.265 1.489.2 2.07.397.519.993.777 1.589.777h.463l10.863-2.717c3.775 1.747 7.882 2.653 12.054 2.588 13.91 0 25.235-9.641 25.235-21.418 0-11.776-11.326-21.417-25.235-21.417zM38.76 32.535L25.513 44.182c-.397.324-.861.518-1.325.518-.53 0-1.06-.194-1.39-.582l-5.962-5.824c-.794-.776-.794-2.006-.066-2.718l.066-.064a2.079 2.079 0 0 1 2.782 0l4.637 4.53L36.11 29.623c.795-.712 2.054-.648 2.782.129.729.841.663 2.07-.132 2.782z"/></g></svg>