<?xml version="1.0" encoding="utf-8"?>
<!-- Generator: Adobe Illustrator 16.0.3, SVG Export Plug-In . SVG Version: 6.00 Build 0)  -->
<!DOCTYPE svg PUBLIC "-//W3C//DTD SVG 1.1//EN" "http://www.w3.org/Graphics/SVG/1.1/DTD/svg11.dtd">
<svg version="1.1" id="Layer_1" xmlns="http://www.w3.org/2000/svg" xmlns:xlink="http://www.w3.org/1999/xlink" x="0px" y="0px"
	 width="76px" height="76px" viewBox="0 0 76 76" enable-background="new 0 0 76 76" xml:space="preserve">
<title>wt-icon--icons/custom/coins-up</title>
<desc>Created with Sketch.</desc>
<g id="icons_x2F_custom_x2F_coins-up">
	<g id="wt-icon--coins-up" transform="translate(0.000000, 10.000000)">
		<path id="Shape" fill="#18E9A6" stroke="#18E9A6" d="M65.014,47.304L75.377,3.142l-8.643-2.669L18.401,20.324L15.25,47.732
			L65.014,47.304z"/>
		<path id="Shape_1_" fill="#0B8FDF" d="M0.118,33.404c0.002-0.127,0.024-0.254,0.066-0.375c2.741,1.451,6.806,2.057,10.721,2.057
			c3.915,0,7.969-0.591,10.72-2.057c0.042,0.121,0.064,0.248,0.066,0.375v2.982c0,1.913-4.825,3.467-10.776,3.467
			c-5.953,0-10.777-1.543-10.777-3.467L0.118,33.404z M0.118,52.534C0.118,54.457,4.947,56,10.899,56
			c5.952,0,10.777-1.543,10.777-3.466v-2.982c-0.002-0.128-0.025-0.255-0.067-0.376c-2.741,1.451-6.805,2.058-10.72,2.058
			c-3.916,0-7.969-0.592-10.721-2.058c-0.043,0.121-0.064,0.248-0.066,0.376L0.118,52.534z M46.844,52.534v-2.982
			c-0.002-0.128-0.024-0.255-0.066-0.376c-2.74,1.451-6.806,2.058-10.721,2.058c-3.916,0-7.969-0.592-10.721-2.058
			c-0.042,0.121-0.064,0.248-0.066,0.376v2.982C25.29,54.457,30.12,56,36.067,56s10.783-1.543,10.783-3.466H46.844z M0.117,44.455
			c0,1.913,4.825,3.467,10.776,3.467c5.953,0,10.777-1.543,10.777-3.467v-2.982c-0.001-0.127-0.023-0.254-0.066-0.375
			c-2.715,1.451-6.8,2.046-10.705,2.046c-3.906,0-7.969-0.591-10.721-2.057c-0.042,0.121-0.065,0.248-0.066,0.376L0.117,44.455
			L0.117,44.455z M0.117,25.326v2.983c0,1.912,4.825,3.465,10.776,3.465c5.953,0,10.777-1.542,10.777-3.465v-2.983
			c0-1.913-4.824-3.465-10.777-3.465c-5.952,0-10.776,1.553-10.776,3.47V25.326z M42.775,16.018c0.175-0.029,0.346-0.078,0.51-0.143
			c0.153-0.06,0.3-0.138,0.435-0.232c0.306-0.216,0.533-0.524,0.649-0.879c0.051-0.191,0.065-0.39,0.045-0.585
			c-0.014-0.201-0.062-0.398-0.144-0.582c-0.089-0.189-0.208-0.362-0.353-0.514L37.71,6.273c-0.099-0.106-0.21-0.201-0.331-0.282
			c-0.256-0.168-0.542-0.285-0.842-0.345c-0.314-0.061-0.637-0.061-0.95,0c-0.152,0.03-0.301,0.075-0.444,0.133
			c-0.137,0.056-0.27,0.127-0.393,0.211c-0.12,0.081-0.23,0.176-0.327,0.282l-6.208,6.788c-0.21,0.227-0.363,0.5-0.444,0.798
			c-0.085,0.315-0.073,0.648,0.036,0.956c0.025,0.07,0.057,0.139,0.092,0.205c0.083,0.161,0.189,0.308,0.316,0.437
			c0.266,0.256,0.593,0.442,0.95,0.54c0.198,0.049,0.4,0.074,0.603,0.072h2.588l-0.306,8.784c-0.002,0.278,0.056,0.553,0.168,0.807
			c0.104,0.251,0.256,0.479,0.449,0.669c0.198,0.197,0.432,0.352,0.689,0.458c0.272,0.112,0.563,0.17,0.857,0.17h3.727
			c0.577,0.008,1.134-0.216,1.541-0.622c0.19-0.193,0.34-0.422,0.44-0.675c0.104-0.257,0.153-0.534,0.143-0.812l-0.307-8.783h2.491
			c0.177,0.002,0.353-0.011,0.526-0.041V16.018L42.775,16.018z M46.859,41.473c-0.002-0.128-0.024-0.255-0.066-0.375
			c-2.741,1.451-6.806,2.057-10.721,2.057c-3.915,0-7.969-0.591-10.72-2.057c-0.042,0.121-0.065,0.247-0.066,0.375v2.982
			c0,1.913,4.825,3.467,10.776,3.467c5.952,0,10.776-1.543,10.776-3.467L46.859,41.473L46.859,41.473z M46.859,33.4
			c0-1.914-4.824-3.467-10.777-3.467c-5.952,0-10.776,1.543-10.776,3.467v2.982c0,1.912,4.825,3.465,10.776,3.465
			c5.953,0,10.777-1.543,10.777-3.465V33.4z"/>
	</g>
</g>
</svg>
