<?xml version="1.0" encoding="UTF-8" standalone="no"?>
<svg width="76px" height="76px" viewBox="0 0 76 76" version="1.1" xmlns="http://www.w3.org/2000/svg" xmlns:xlink="http://www.w3.org/1999/xlink">
    <!-- Generator: Sketch 50.2 (55047) - http://www.bohemiancoding.com/sketch -->
    <title>wt-icon--icons/custom/alt/nodes</title>
    <desc>Created with Sketch.</desc>
    <defs></defs>
    <g id="icons/custom/alt/nodes" stroke="none" stroke-width="1" fill="none" fill-rule="evenodd">
        <g id="wt-icon--nodes" transform="translate(2.000000, 0.000000)">
            <path d="M0.534867474,31.8947059 L6.24205968,60.3085006 L46.9677361,43.6866725 L51.4412756,26.8433357 L24.3789369,0.748917216 L0.534867474,31.8947059 Z" id="Shape" stroke="#18E9A6" fill="#18E9A6" fill-rule="nonzero"></path>
            <g id="Group" transform="translate(9.000000, 3.000000)">
                <path d="M11.60418,12.4479053 L27.45582,22.7971598 M48.14418,18.2151479 L58.275,29.1570178 M48.23994,18.8507929 L41.22006,31.1329704 M10.43994,13.0852544 L3.42006,42.6657515 M3.4104,42.0266982 L14.8596,36.1525207 M14.7525,35.6208284 L26.8275,23.9747219 M26.0925,24.7271006 L36.225,3.52459172 M27.37014,23.340355 L31.84986,43.9451361 M33.04014,45.1282367 L33.04014,66.9651124 M31.8675,43.8424615 L16.6425,56.1246391 M26.72124,22.1538462 L47.61876,18.8580355 M48.77124,18.9500592 L58.905,11.8548639 M32.39712,44.4832189 L49.50288,47.1531834" id="Shape" stroke="#0B8FDF" stroke-width="1.5" stroke-linecap="square"></path>
                <ellipse id="Oval" fill="#232323" fill-rule="nonzero" cx="17.01" cy="55.7510059" rx="6.3" ry="6.408"></ellipse>
                <ellipse id="Oval" fill="#0B8FDF" fill-rule="nonzero" cx="50.4" cy="47.4203077" rx="6.3" ry="6.408"></ellipse>
                <ellipse id="Oval" fill="#0B8FDF" fill-rule="nonzero" cx="3.15" cy="42.9345799" rx="3.15" ry="3.20421302"></ellipse>
                <ellipse id="Oval" fill="#0B8FDF" fill-rule="nonzero" cx="32.13" cy="44.2160947" rx="3.15" ry="3.20421302"></ellipse>
                <ellipse id="Oval" fill="#0B8FDF" fill-rule="nonzero" cx="41.58" cy="32.0408521" rx="3.15" ry="3.20421302"></ellipse>
                <ellipse id="Oval" fill="#0B8FDF" fill-rule="nonzero" cx="33.39" cy="68.5670059" rx="3.15" ry="3.20421302"></ellipse>
                <ellipse id="Oval" fill="#0B8FDF" fill-rule="nonzero" cx="58.59" cy="28.8366391" rx="3.15" ry="3.20421302"></ellipse>
                <ellipse id="Oval" fill="#0B8FDF" fill-rule="nonzero" cx="36.54" cy="3.20421302" rx="3.15" ry="3.20421302"></ellipse>
                <ellipse id="Oval" fill="#232323" fill-rule="nonzero" cx="59.85" cy="11.5344852" rx="3.15" ry="3.20421302"></ellipse>
                <ellipse id="Oval" fill="#0B8FDF" fill-rule="nonzero" cx="27.72" cy="22.4286391" rx="6.3" ry="6.408"></ellipse>
                <ellipse id="Oval" fill="#0B8FDF" fill-rule="nonzero" cx="47.88" cy="19.224426" rx="3.15" ry="3.20421302"></ellipse>
                <ellipse id="Oval" fill="#232323" fill-rule="nonzero" cx="11.34" cy="12.816426" rx="3.15" ry="3.20421302"></ellipse>
                <ellipse id="Oval" fill="#0B8FDF" fill-rule="nonzero" cx="14.49" cy="35.8853964" rx="3.15" ry="3.20421302"></ellipse>
            </g>
        </g>
    </g>
</svg>