<svg xmlns="http://www.w3.org/2000/svg" width="100" height="70"><g fill="none" fill-rule="evenodd"><path fill="#18E9A6" d="M92.839 4.842l.011-.018C89.372 3.465 85.86 2.216 82.34 1L24.967 24.883l-3.88 32.303 37.788 2.698 21.328-2.548L92.839 4.842z"/><path fill="#0B8FDF" fill-rule="nonzero" d="M4.138 40.37c.002-.151.028-.3.077-.443 3.21 1.71 7.97 2.425 12.555 2.425s9.332-.697 12.554-2.425c.05.143.075.292.078.443v3.515c0 2.254-5.65 4.085-12.62 4.085-6.971 0-12.62-1.818-12.62-4.085l-.024-3.515zm0 22.545C4.138 65.182 9.793 67 16.764 67c6.97 0 12.62-1.818 12.62-4.085V59.4c-.002-.15-.029-.3-.078-.442-3.21 1.709-7.969 2.424-12.554 2.424-4.586 0-9.332-.697-12.555-2.424-.05.142-.075.291-.077.442l.018 3.515zm54.719 0V59.4c-.003-.15-.029-.3-.078-.442-3.21 1.709-7.97 2.424-12.555 2.424s-9.332-.697-12.554-2.424c-.05.142-.075.291-.078.442v3.515C33.616 65.182 39.272 67 46.236 67c6.965 0 12.627-1.818 12.627-4.085h-.006zm-54.72-9.521c0 2.254 5.65 4.085 12.62 4.085 6.971 0 12.62-1.818 12.62-4.085v-3.515a1.394 1.394 0 0 0-.077-.443c-3.18 1.71-7.963 2.412-12.536 2.412-4.574 0-9.332-.696-12.555-2.424a1.39 1.39 0 0 0-.077.443l.006 3.527zm0-22.546v3.516c0 2.254 5.65 4.084 12.62 4.084 6.971 0 12.62-1.818 12.62-4.084v-3.516c0-2.254-5.649-4.084-12.62-4.084-6.97 0-12.62 1.83-12.62 4.09v-.006zm49.955-10.97a2.91 2.91 0 0 0 .598-.169c.179-.07.35-.162.508-.273a2.045 2.045 0 0 0 .76-1.036c.06-.225.077-.46.053-.69a2.01 2.01 0 0 0-.168-.686 2.322 2.322 0 0 0-.412-.606l-7.27-8.024a2.196 2.196 0 0 0-.388-.333 2.781 2.781 0 0 0-.986-.406 2.908 2.908 0 0 0-1.113 0 2.758 2.758 0 0 0-.52.157c-.161.066-.316.15-.46.249a2.13 2.13 0 0 0-.383.333l-7.27 8a2.264 2.264 0 0 0-.52.94 1.903 1.903 0 0 0 .042 1.127c.03.083.067.164.108.242a2.1 2.1 0 0 0 .37.515 2.593 2.593 0 0 0 1.112.636c.232.058.469.087.706.085h3.031l-.358 10.352c-.002.328.065.652.197.951.121.296.3.564.526.788.232.232.506.415.807.54.319.132.66.2 1.004.2h4.364a2.497 2.497 0 0 0 1.805-.733c.223-.228.398-.498.515-.795.123-.303.18-.63.167-.957l-.358-10.352h2.917c.206.003.412-.013.616-.048v-.006zm4.782 30c-.002-.15-.028-.3-.077-.442-3.21 1.71-7.97 2.425-12.555 2.425s-9.332-.697-12.554-2.425c-.05.143-.076.292-.078.443v3.515c0 2.254 5.65 4.085 12.62 4.085 6.971 0 12.62-1.818 12.62-4.085l.024-3.515zm0-9.514c0-2.255-5.649-4.085-12.62-4.085-6.97 0-12.62 1.818-12.62 4.085v3.515c0 2.254 5.65 4.085 12.62 4.085 6.971 0 12.62-1.819 12.62-4.085v-3.515z"/></g></svg>