<svg xmlns="http://www.w3.org/2000/svg" width="100" height="80"><g fill="none" fill-rule="evenodd"><path fill="#09DF9F" d="M53.003 28.044L24.154 16.082l-9.8 46.554 12.349 14.181 39.629-8.767z"/><path fill="#0B8FDF" fill-rule="nonzero" d="M49.508 16C35.975 16 25 27.017 25 40.608c0 10.87 7.022 20.093 16.765 23.35 1.226.226 1.673-.534 1.673-1.186 0-.586-.021-2.133-.034-4.185-6.817 1.485-8.257-3.3-8.257-3.3-1.112-2.843-2.72-3.6-2.72-3.6-2.228-1.526.165-1.495.165-1.495 2.46.174 3.753 2.537 3.753 2.537 2.188 3.759 5.739 2.674 7.136 2.043.22-1.59.855-2.675 1.556-3.29-5.44-.622-11.164-2.733-11.164-12.16 0-2.687.956-4.884 2.524-6.606-.254-.622-1.093-3.125.24-6.51 0 0 2.058-.662 6.74 2.52 1.955-.544 4.05-.817 6.137-.826 2.08.012 4.179.282 6.137.83 4.678-3.183 6.734-2.521 6.734-2.521 1.336 3.388.496 5.888.245 6.51 1.572 1.722 2.518 3.919 2.518 6.606 0 9.451-5.729 11.532-11.189 12.141.88.76 1.664 2.261 1.664 4.556 0 3.29-.03 5.944-.03 6.75 0 .658.44 1.424 1.684 1.182 9.728-3.26 16.744-12.479 16.744-23.346C74.021 27.018 63.047 16 49.508 16z"/></g></svg>