<svg width="76" height="76" xmlns="http://www.w3.org/2000/svg"><g fill-rule="nonzero" fill="none"><path d="M30.724 65.365l44.021-27.373-7.628-10.21-54.065-15.876L.785 48.011l29.94 17.354z" stroke="#18E9A6" fill="#18E9A6"/><path d="M22.859 23.188C10.423 23.188.296 31.88.296 42.498c0 3.734 1.244 7.294 3.494 10.27L.355 59.359c-.295.584-.237 1.343.179 1.867.355.468.888.7 1.42.7h.415l9.712-2.45c3.376 1.576 7.048 2.393 10.778 2.334 12.437 0 22.563-8.693 22.563-19.311s-10.127-19.31-22.563-19.31zm10.009 15.344L21.023 49.033c-.355.292-.77.467-1.184.467-.474 0-.948-.175-1.243-.525l-5.33-5.25c-.71-.7-.71-1.81-.06-2.452l.06-.057a1.847 1.847 0 0 1 2.487 0l4.146 4.084 10.6-9.394c.71-.642 1.836-.584 2.487.116.652.759.593 1.867-.118 2.509z" fill="#0B8FDF"/></g></svg>