<svg width="76" height="76" xmlns="http://www.w3.org/2000/svg"><g fill-rule="nonzero" fill="none"><path d="M48.192 15.38L13.016.795.982 57.963 16.009 75.22 64.55 64.48l-16.36-49.1z" stroke="#18E9A6" fill="#18E9A6"/><path d="M44.24 0C27.378 0 13.704 13.726 13.704 30.66c0 13.542 8.749 25.033 20.887 29.091 1.528.282 2.085-.665 2.085-1.478 0-.73-.026-2.657-.043-5.214-8.493 1.85-10.287-4.111-10.287-4.111-1.385-3.542-3.389-4.486-3.389-4.486-2.776-1.9.206-1.862.206-1.862 3.065.217 4.676 3.16 4.676 3.16 2.726 4.684 7.15 3.332 8.89 2.546.275-1.98 1.066-3.333 1.939-4.099-6.778-.775-13.91-3.405-13.91-15.15 0-3.348 1.192-6.085 3.145-8.23-.316-.775-1.361-3.894.3-8.111 0 0 2.564-.825 8.397 3.14 2.436-.678 5.046-1.019 7.646-1.03 2.591.015 5.207.352 7.646 1.034 5.828-3.965 8.39-3.14 8.39-3.14 1.664 4.22.618 7.335.305 8.11 1.959 2.146 3.137 4.883 3.137 8.23 0 11.776-7.137 14.368-13.94 15.127 1.096.947 2.073 2.817 2.073 5.676 0 4.1-.037 7.406-.037 8.41 0 .82.548 1.774 2.098 1.473 12.12-4.062 20.861-15.548 20.861-29.087C74.78 13.727 61.108 0 44.24 0z" fill="#0B8FDF"/></g></svg>