<?xml version="1.0" encoding="UTF-8" standalone="no"?>
<svg width="76px" height="76px" viewBox="0 0 76 76" version="1.1" xmlns="http://www.w3.org/2000/svg" xmlns:xlink="http://www.w3.org/1999/xlink">
    <!-- Generator: Sketch 50.2 (55047) - http://www.bohemiancoding.com/sketch -->
    <title>wt-icon--icons/custom/chart</title>
    <desc>Created with Sketch.</desc>
    <defs></defs>
    <g id="icons/custom/chart" stroke="none" stroke-width="1" fill="none" fill-rule="evenodd">
        <g id="wt-icon--chart" transform="translate(0.000000, 9.000000)" fill-rule="nonzero">
            <path d="M60.0481026,48.4967677 L74.4003533,21.8498888 L29.7345351,7.15248192 L14.8376825,17.5416429 L19.6117343,57.1242156 L60.0481026,48.4967677 Z" id="Shape" stroke="#18E9A6" fill="#18E9A6"></path>
            <path d="M21.7610127,26.7351 L21.7610127,6.71736667 C21.7674457,5.87633647 21.097182,5.1877285 20.2602532,5.17553333 L20.1496203,5.17553333 C8.94587342,6.01943333 0.319392405,15.5575333 0.447341772,26.9593667 C0.573367089,38.3602333 9.41149367,47.6982333 20.6306329,48.2840333 C21.0029367,48.3033667 21.3742785,48.3130333 21.7465823,48.3130333 C26.8471343,48.3277248 31.7797285,46.4822159 35.6286076,43.1191333 C35.9437048,42.8367802 36.1290111,42.4363808 36.1408453,42.0123189 C36.1526795,41.588257 35.9899946,41.1780523 35.6911392,40.8784 L21.7610127,26.7351 Z M21.7610127,43.2999 L20.9,43.2999 C13.0287089,42.8716667 6.58217722,36.7981 5.57589873,28.8627333 C4.57058228,20.9273667 9.29316456,13.3960667 16.8017722,10.9600667 L16.8017722,26.7351 C16.7984107,28.0657246 17.3168518,29.3441172 18.2448101,30.2934 L29.2503797,41.4545333 C26.9382233,42.6666514 24.3689281,43.2997211 21.7610127,43.2999 Z M44.9746835,27.6138 C44.7364818,31.3743442 43.5225596,35.0066859 41.4536709,38.1495 C41.2400383,38.470378 40.8952762,38.6789758 40.5130973,38.7185927 C40.1309184,38.7582097 39.7510359,38.624729 39.4767089,38.3544333 L27.9324051,27.1256333 C27.776964,26.9747798 27.7275656,26.7445417 27.8073418,26.5427333 C27.8854804,26.3413758 28.0780811,26.2083959 28.2931646,26.2073 L43.6711392,26.2073 C44.0318987,26.2073 44.3763038,26.3571333 44.6235443,26.6229667 C44.8698228,26.8897667 44.9968101,27.2484 44.9746835,27.6138 Z M47.6202532,20.7446667 C47.6394937,21.0839667 47.5211646,21.4174667 47.2902785,21.6659 C47.0593924,21.9133667 46.739038,22.0525667 46.4032911,22.0525667 L27.0425316,22.0525667 C26.8661218,22.052425 26.6970894,21.981423 26.5730633,21.8553667 C26.4483041,21.7284593 26.3784632,21.5571839 26.3787342,21.3788 L26.3787342,1.72356667 C26.3787342,1.3833 26.5153418,1.0585 26.7587342,0.824566667 C27.0021266,0.5916 27.3292152,0.4698 27.663038,0.488166667 C38.4040506,1.15033333 46.968962,9.8426 47.6202532,20.7446667 Z" id="Shape" fill="#0B8FDF"></path>
        </g>
    </g>
</svg>