<svg width="76" height="76" xmlns="http://www.w3.org/2000/svg"><g fill-rule="nonzero" fill="none"><path d="M61.414 15.593L32.948 3.776l-9.755 46.395 12.155 13.975 39.326-8.71-13.26-39.843z" stroke="#18E9A6" fill="#18E9A6"/><path d="M16.258 24.081a5.603 5.603 0 0 1-.104-.087c.009.057.016.114.022.17l.082-.084v.001zM17.4 56.164a5.57 5.57 0 0 1-10.3-2.651 5.575 5.575 0 0 1-5.928-4.577 5.58 5.58 0 0 1 3.969-6.355 7.168 7.168 0 0 1-.074-1.03 7.077 7.077 0 0 1 1.312-4.116 5.575 5.575 0 0 1-5.846-5.02 5.578 5.578 0 0 1 4.745-6.074A5.583 5.583 0 0 1 7.62 20.12a5.568 5.568 0 0 1 6.626.439 5.583 5.583 0 0 1 2.032-5.177 5.568 5.568 0 0 1 5.49-.847 6.585 6.585 0 0 1 11.505 2.71 5.575 5.575 0 0 1 5.894 3.582 5.569 5.569 0 0 1 7.698-.098 5.584 5.584 0 0 1 .452 7.694 5.569 5.569 0 0 1 4.27 1.14 5.581 5.581 0 0 1 2.1 3.894 5.577 5.577 0 0 1 5.086 5.583 5.577 5.577 0 0 1-5.136 5.538c-.05.363-.129.717-.233 1.06a5.583 5.583 0 0 1 2.09 6.142 5.574 5.574 0 0 1-5.127 3.969 5.573 5.573 0 0 1-5.411-3.571 7.087 7.087 0 0 1-9.528-.612 7.107 7.107 0 0 1-.29-9.554 5.607 5.607 0 0 1-.703-.829 7.12 7.12 0 0 1-3.516 2.941 15.766 15.766 0 0 0-.519 4.022 15.69 15.69 0 0 0 4.823 11.338l-.103 7.983a8.598 8.598 0 0 0 6.933 3.505c.882 0 1.708.339 2.534.914V73H16.213v-1.4c.316-.774 2.282-1.643 3.547-1.643 2.032.003 4-.716 5.551-2.03a8.753 8.753 0 0 0 1.796-2.09l-.533-12.917a7.092 7.092 0 0 1-9.174 3.244z" fill="#0B8FDF"/></g></svg>