<?xml version="1.0" encoding="UTF-8" standalone="no"?>
<svg width="76px" height="76px" viewBox="0 0 76 76" version="1.1" xmlns="http://www.w3.org/2000/svg" xmlns:xlink="http://www.w3.org/1999/xlink">
    <!-- Generator: Sketch 50.2 (55047) - http://www.bohemiancoding.com/sketch -->
    <title>wt-icon--icons/custom/alt/puzzle</title>
    <desc>Created with Sketch.</desc>
    <defs></defs>
    <g id="icons/custom/alt/puzzle" stroke="none" stroke-width="1" fill="none" fill-rule="evenodd">
        <g id="wt-icon--puzzle" transform="translate(4.000000, 0.000000)" fill-rule="nonzero">
            <path d="M18.8522449,73.3903804 L68.3599525,48.1007528 L60.3544198,28.9594796 L28.0190148,0.807050565 L1.59948836,55.5153288 L12.1793644,66.8003153 L18.8522449,73.3903804 Z" id="Shape" stroke="#18E9A6" fill="#18E9A6"></path>
            <g id="Group" transform="translate(0.000000, 13.000000)">
                <path d="M48.1273504,8.17264957 L34.1239316,0.0876068376 L29.9102564,7.38717949 C29.3786325,8.30811966 28.0042735,8.16666667 27.6649573,7.15726496 C27.4721833,6.57942892 27.0742955,6.09229384 26.5465812,5.78803419 C25.3649573,5.10555556 23.8491453,5.51025641 23.1688034,6.68888889 C22.4880342,7.86794872 22.8952991,9.38290598 24.0773504,10.0649573 C24.6048153,10.3698639 25.2257591,10.4708205 25.8226496,10.3487179 C26.8752137,10.1380342 27.6709402,11.2653846 27.1440171,12.1782051 L24.2055556,17.2679487 L27.5559829,19.2021368 C27.667094,18.8038462 27.8282051,18.4179487 28.0380342,18.0547009 C29.4,15.6957265 32.4299145,14.8876068 34.7944444,16.2525641 C37.158547,17.6175214 37.9735043,20.6457265 36.6115385,23.0047009 C36.40337,23.3654019 36.150676,23.6984986 35.8594017,23.9961538 L41.4239316,27.2089744 L49.4910256,13.2367521 C50.5136752,11.4649573 49.9034188,9.19786325 48.1277778,8.17264957 L48.1273504,8.17264957 Z" id="Shape" fill="#232323"></path>
                <path d="M18.6709402,13.7183761 C19.0910256,13.7183761 19.5068376,13.7713675 19.9081197,13.8739316 L19.9081197,7.46239316 L3.73846154,7.46239316 C1.68803419,7.46239316 0.0256410256,9.12051282 0.0256410256,11.1666667 L0.0256410256,27.3004274 L8.47350427,27.3004274 C9.53717949,27.3004274 10.1064103,28.5568376 9.3991453,29.3551282 C8.9944159,29.8092677 8.77082469,30.3963847 8.77094017,31.0047009 C8.77094017,32.365812 9.88119658,33.4739316 11.2452991,33.4739316 C12.6098291,33.4739316 13.7205128,32.365812 13.7205128,31.0047009 C13.7206283,30.3963847 13.4970371,29.8092677 13.0923077,29.3551282 C12.3846154,28.5568376 12.9542735,27.3004274 14.0179487,27.3004274 L19.9081197,27.3004274 L19.9081197,23.4401709 C19.5068376,23.542735 19.0910256,23.5957265 18.6705128,23.5957265 C15.9405983,23.5957265 13.7205128,21.3807692 13.7205128,18.6568376 C13.7205128,15.932906 15.9405983,13.7179487 18.6705128,13.7179487 L18.6709402,13.7183761 Z M33.8175214,29.7696581 C32.7542735,29.7696581 32.1846154,28.5132479 32.8918803,27.7149573 C33.2966097,27.2608178 33.520201,26.6737007 33.5200855,26.0653846 C33.5200855,24.7042735 32.4098291,23.5961538 31.0457265,23.5961538 C29.6811966,23.5961538 28.5705128,24.7042735 28.5705128,26.065812 C28.5703973,26.6741281 28.7939885,27.2612452 29.1987179,27.7153846 C29.9064103,28.5132479 29.3367521,29.7696581 28.2730769,29.7696581 L22.382906,29.7696581 L22.382906,33.6294872 C22.784188,33.5269231 23.2,33.4739316 23.6205128,33.4739316 C26.3504274,33.4739316 28.5705128,35.6888889 28.5705128,38.4128205 C28.5705128,41.1367521 26.3504274,43.3517094 23.6205128,43.3517094 C23.2,43.3517094 22.784188,43.2987179 22.382906,43.1961538 L22.382906,49.6076923 L38.5525641,49.6076923 C40.6029915,49.6076923 42.2653846,47.9495726 42.2653846,45.9034188 L42.2653846,29.7696581 L33.8175214,29.7696581 Z" id="Shape" fill="#0B8FDF"></path>
                <path d="M23.6205128,35.9435897 C23.0112368,35.9432542 22.4229793,36.1663025 21.967094,36.5705128 C21.167094,37.2786325 19.9081197,36.7055556 19.9081197,35.6465812 L19.9081197,29.7696581 L16.0397436,29.7696581 C16.1423077,30.1700855 16.1957265,30.5850427 16.1957265,31.0047009 C16.1957265,33.7282051 13.975641,35.9435897 11.2457265,35.9435897 C8.51581197,35.9435897 6.2957265,33.7282051 6.2957265,31.0047009 C6.2957265,30.5850427 6.3491453,30.1700855 6.4517094,29.7696581 L0.0256410256,29.7696581 L0.0256410256,45.9034188 C0.0256410256,47.9491453 1.68803419,49.6076923 3.73846154,49.6076923 L19.9081197,49.6076923 L19.9081197,41.1790598 C19.9081197,40.115812 21.1700855,39.5495726 21.967094,40.2551282 C22.4229165,40.6594935 23.0111809,40.8826964 23.6205128,40.8824786 C24.9850427,40.8824786 26.0952991,39.774359 26.0952991,38.4128205 C26.0952991,37.0517094 24.9850427,35.9435897 23.6205128,35.9435897 Z" id="Shape" fill="#0B8FDF"></path>
            </g>
        </g>
    </g>
</svg>