<svg xmlns="http://www.w3.org/2000/svg" width="100" height="70"><g fill="none" fill-rule="evenodd"><path fill="#18E9A6" d="M66.762 58.625l15.327-28.32-47.265-15.478L18.87 25.9l5.068 41.818z"/><path fill="#0B8FDF" fill-rule="nonzero" d="M26.62 35.657V14.949a1.583 1.583 0 0 0-1.56-1.595h-.115c-11.646.873-20.613 10.74-20.48 22.535.131 11.794 9.318 21.454 20.98 22.06.387.02.773.03 1.16.03a21.895 21.895 0 0 0 14.43-5.373 1.594 1.594 0 0 0 .065-2.318L26.62 35.657zm0 17.136h-.895c-8.182-.443-14.883-6.726-15.929-14.935-1.045-8.209 3.864-16 11.669-18.52v16.319a5.234 5.234 0 0 0 1.5 3.681l11.44 11.546a16.833 16.833 0 0 1-7.785 1.909zm24.13-16.227a22.326 22.326 0 0 1-3.66 10.899 1.342 1.342 0 0 1-2.055.212l-12-11.616a.554.554 0 0 1-.13-.603.545.545 0 0 1 .505-.347h15.985c.375 0 .733.155.99.43.256.276.388.647.365 1.025zm2.75-7.106c.02.351-.103.696-.343.953-.24.256-.573.4-.922.4H32.11a.687.687 0 0 1-.488-.204.7.7 0 0 1-.202-.493V9.783c0-.352.142-.688.395-.93.253-.241.593-.367.94-.348C43.92 9.19 52.823 18.182 53.5 29.46z"/></g></svg>