<?xml version="1.0" encoding="UTF-8" standalone="no"?>
<svg width="76px" height="76px" viewBox="0 0 76 76" version="1.1" xmlns="http://www.w3.org/2000/svg" xmlns:xlink="http://www.w3.org/1999/xlink">
    <!-- Generator: Sketch 50.2 (55047) - http://www.bohemiancoding.com/sketch -->
    <title>wt-icon--icons/custom/github-logo</title>
    <desc>Created with Sketch.</desc>
    <defs></defs>
    <g id="icons/custom/github-logo" stroke="none" stroke-width="1" fill="none" fill-rule="evenodd">
        <g id="wt-icon--github-logo" fill-rule="nonzero">
            <path d="M48.1916504,15.3801273 L13.0160284,0.7948456 L0.981607961,57.9632547 L16.0086983,75.2196454 L64.550779,64.4808323 L48.1916504,15.3801273 Z" id="Shape" stroke="#18E9A6" fill="#18E9A6"></path>
            <path d="M44.2394754,0 C27.3786885,0 13.704918,13.7260984 13.704918,30.6591475 C13.704918,44.2020984 22.4536393,55.6930492 34.592459,59.7509508 C36.1199344,60.0325246 36.6768525,59.0856393 36.6768525,58.2733115 C36.6768525,57.5432131 36.6506885,55.6158033 36.6344918,53.0592131 C28.1411803,54.909377 26.347082,48.9477377 26.347082,48.9477377 C24.9616393,45.4056393 22.9582295,44.4624918 22.9582295,44.4624918 C20.1823607,42.5612459 23.1638033,42.5998689 23.1638033,42.5998689 C26.2287213,42.8166557 27.8396721,45.7607213 27.8396721,45.7607213 C30.5657049,50.4440656 34.9899016,49.0922623 36.7304262,48.3060984 C37.0045246,46.3251148 37.7956721,44.9733115 38.6690492,44.207082 C31.8913443,43.4321311 24.7598033,40.8020328 24.7598033,29.056918 C24.7598033,25.7091803 25.9508852,22.9719344 27.904459,20.8264918 C27.588,20.051541 26.5426885,16.9330492 28.2034754,12.7156721 C28.2034754,12.7156721 30.767541,11.8908852 36.6008525,15.8553443 C39.0365902,15.1775738 41.6467541,14.8374426 44.2469508,14.8262295 C46.8384262,14.8411803 49.4535738,15.1775738 51.8930492,15.8603279 C57.721377,11.894623 60.2829508,12.7194098 60.2829508,12.7194098 C61.9474754,16.9405246 60.900918,20.0552787 60.5881967,20.8302295 C62.5467541,22.9756721 63.725377,25.712918 63.725377,29.0606557 C63.725377,40.8356721 56.5876066,43.4283934 49.7849836,44.1871475 C50.881377,45.1340328 51.8581639,47.0041311 51.8581639,49.8634754 C51.8581639,53.9624918 51.8207869,57.2691148 51.8207869,58.2733115 C51.8207869,59.0931148 52.3689836,60.0474754 53.9188852,59.7459672 C66.0390164,55.6843279 74.7802623,44.1983607 74.7802623,30.6591475 C74.7802623,13.7273443 61.1077377,0 44.2394754,0 Z" id="Shape" fill="#0B8FDF"></path>
        </g>
    </g>
</svg>