<svg xmlns="http://www.w3.org/2000/svg" width="76" height="76"><path fill="#18E9A6" d="M.65 60.992l3.73-33.225L64.584 2.53l10.663 3.874-13.242 55.092z"/><path fill="#18E9A6" stroke="#18E9A6" d="M64.764 2.5919999999999987l.177-.073-.357.011.18.062z"/><path fill="#0B8FDF" d="M60.322 48.798c-1.047.981-3.145 19.633-3.67 24.466-.074.68-.6 1.133-1.272 1.133H41.745c-.673 0-1.272-.605-1.272-1.285v-1.283c-4.195-4.379-5.694-10.797-5.694-10.797l-1.348-11.78c-3.072-10.571.6-10.874.6-10.874h.375c4.869 0 5.693 9.666 5.693 9.666s1.723 3.625 3.297 4.757v-42.06c-.15.076-.45.076-.75.076-2.473 0-4.495-2.039-4.495-4.531 0-.302 0-.528.074-.831H24.442c.074.228.074.529.074.831 0 2.492-2.021 4.531-4.493 4.531-.3 0-.6 0-.823-.076v33.451c.598-.15 1.273-.15 1.946-.074 1.873.301 3.372 1.812 3.671 3.699.074.68.074 1.283-.075 1.887h4.645c0 .076.074.228.074.303l.376 3.549H19.798c-2.472 0-4.495-2.038-4.495-4.529V5.983c0-2.492 2.022-4.53 4.495-4.53h22.997c2.473 0 4.495 2.038 4.495 4.53v24.542c2.247 1.358 10.712 10.798 11.536 11.402 2.847 2.416 1.499 6.871 1.499 6.871h-.003zM34.029 13.232a2.694 2.694 0 0 0-4.609-1.922 2.704 2.704 0 0 0-.783 1.922 2.695 2.695 0 1 0 5.394 0h-.002zm-2.696 4.531c5.394 0 9.813 4.455 9.813 9.892a9.977 9.977 0 0 1-3.446 7.551c-.973-.453-2.022-.755-3.146-.755h-.75c-.6.075-2.547.377-3.97 2.492-.075.151-.15.226-.225.377-4.645-.831-8.091-4.908-8.091-9.741.002-5.436 4.421-9.816 9.815-9.816zm-5.019 10.194l1.797 1.888 1.873 1.963 1.949-1.888 4.345-4.38-1.873-1.963-4.346 4.38-1.798-1.963-1.947 1.963z"/></svg>