<svg xmlns="http://www.w3.org/2000/svg" width="180" height="180"><g fill="none" fill-rule="evenodd"><path fill="#09DF9F" d="M129.21 160.661L32 163.531l14.162-97.867L86.973 47 179 102.248z"/><g fill-rule="nonzero"><path fill="#0B8FDF" d="M58.255 57.544C53.932 53.323 48.162 51 42.003 51h-.044C29.277 51.023 18.978 61.335 19 73.988c.018 9.823 14.887 31.955 23.065 43.012C50.203 105.809 65.017 83.398 65 73.57c-.011-6.099-2.406-11.79-6.745-16.026zM42.012 81.802c-3.72.006-6.74-2.996-6.746-6.707-.006-3.71 3.003-6.724 6.722-6.73 3.72-.007 6.74 2.996 6.746 6.706.006 3.71-3.003 6.724-6.722 6.73zM130.502 15h-.028c-7.995.014-14.488 6.547-14.474 14.563.01 5.578 8.108 18.578 14.537 27.437C136.94 48.027 145.01 34.865 145 29.283 144.985 21.27 138.62 15 130.502 15zm.011 22.065A5.51 5.51 0 0 1 125 31.557c-.005-3.047 2.454-5.522 5.494-5.527 3.04-.006 5.508 2.46 5.513 5.508a5.511 5.511 0 0 1-5.494 5.527z"/><path fill="#000" d="M103.99 61a5 5 0 0 0 .01 10h.01a5 5 0 1 0-.02-10zm14 0a5 5 0 0 0 .01 10h.01a5 5 0 1 0-.02-10zm-10 21a5 5 0 0 0 .01 10h.01a5 5 0 1 0-.02-10zm-2 38a4.997 4.997 0 0 0-4.99 5.007 4.998 4.998 0 0 0 5 4.993h.007a5 5 0 1 0-.017-10zm14.998-38A5 5 0 0 0 116 87.013 4.998 4.998 0 0 0 121.002 92h.01A4.996 4.996 0 0 0 126 86.99a5 5 0 0 0-5.012-4.99zm-1.995 38a5 5 0 1 0 .007 10h.01a5 5 0 0 0-.017-10zm24.804-20.408a4.997 4.997 0 0 0-6.203-3.389 4.99 4.99 0 0 0-3.39 6.201 4.998 4.998 0 1 0 9.593-2.812zm-2.963 9.758a5 5 0 1 0-3.67 9.301 5 5 0 0 0 3.67-9.3zm-5.534 11.102a4.998 4.998 0 1 0-8.601 5.095 5.002 5.002 0 0 0 6.851 1.753 4.999 4.999 0 0 0 1.75-6.848zM92.919 78.104a5 5 0 1 0-9.837 1.791 5 5 0 0 0 9.837-1.79zm3.126-13.041a4.997 4.997 0 0 0-6.984-1.107v-.003a5.004 5.004 0 0 0-1.106 6.987 4.99 4.99 0 0 0 4.05 2.06 5 5 0 0 0 4.04-7.937zm1.259 17.113a4.994 4.994 0 0 0-6.128 3.519 4.994 4.994 0 0 0 3.519 6.128c.436.12.876.177 1.31.177a5 5 0 0 0 1.3-9.824zm38.62 4.767a5 5 0 1 0-5.846 8.116 5 5 0 0 0 5.846-8.116zM81.992 120A4.999 4.999 0 0 0 77 125.01a4.998 4.998 0 0 0 4.998 4.99h.01A4.998 4.998 0 0 0 87 124.99a4.998 4.998 0 0 0-5.008-4.99zm-13.002 0a5.002 5.002 0 0 0-4.99 5.01 5.002 5.002 0 0 0 5 4.99h.01a4.998 4.998 0 0 0 4.99-5.01 5 5 0 0 0-5.01-4.99zm-13 0a5.002 5.002 0 0 0-4.99 5.01 5.002 5.002 0 0 0 5 4.99h.01a4.998 4.998 0 0 0 4.99-5.01 5 5 0 0 0-5.01-4.99zm37 0a5 5 0 0 0 .01 10h.01a5.002 5.002 0 0 0 4.99-5.01 4.998 4.998 0 0 0-5.01-4.99z"/></g></g></svg>