<svg xmlns="http://www.w3.org/2000/svg" width="100" height="70"><g fill="none" fill-rule="evenodd"><path fill="#18E9A6" d="M11.333 40.923l43.54 27.436 29.071-33.555L64.973 1.207 26.177 20.073z"/><g fill="#0B8FDF" fill-rule="nonzero"><path d="M62.607 45.757c-1.181-.088-3.633 1.265-4.294 1.616-2.389 1.227-5.705 3.156-7.877 4.697-.153.1-.356.238-.508.339a9.132 9.132 0 0 1-3.164 1.327c-6.327 1.378-15.563 1.529-15.563 1.529l-.534.025a.787.787 0 0 1-.826-.664.781.781 0 0 1 .712-.89l13.721-1.34c1.512-.163 2.719-1.616 2.554-3.245-.166-1.628-1.627-2.818-3.138-2.643l-12.21-.15c-.826-.013-2.16-.226-2.96-.464-7.864-2.355-12.298-.15-14.662.877a2.838 2.838 0 0 0-2.642-1.39l-5.26.363c-1.753.125-3.075 1.616-2.948 3.345l.839 11.95c.127 1.73 1.639 3.032 3.392 2.907l5.26-.363a2.818 2.818 0 0 0 2.414-1.73l23.11 1.016c2.58.275 4.993-.038 7.255-1.253l.66-.35 17.482-10.46c.864-.515 1.474-1.404 1.5-2.394.038-1.202-.649-2.53-2.313-2.655zM9.157 61.115c-.99 0-1.79-.79-1.79-1.767 0-.977.8-1.766 1.79-1.766.992 0 1.792.79 1.792 1.766 0 .965-.8 1.767-1.791 1.767z"/><path d="M49.343 47.66a5.476 5.476 0 0 1 .28 2.218c.178-.125.368-.263.546-.388 1.779-1.278 5.438-3.307 7.496-4.372a17.855 17.855 0 0 1 1.982-.902c-.902-.614-1.868-.639-2.859-.25-1.969.789-5.577 2.58-7.42 3.607a.176.176 0 0 1-.025.088zm2.732-5.098c-1.207.489-3.926 1.39-5.133 2.042.52.326.978.727 1.372 1.203.076-.05.153-.113.242-.163l.876-.501c1.296-.727 4.04-1.716 5.463-2.368-.902-.589-1.855-.614-2.82-.213zM21.748 23.571c.178.25.165.426 0 .677a148.092 148.092 0 0 0-2.274 3.47c-.712 1.127-.267 2.43.99 2.906 1.31.501 2.605.99 3.914 1.466.28.1.369.238.381.513.064 1.303.203 2.606.19 3.909-.012 1.328 1.17 2.493 2.77 1.992 1.27-.401 2.58-.69 3.863-1.053.254-.075.406-.025.584.188a200.716 200.716 0 0 0 2.592 3.144c.953 1.14 2.325 1.14 3.265 0a310.653 310.653 0 0 0 2.567-3.156c.165-.2.304-.276.571-.2 1.334.363 2.668.713 4.015 1.064 1.372.363 2.528-.463 2.605-1.854.076-1.365.152-2.718.203-4.084.012-.313.152-.438.42-.538 1.27-.464 2.527-.952 3.785-1.441 1.36-.526 1.792-1.829 1.004-3.032-.75-1.127-1.487-2.267-2.249-3.382-.178-.25-.165-.426 0-.676a300.87 300.87 0 0 0 2.185-3.32c.852-1.303.407-2.606-1.067-3.132-1.258-.45-2.503-.94-3.748-1.39-.267-.1-.368-.238-.381-.526-.064-1.353-.14-2.694-.216-4.034-.076-1.428-1.22-2.242-2.617-1.88-1.322.352-2.643.69-3.951 1.066-.305.087-.458.012-.648-.213-.839-1.04-1.703-2.08-2.554-3.107-.928-1.14-2.325-1.14-3.265 0-.839 1.027-1.69 2.042-2.503 3.094-.229.288-.432.338-.762.238-1.284-.363-2.58-.689-3.507-.94-1.804-.425-2.859.301-2.96 1.754a109.806 109.806 0 0 0-.203 4.084c-.013.288-.115.414-.369.514a204.86 204.86 0 0 0-3.875 1.466c-1.334.526-1.753 1.816-.966 3.006a82.176 82.176 0 0 0 2.211 3.407zm9.72 5.75c.126-.45.253-.902.393-1.353.165-.526.305-.588.788-.338.826.426 1.715.664 2.63.777a3.255 3.255 0 0 0 1.728-.226c1.029-.438 1.194-1.616.317-2.317-.292-.238-.635-.414-.978-.564-.902-.388-1.842-.689-2.693-1.19-1.385-.814-2.262-1.93-2.147-3.595.114-1.88 1.194-3.044 2.934-3.67.725-.264.725-.251.725-.99v-.752c.012-.564.114-.651.673-.664h.52c1.195 0 1.195 0 1.208 1.178 0 .839 0 .839.851.977.648.1 1.27.288 1.868.551.33.138.457.376.355.714-.152.514-.292 1.027-.457 1.528-.152.476-.318.552-.775.326a5.889 5.889 0 0 0-2.96-.576 2.16 2.16 0 0 0-.788.163c-.89.388-1.042 1.353-.28 1.954.382.3.826.526 1.284.714.787.326 1.588.639 2.337 1.04 2.402 1.302 3.037 4.271 1.36 6.3a4.53 4.53 0 0 1-2.325 1.479c-.407.113-.585.313-.572.726.013.401 0 .815 0 1.216 0 .363-.19.563-.546.563-.445.013-.89.013-1.334 0-.394-.012-.572-.225-.572-.601 0-.3 0-.589-.013-.89-.012-.65-.025-.688-.673-.776-.813-.125-1.626-.313-2.376-.664-.597-.288-.648-.438-.483-1.04z"/></g></g></svg>