<?xml version="1.0" encoding="UTF-8" standalone="no"?>
<svg width="76px" height="76px" viewBox="0 0 76 76" version="1.1" xmlns="http://www.w3.org/2000/svg" xmlns:xlink="http://www.w3.org/1999/xlink">
    <!-- Generator: Sketch 50.2 (55047) - http://www.bohemiancoding.com/sketch -->
    <title>wt-icon--icons/custom/hand-offer</title>
    <desc>Created with Sketch.</desc>
    <defs></defs>
    <g id="icons/custom/hand-offer" stroke="none" stroke-width="1" fill="none" fill-rule="evenodd">
        <g id="wt-icon--hand-offer" transform="translate(0.000000, 6.000000)" fill-rule="nonzero">
            <path d="M8.53167966,37.4337949 L48.574068,62.7439514 L75.339391,31.754617 L57.9430354,0.850877061 L22.0802099,18.3445044 L8.53167966,37.4337949 Z" id="Shape" stroke="#18E9A6" fill="#18E9A6"></path>
            <g id="Group" transform="translate(0.000000, 4.705882)" fill="#0B8FDF">
                <path d="M55.9275556,37.4183529 C54.8194568,37.3355294 52.5188148,38.6089412 51.8986173,38.9392941 C49.6570864,40.0941176 46.5457778,41.9096471 44.5078519,43.36 C44.3642963,43.4541176 44.1738272,43.584 44.0312099,43.6790588 C43.1292001,44.2797796 42.1218604,44.7035717 41.0625185,44.928 C35.1260741,46.2249412 26.4601975,46.3670588 26.4601975,46.3670588 L25.9591605,46.3905882 C25.5787539,46.4141178 25.2429922,46.143372 25.1841481,45.7656471 C25.1552528,45.5644954 25.2106698,45.3603199 25.3372343,45.2016245 C25.4637987,45.0429292 25.6502148,44.9438774 25.8521975,44.928 L38.7262222,43.6668235 C40.1448889,43.5134118 41.2773827,42.1458824 41.1225679,40.6127059 C40.9668148,39.0804706 39.596,37.9604706 38.1782716,38.1251765 L26.7219753,37.984 C25.946963,37.9717647 24.6953086,37.7712941 23.9446914,37.5472941 C16.5661235,35.3308235 12.4058272,37.4061176 10.1877531,38.3727059 C9.67532247,37.5006905 8.71551512,36.9941565 7.70883951,37.0644706 L2.77353086,37.4061176 C1.12874074,37.5237647 -0.111654321,38.9270588 0.00750617284,40.5543529 L0.794716049,51.8014118 C0.913876543,53.4296471 2.33254321,54.6550588 3.97733333,54.5374118 L8.91264198,54.1957647 C9.91462849,54.1285191 10.7921484,53.4976949 11.1776296,52.5675294 L32.8610864,53.5237647 C35.2818272,53.7825882 37.5458765,53.488 39.6682469,52.3444706 L40.2875062,52.0150588 L56.6903704,42.1703529 C57.501037,41.6856471 58.0733827,40.8489412 58.0977778,39.9171765 C58.1334321,38.7858824 57.4888395,37.536 55.9275556,37.4183529 Z M5.77693827,51.8729412 C4.84804938,51.8729412 4.0974321,51.1294118 4.0974321,50.2098824 C4.0974321,49.2903529 4.84804938,48.5477647 5.77693827,48.5477647 C6.7077037,48.5477647 7.45832099,49.2912941 7.45832099,50.2098824 C7.45832099,51.1181176 6.7077037,51.8729412 5.77787654,51.8729412 L5.77693827,51.8729412 Z" id="Shape"></path>
                <path d="M43.482321,39.2094118 C43.7120702,39.8797293 43.8015057,40.5903797 43.745037,41.2969412 C43.9120494,41.1792941 44.090321,41.0494118 44.2573333,40.9317647 C45.9265185,39.7289412 49.3596543,37.8192941 51.2906173,36.8169412 C51.8927058,36.4962714 52.5137453,36.2127639 53.1502716,35.968 C52.3039506,35.3901176 51.3975802,35.3665882 50.4677531,35.7327059 C48.6202963,36.4752941 45.2350123,38.1609412 43.5057778,39.1275294 C43.5053735,39.1567286 43.4972812,39.1853017 43.482321,39.2103529 L43.482321,39.2094118 Z M46.045679,34.4112941 C44.9131852,34.8715294 42.3620247,35.7195294 41.2295309,36.3331765 C41.7174321,36.64 42.1471605,37.0174118 42.5168395,37.4654118 C42.5881481,37.4183529 42.6603951,37.3590588 42.7439012,37.312 L43.5658272,36.8404706 C44.7818272,36.1562353 47.3564444,35.2254118 48.6916049,34.6117647 C47.845284,34.0574118 46.9511111,34.0338824 46.045679,34.4112941 Z M17.590716,16.5374118 C17.7577284,16.7727059 17.7455309,16.9383529 17.590716,17.1745882 C16.8643387,18.2531688 16.153059,19.3419031 15.4570864,20.4404706 C14.789037,21.5011765 15.2065679,22.7275294 16.3859753,23.1755294 C17.6151111,23.6470588 18.8301728,24.1072941 20.0583704,24.5552941 C20.3210864,24.6494118 20.4045926,24.7792941 20.4158519,25.0381176 C20.4759012,26.2644706 20.606321,27.4908235 20.5941235,28.7171765 C20.5828642,29.9670588 21.6919012,31.0635294 23.1931358,30.592 C24.3847407,30.2145882 25.6138765,29.9425882 26.817679,29.6009412 C27.056,29.5303529 27.1986173,29.5774118 27.3656296,29.7778824 C28.1662942,30.7724642 28.9770026,31.7588679 29.7976296,32.7369412 C30.6918025,33.8098824 31.9791111,33.8098824 32.8610864,32.7369412 C33.6703886,31.7521073 34.4732536,30.7619684 35.2696296,29.7665882 C35.4244444,29.5783529 35.5548642,29.5068235 35.8053827,29.5783529 C37.057037,29.92 38.3086914,30.2494118 39.5725432,30.5797647 C40.8598519,30.9214118 41.9444938,30.144 42.0167407,28.8348235 C42.0880494,27.5501176 42.159358,26.2767059 42.2072099,24.9910588 C42.2184691,24.6964706 42.3498272,24.5788235 42.601284,24.4847059 C43.7928889,24.048 44.9722963,23.5887059 46.152642,23.1284706 C47.4286914,22.6334118 47.8340247,21.4070588 47.0946667,20.2748235 C46.390963,19.2141176 45.6994568,18.1411765 44.9844938,17.0917647 C44.8174815,16.8564706 44.829679,16.6908235 44.9844938,16.4555294 C45.6747193,15.4184999 46.3581087,14.3769085 47.0346173,13.3308235 C47.8340247,12.1044706 47.4164938,10.8781176 46.0334815,10.3830588 C44.8531358,9.95952941 43.6849877,9.49835294 42.5168395,9.07482353 C42.266321,8.98070588 42.1715556,8.85082353 42.159358,8.57976471 C42.0993086,7.30635294 42.028,6.04423529 41.9566914,4.78305882 C41.8853827,3.43905882 40.812,2.67294118 39.5012346,3.01364706 C38.2608395,3.34494118 37.0213827,3.66305882 35.7941235,4.01694118 C35.5079506,4.09882353 35.3643951,4.02823529 35.1861235,3.81647059 C34.3989136,2.83764706 33.5882469,1.85882353 32.7897778,0.892235294 C31.9190617,-0.180705882 30.6082963,-0.180705882 29.726321,0.892235294 C28.9391111,1.85882353 28.140642,2.81411765 27.3778272,3.80423529 C27.162963,4.07529412 26.9724938,4.12235294 26.6628642,4.02823529 C25.4581235,3.68658824 24.2421235,3.37976471 23.3723457,3.14352941 C21.6797037,2.74352941 20.6898272,3.42682353 20.5950617,4.79435294 C20.5077929,6.07431087 20.4442922,7.35578791 20.4045926,8.63811765 C20.3923951,8.90917647 20.2966914,9.02776471 20.0583704,9.12188235 C18.8418308,9.56949897 17.6298346,10.0294441 16.4225679,10.5016471 C15.1709136,10.9967059 14.7777778,12.2108235 15.5161975,13.3308235 C16.1812613,14.4166674 16.8729787,15.4858566 17.590716,16.5374118 Z M26.710716,21.9491765 C26.8289383,21.5256471 26.9480988,21.1002353 27.0794568,20.6757647 C27.2342716,20.1807059 27.3656296,20.1223529 27.8188148,20.3576471 C28.5938272,20.7585882 29.4279506,20.9825882 30.2864691,21.0889412 C30.8361414,21.1671787 31.3966772,21.0936409 31.9078025,20.8762353 C32.873284,20.464 33.0280988,19.3552941 32.2052346,18.6955294 C31.9312593,18.4715294 31.6094321,18.3058824 31.2876049,18.1647059 C30.441284,17.7995294 29.5593086,17.5162353 28.7608395,17.0447059 C27.4613333,16.2785882 26.6384691,15.2282353 26.7463704,13.6611765 C26.8533333,11.8917647 27.8666667,10.7962353 29.4992593,10.2070588 C30.1795062,9.95858824 30.1795062,9.97082353 30.1795062,9.27529412 L30.1795062,8.56752941 C30.1907654,8.03670588 30.2864691,7.95482353 30.810963,7.94258824 L31.2988642,7.94258824 C32.4200988,7.94258824 32.4200988,7.94258824 32.4322963,9.05129412 C32.4322963,9.84094118 32.4322963,9.84094118 33.2307654,9.97082353 C33.8387654,10.0649412 34.4223704,10.2418824 34.9834568,10.4894118 C35.2930864,10.6192941 35.4122469,10.8432941 35.3165432,11.1614118 C35.1739259,11.6451765 35.0425679,12.128 34.8877531,12.5995294 C34.7451358,13.0475294 34.5893827,13.1190588 34.1605926,12.9063529 C33.2974262,12.4869236 32.3402852,12.3000925 31.3833086,12.3642353 C31.1294519,12.368466 30.8786479,12.4205061 30.6439506,12.5176471 C29.8088889,12.8828235 29.6662716,13.7910588 30.3812346,14.3567059 C30.7396543,14.6390588 31.1562469,14.8517647 31.5859753,15.0287059 C32.3243951,15.3355294 33.0759506,15.6301176 33.778716,16.0075294 C36.0324444,17.2329412 36.6282469,20.0272941 35.0547654,21.9369412 C34.4893481,22.6169129 33.7269032,23.1034278 32.873284,23.3289412 C32.4914074,23.4352941 32.3243951,23.6235294 32.3365926,24.0122353 C32.3487901,24.3896471 32.3365926,24.7792941 32.3365926,25.1567059 C32.3365926,25.4983529 32.158321,25.6865882 31.8242963,25.6865882 C31.4067654,25.6988235 30.9892346,25.6988235 30.572642,25.6865882 C30.202963,25.6752941 30.0359506,25.4748235 30.0359506,25.1209412 C30.0359506,24.8385882 30.0359506,24.5665882 30.0237531,24.2832941 C30.0124938,23.6715294 30.0002963,23.6357647 29.3922963,23.5529412 C28.6294815,23.4352941 27.8666667,23.2583529 27.162963,22.928 C26.6028148,22.6569412 26.554963,22.5157647 26.7097778,21.9491765 L26.710716,21.9491765 Z" id="Shape"></path>
            </g>
        </g>
    </g>
</svg>