<?xml version="1.0" encoding="UTF-8" standalone="no"?>
<svg width="76px" height="76px" viewBox="0 0 76 76" version="1.1" xmlns="http://www.w3.org/2000/svg" xmlns:xlink="http://www.w3.org/1999/xlink">
    <!-- Generator: Sketch 50.2 (55047) - http://www.bohemiancoding.com/sketch -->
    <title>wt-icon--icons/custom/airplane-ticket</title>
    <desc>Created with Sketch.</desc>
    <defs></defs>
    <g id="icons/custom/airplane-ticket" stroke="none" stroke-width="1" fill="none" fill-rule="evenodd">
        <g id="wt-icon--airplane-ticket" transform="translate(0.000000, 9.000000)" fill-rule="nonzero">
            <path d="M42.9449621,57.4072233 L71.6746105,41.9269308 L40.0037284,3.23540177 L20.3796213,3.93234646 L1.30882641,41.8840012 L42.9449621,57.4072233 Z" id="Shape" stroke="#18E9A6" fill="#18E9A6"></path>
            <path d="M73.8580976,6.98761905 L73.3112683,3.90809524 C72.8700976,1.42790476 70.197122,-0.176761905 67.3406341,0.323142857 L30.1729268,6.83387302 L72.2741463,6.83387302 C72.8172683,6.83387302 73.3464878,6.88819048 73.8571707,6.98669841 L73.8580976,6.98761905 Z M72.2750732,10.6793651 L24.0493659,10.6793651 C22.0307317,10.6793651 20.3902439,11.995873 20.3902439,13.6125079 L20.3902439,36.8861587 C20.3902439,38.5046349 22.0307317,39.8211429 24.0493659,39.8211429 L72.2741463,39.8211429 C74.2909268,39.8211429 75.9323415,38.5046349 75.9323415,36.8861587 L75.9323415,13.6125079 C75.9323415,11.9940317 74.2918537,10.6775238 72.2741463,10.6775238 L72.2750732,10.6793651 Z M37.5921951,36.8327619 L33.7208293,36.8327619 L33.7208293,33.5230794 L37.5921951,33.5230794 L37.5921951,36.8327619 Z M37.5921951,30.2133968 L33.7208293,30.2133968 L33.7208293,26.9037143 L37.5921951,26.9037143 L37.5921951,30.2133968 Z M37.5921951,23.5940317 L33.7208293,23.5940317 L33.7208293,20.2852698 L37.5921951,20.2852698 L37.5921951,23.5949524 L37.5921951,23.5940317 Z M37.5921951,16.9755873 L33.7208293,16.9755873 L33.7208293,13.6659048 L37.5921951,13.6659048 L37.5921951,16.9755873 Z M66.0347317,20.9600952 L63.0559024,23.7275238 L65.7390732,32.6328254 L64.2357561,34.1260952 C64.0705915,34.2889966 63.8040426,34.2889966 63.638878,34.1260952 L59.6377561,26.9037143 L55.9582439,30.5089206 L56.5449268,33.3490794 L55.6088293,34.2798413 C55.5491765,34.3393219 55.468133,34.3727569 55.3836098,34.3727569 C55.2990866,34.3727569 55.218043,34.3393219 55.1583902,34.2798413 L49.8587805,29.0156508 C49.7346784,28.8923398 49.7346784,28.6924538 49.8587805,28.5691429 L50.794878,27.638381 L53.6031707,28.2073333 L57.2344878,24.5386032 L50.0144878,20.59 C49.8495761,20.4269714 49.8487466,20.1620762 50.0126341,19.9980317 L51.5178049,18.5047619 L60.4227805,21.1525079 L63.2292195,18.1733333 C64.0494634,17.3585714 65.3423902,17.3226667 66.1162927,18.0923175 C66.8901951,18.8610476 66.853122,20.1453333 66.0347317,20.9600952 Z" id="Shape" fill="#0B8FDF"></path>
        </g>
    </g>
</svg>