<svg width="76" height="76" xmlns="http://www.w3.org/2000/svg"><g fill-rule="nonzero" fill="none"><path d="M15.153 58.962l33.123 15.113 13.41-54.243L47.91 2.842 1.156 11.485l13.997 47.477z" stroke="#18E9A6" fill="#18E9A6"/><g fill="#0B8FDF"><path d="M61.515 42.553s14.082-15.238 14.082-25.746c0-7.776-6.305-14.081-14.082-14.081-7.776 0-14.081 6.305-14.081 14.081.105 10.508 14.081 25.746 14.081 25.746zm0-30.475a4.71 4.71 0 0 1 4.73 4.729 4.71 4.71 0 0 1-4.73 4.729 4.71 4.71 0 0 1-4.729-4.729c.106-2.627 2.207-4.729 4.73-4.729h-.001z"/><path d="M67.085 40.871v.316c0 4.834-1.892 9.352-4.94 12.61-.63-1.892-2.311-3.258-4.413-3.258H55.42V43.5a2.332 2.332 0 0 0-2.312-2.312h-14.08v-4.73h4.728a2.332 2.332 0 0 0 2.312-2.311v-4.729h2.207c-1.997-3.678-3.573-7.671-3.889-11.349-11.033 1.892-19.545 11.56-19.545 23.119 0 12.925 10.508 23.434 23.434 23.434 12.925 0 23.433-10.509 23.433-23.434 0-1.997-.21-3.888-.735-5.675-1.261 1.997-2.627 3.888-3.888 5.36v-.002zM46.068 59.787c-9.248-1.156-16.393-9.038-16.393-18.6 0-1.472.21-2.838.525-4.204l11.244 11.244v2.312a4.71 4.71 0 0 0 4.729 4.729v4.519h-.105z"/></g></g></svg>