<svg xmlns="http://www.w3.org/2000/svg" width="100" height="80"><g fill="none" fill-rule="evenodd"><path fill="#09DF9F" d="M24.081 41.314l6.767 36.605 52.864-20.423 6.155-21.55L55.398 2.023z"/><path fill="#0B8FDF" d="M27.603 9.681c-.09.013-.18.036-.265.067l-.045.022-.088.022-.045.022-.088.044a1.416 1.416 0 0 0-.022.022c-.03.014-.06.029-.089.045l-.044.044a1.428 1.428 0 0 0-.266.244L14.698 20.458a1.4 1.4 0 0 0-.288.244 1.447 1.447 0 0 0-.066.089 1.417 1.417 0 0 0-.022.022 1.447 1.447 0 0 0-.066.089 1.417 1.417 0 0 0-.023.022 1.497 1.497 0 0 0-.044.111c-.016.03-.03.059-.044.09l-.022.043v.022a1.497 1.497 0 0 0-.045.111v.022a1.52 1.52 0 0 0-.022.111v.045a1.52 1.52 0 0 0-.022.11 1.53 1.53 0 0 0 0 .134 1.53 1.53 0 0 0 0 .156v39.977c.006.795.617 1.438 1.373 1.445h3.43v2.978c.006.794.617 1.437 1.373 1.444h3.387v3.155c.005.795.616 1.438 1.372 1.445h38.604c.765.006 1.39-.64 1.395-1.445V20.145c-.006-.803-.63-1.45-1.395-1.444H60.21v-3.156c-.006-.803-.63-1.45-1.395-1.444h-3.409v-2.956a1.494 1.494 0 0 0-.405-1.04 1.351 1.351 0 0 0-.99-.426H27.848a1.317 1.317 0 0 0-.111 0 1.318 1.318 0 0 0-.133 0v.002zm1.528 2.911h23.507v1.512H32.65a1.317 1.317 0 0 0-.11 0 1.317 1.317 0 0 0-.443.066 1.36 1.36 0 0 0-.332.178c-.03.021-.06.044-.089.067a1.417 1.417 0 0 0-.022.022l-.066.044-.045.044-2.412 2.067v-4zm-2.767 1.623v4.777L24.88 20.26h-5.579l7.062-6.044zm7.57 2.8h23.508v1.689H37.409a1.317 1.317 0 0 0-.11 0 1.318 1.318 0 0 0-.443.066c-.03.014-.06.029-.089.045l-.044.022a1.363 1.363 0 0 0-.288.178 1.417 1.417 0 0 0-.022.022l-.066.044-.045.044-2.368 2.044v-4.155zm-2.767 1.6v4.622a1.55 1.55 0 0 0 .022.289l-1.35 1.155a1.317 1.317 0 0 0-.089 0h-5.644l7.061-6.066zM16.801 23.17h4.693l-2.037 1.711-.044.044-.066.067a1.453 1.453 0 0 0-.465.734v.022a1.52 1.52 0 0 0-.022.11v.023a1.19 1.19 0 0 0-.022.133 1.53 1.53 0 0 0 0 .111 1.53 1.53 0 0 0 0 .178v34.089H16.8V23.17zm19.125.044v6.067h-7.061l7.061-6.067zm5.623 2.823a.97.97 0 0 1 .132 0h16.69c.511-.008.987.262 1.244.705.258.443.258.99 0 1.434a1.416 1.416 0 0 1-1.244.705h-16.69a1.417 1.417 0 0 1-1.26-.653 1.429 1.429 0 0 1-.066-1.423 1.418 1.418 0 0 1 1.194-.768zm-19.944 1.555h4.825l-2.147 1.845a1.394 1.394 0 0 0-.11.088l-.067.067-.044.022a1.447 1.447 0 0 0-.067.09 1.416 1.416 0 0 0-.022.021 1.447 1.447 0 0 0-.066.09 1.417 1.417 0 0 0-.023.021 1.447 1.447 0 0 0-.066.09 1.417 1.417 0 0 0-.022.021 1.497 1.497 0 0 0-.044.111l-.045.09-.022.043v.022a1.497 1.497 0 0 0-.044.111v.022a1.52 1.52 0 0 0-.022.112v.022a1.19 1.19 0 0 0-.022.133 1.53 1.53 0 0 0 0 .111 1.53 1.53 0 0 0 0 .178v33.91h-1.992v-37.22.001zm19.833 4.111c.051-.003.103-.003.155 0h16.69c.51-.007.986.262 1.244.705a1.43 1.43 0 0 1 0 1.434 1.416 1.416 0 0 1-1.244.706h-16.69a1.42 1.42 0 0 1-1.494-1.345 1.422 1.422 0 0 1 1.339-1.5zm-9.43 5.845c.052-.003.103-.003.155 0H58.55c.51-.008.986.262 1.244.705.258.443.258.99 0 1.434a1.416 1.416 0 0 1-1.244.705H32.163a1.42 1.42 0 0 1-1.489-1.345 1.422 1.422 0 0 1 1.334-1.5zm0 5.755c.052-.003.103-.003.155 0H58.46c.51-.007.986.262 1.244.705a1.43 1.43 0 0 1 0 1.434 1.416 1.416 0 0 1-1.244.706H32.163a1.42 1.42 0 0 1-1.49-1.345 1.422 1.422 0 0 1 1.335-1.5zm.11 5.756c.045-.002.09-.002.134 0h26.12c.51-.008.986.262 1.243.705.258.443.258.99 0 1.434a1.416 1.416 0 0 1-1.244.705h-26.12a1.417 1.417 0 0 1-1.26-.653 1.429 1.429 0 0 1-.066-1.422 1.418 1.418 0 0 1 1.194-.77zm0 5.844c.045-.002.09-.002.134 0h26.03c.512-.007.987.262 1.245.705a1.43 1.43 0 0 1 0 1.434 1.416 1.416 0 0 1-1.244.706H32.252a1.417 1.417 0 0 1-1.26-.654 1.429 1.429 0 0 1-.067-1.422 1.418 1.418 0 0 1 1.194-.769zm0 5.667c.045-.002.09-.002.134 0h26.12c.51-.007.986.262 1.243.705.258.443.258.991 0 1.434a1.416 1.416 0 0 1-1.244.705h-26.12a1.417 1.417 0 0 1-1.26-.653 1.429 1.429 0 0 1-.066-1.422 1.418 1.418 0 0 1 1.194-.77z"/></g></svg>