<?xml version="1.0" encoding="UTF-8" standalone="no"?>
<svg width="76px" height="76px" viewBox="0 0 76 76" version="1.1" xmlns="http://www.w3.org/2000/svg" xmlns:xlink="http://www.w3.org/1999/xlink">
    <!-- Generator: Sketch 50.2 (55047) - http://www.bohemiancoding.com/sketch -->
    <title>wt-icon--icons/custom/documents</title>
    <desc>Created with Sketch.</desc>
    <defs></defs>
    <g id="icons/custom/documents" stroke="none" stroke-width="1" fill="none" fill-rule="evenodd">
        <g id="wt-icon--documents" fill-rule="nonzero">
            <path d="M10.6141205,39.4473317 L17.2300925,75.2353701 L69.2995943,55.1193093 L75.3046969,34.0941327 L41.4429654,0.768781869 L10.6141205,39.4473317 Z" id="Shape" stroke="#18E9A6" fill="#18E9A6"></path>
            <path d="M13.603,7.681 C13.513,7.694 13.423,7.717 13.338,7.748 L13.293,7.77 L13.205,7.792 L13.16,7.814 L13.072,7.858 C13.0645863,7.86525254 13.0572525,7.87258632 13.05,7.88 C13.02,7.894 12.99,7.909 12.961,7.925 L12.917,7.969 C12.8183695,8.03875454 12.7289889,8.1207427 12.651,8.213 L0.698,18.458 C0.591425432,18.5259594 0.494545088,18.6080386 0.41,18.702 C0.386871814,18.7308132 0.364855677,18.7605016 0.344,18.791 C0.336586377,18.7982526 0.329252602,18.8055864 0.322,18.813 C0.298871814,18.8418132 0.276855677,18.8715016 0.256,18.902 C0.248251214,18.909247 0.240584064,18.9165808 0.233,18.924 C0.216862998,18.9604001 0.202184659,18.9974296 0.189,19.035 C0.173,19.065 0.159,19.094 0.145,19.125 L0.123,19.168 L0.123,19.19 C0.106525231,19.2263849 0.0915132183,19.2634145 0.078,19.301 L0.078,19.323 C0.0692914649,19.3597141 0.0619530476,19.3967398 0.056,19.434 L0.056,19.479 C0.0473156746,19.5153835 0.039977345,19.5520751 0.034,19.589 C0.0320430701,19.6336452 0.0320430701,19.6783548 0.034,19.723 C0.0313472949,19.7749662 0.0313472949,19.8270338 0.034,19.879 L0.034,59.856 C0.04,60.651 0.651,61.294 1.407,61.301 L4.837,61.301 L4.837,64.279 C4.843,65.073 5.454,65.716 6.21,65.723 L9.597,65.723 L9.597,68.878 C9.602,69.673 10.213,70.316 10.969,70.323 L49.573,70.323 C50.338,70.329 50.963,69.683 50.968,68.878 L50.968,18.145 C50.962,17.342 50.338,16.695 49.573,16.701 L46.21,16.701 L46.21,13.545 C46.204,12.742 45.58,12.095 44.815,12.101 L41.406,12.101 L41.406,9.145 C41.4104175,8.75903139 41.2652797,8.38633172 41.001,8.105 C40.7443798,7.83181974 40.3858056,7.67752417 40.011,7.679 L13.848,7.679 C13.8110164,7.67744008 13.7739836,7.67744008 13.737,7.679 C13.6926949,7.67676173 13.6483051,7.67676173 13.604,7.679 L13.604,7.681 L13.603,7.681 Z M15.131,10.592 L38.638,10.592 L38.638,12.104 L18.65,12.104 C18.6133493,12.1024681 18.5766507,12.1024681 18.54,12.104 C18.3896481,12.100545 18.2398152,12.1228677 18.097,12.17 C17.978612,12.2136451 17.8668737,12.2735529 17.765,12.348 C17.735,12.369 17.705,12.392 17.676,12.415 C17.6685864,12.4222526 17.6612526,12.4295864 17.654,12.437 L17.588,12.481 L17.543,12.525 L15.131,14.592 L15.131,10.592 Z M12.364,12.215 L12.364,16.992 L10.88,18.26 L5.301,18.26 L12.363,12.216 L12.364,12.215 Z M19.934,15.015 L43.442,15.015 L43.442,16.704 L23.409,16.704 C23.3723493,16.7024681 23.3356507,16.7024681 23.299,16.704 C23.1486493,16.7005647 22.9988198,16.7228869 22.856,16.77 C22.826,16.784 22.796,16.799 22.767,16.815 L22.723,16.837 C22.6199753,16.8841333 22.5232291,16.9439278 22.435,17.015 C22.4275864,17.0222526 22.4202526,17.0295864 22.413,17.037 L22.347,17.081 L22.302,17.125 L19.934,19.169 L19.934,15.014 L19.934,15.015 Z M17.167,16.615 L17.167,21.237 C17.1652907,21.333809 17.1726563,21.4305653 17.189,21.526 L15.839,22.681 C15.8093418,22.6799973 15.7796582,22.6799973 15.75,22.681 L10.106,22.681 L17.167,16.615 Z M2.801,21.17 L7.494,21.17 L5.457,22.881 L5.413,22.925 L5.347,22.992 C5.12076036,23.1835092 4.95850356,23.4396307 4.882,23.726 L4.882,23.748 C4.87331567,23.7843835 4.86597735,23.8210751 4.86,23.858 L4.86,23.881 C4.85015942,23.924882 4.84281431,23.9692866 4.838,24.014 C4.8366574,24.0509878 4.8366574,24.0880122 4.838,24.125 C4.83454566,24.1842831 4.83454566,24.2437169 4.838,24.303 L4.838,58.392 L2.8,58.392 L2.8,21.17 L2.801,21.17 Z M21.926,21.214 L21.926,27.281 L14.865,27.281 L21.926,21.214 Z M27.549,24.037 C27.592949,24.0340027 27.637051,24.0340027 27.681,24.037 L44.371,24.037 C44.882,24.029 45.358,24.299 45.615,24.742 C45.873,25.185 45.873,25.732 45.615,26.176 C45.3581497,26.6184834 44.8825806,26.8879981 44.371,26.881 L27.681,26.881 C27.1744084,26.9044894 26.6938868,26.6554571 26.421,26.228 C26.1472912,25.7992241 26.1221549,25.2572703 26.355,24.805 C26.5869706,24.3538525 27.0422764,24.0609925 27.549,24.037 Z M7.605,25.592 L12.43,25.592 L10.283,27.437 C10.2448737,27.4644608 10.2081602,27.4938316 10.173,27.525 L10.106,27.592 L10.062,27.614 C10.0385115,27.6431225 10.0161614,27.6731451 9.995,27.704 C9.9875917,27.710921 9.98025794,27.7179214 9.973,27.725 C9.94985081,27.7541401 9.92783444,27.7841624 9.907,27.815 C9.89925663,27.8219155 9.8915895,27.828916 9.884,27.836 C9.86085081,27.8651401 9.83883444,27.8951624 9.818,27.926 C9.81059175,27.9329211 9.803258,27.9399215 9.796,27.947 C9.779863,27.9834001 9.76518466,28.0204296 9.752,28.058 L9.707,28.148 L9.685,28.191 L9.685,28.213 C9.668863,28.2494001 9.65418466,28.2864296 9.641,28.324 L9.641,28.346 C9.63226704,28.3830447 9.62492853,28.4204044 9.619,28.458 L9.619,28.48 C9.60915942,28.523882 9.60181431,28.5682866 9.597,28.613 C9.5956574,28.6499878 9.5956574,28.6870122 9.597,28.724 C9.59354566,28.7832831 9.59354566,28.8427169 9.597,28.902 L9.597,62.812 L7.605,62.812 L7.605,25.592 L7.605,25.593 L7.605,25.592 Z M27.438,29.703 C27.489,29.7 27.541,29.7 27.593,29.703 L44.283,29.703 C44.793,29.696 45.269,29.965 45.527,30.408 C45.7839874,30.8514589 45.7839874,31.3985411 45.527,31.842 C45.2704057,32.2848683 44.7947879,32.5547929 44.283,32.548 L27.593,32.548 C27.2164273,32.5681505 26.8473052,32.4376815 26.5670378,32.1853658 C26.2867704,31.9330501 26.1183791,31.5796132 26.099,31.203 C26.0546648,30.419075 26.6540887,29.7475769 27.438,29.703 Z M18.008,35.548 C18.06,35.545 18.111,35.545 18.163,35.548 L44.55,35.548 C45.06,35.54 45.536,35.81 45.794,36.253 C46.052,36.696 46.052,37.243 45.794,37.687 C45.5371497,38.1294834 45.0615806,38.3989981 44.55,38.392 L18.163,38.392 C17.3806472,38.4311055 16.7143963,37.8292872 16.674,37.047 C16.6296074,36.2649157 17.2260812,35.594218 18.008,35.547 L18.008,35.548 Z M18.008,41.303 C18.06,41.3 18.111,41.3 18.163,41.303 L44.46,41.303 C44.97,41.296 45.446,41.565 45.704,42.008 C45.9609874,42.4514589 45.9609874,42.9985411 45.704,43.442 C45.4474057,43.8848683 44.9717879,44.1547929 44.46,44.148 L18.163,44.148 C17.3802659,44.1876765 16.7133897,43.5856976 16.673,42.803 C16.6286196,42.0205481 17.2256826,41.3496909 18.008,41.303 Z M18.118,47.059 C18.163,47.057 18.208,47.057 18.252,47.059 L44.372,47.059 C44.882,47.051 45.358,47.321 45.615,47.764 C45.873,48.207 45.873,48.754 45.615,49.198 C45.3581497,49.6404834 44.8825806,49.9099981 44.371,49.903 L18.251,49.903 C17.7444084,49.9264894 17.2638868,49.6774571 16.991,49.25 C16.7176713,48.8214695 16.6925401,48.2800059 16.925,47.828 C17.156441,47.3760781 17.6118478,47.0823904 18.119,47.058 L18.118,47.059 Z M18.118,52.903 C18.163,52.901 18.208,52.901 18.252,52.903 L44.282,52.903 C44.794,52.896 45.269,53.165 45.527,53.608 C45.7839874,54.0514589 45.7839874,54.5985411 45.527,55.042 C45.2704057,55.4848683 44.7947879,55.7547929 44.283,55.748 L18.252,55.748 C17.7452083,55.7712763 17.2646413,55.5218392 16.992,55.094 C16.7183523,54.6656504 16.69284,54.1241816 16.925,53.672 C17.1567059,53.2204653 17.6120622,52.9271915 18.119,52.903 L18.118,52.903 Z M18.118,58.57 C18.163,58.568 18.208,58.568 18.252,58.57 L44.372,58.57 C44.882,58.563 45.358,58.832 45.615,59.275 C45.873,59.718 45.873,60.266 45.615,60.709 C45.3581497,61.1514834 44.8825806,61.4209981 44.371,61.414 L18.251,61.414 C17.7444084,61.4374894 17.2638868,61.1884571 16.991,60.761 C16.7176713,60.3324695 16.6925401,59.7910059 16.925,59.339 C17.156441,58.8870781 17.6118478,58.5933904 18.119,58.569 L18.118,58.57 Z" id="Shape" fill="#0B8FDF"></path>
        </g>
    </g>
</svg>