<svg width="76" height="76" xmlns="http://www.w3.org/2000/svg"><g fill-rule="nonzero" fill="none"><path d="M60.048 57.497L74.4 30.85 29.735 16.152l-14.897 10.39 4.774 39.582 40.436-8.627z" stroke="#18E9A6" fill="#18E9A6"/><path d="M21.761 35.735V15.717a1.527 1.527 0 0 0-1.5-1.541h-.111C8.946 15.019.32 24.558.447 35.959.573 47.36 9.411 56.7 20.631 57.284c.372.02.743.029 1.116.029 5.1.015 10.033-1.83 13.882-5.194a1.544 1.544 0 0 0 .062-2.24l-13.93-14.144zm0 16.565H20.9c-7.871-.428-14.318-6.502-15.324-14.437C4.57 29.927 9.293 22.396 16.802 19.96v15.775a5.072 5.072 0 0 0 1.443 3.558L29.25 50.455a16.131 16.131 0 0 1-7.489 1.845zm23.214-15.686a21.652 21.652 0 0 1-3.521 10.536 1.29 1.29 0 0 1-1.977.204L27.932 36.126a.537.537 0 0 1-.125-.583.524.524 0 0 1 .486-.336h15.378c.36 0 .705.15.953.416.246.267.373.625.35.99zm2.645-6.87c.02.34-.099.673-.33.922-.23.247-.551.387-.887.387h-19.36a.66.66 0 0 1-.47-.198.678.678 0 0 1-.194-.476V10.724c0-.34.136-.665.38-.9.243-.232.57-.354.904-.336 10.741.662 19.306 9.355 19.957 20.257z" fill="#0B8FDF"/></g></svg>