<svg xmlns="http://www.w3.org/2000/svg" width="100" height="70"><g fill="none" fill-rule="evenodd"><path fill="#18E9A6" d="M71.839 4.842l.011-.018C68.372 3.465 64.86 2.216 61.34 1L3.967 24.883.086 57.186l37.788 2.698 21.328-2.548L71.839 4.842z"/><path fill="#0B8FDF" fill-rule="nonzero" d="M57.148 45.214c-.993.929-2.98 18.572-3.477 23.143-.071.643-.568 1.072-1.206 1.072H39.548c-.638 0-1.206-.572-1.206-1.215V67c-3.974-4.143-5.394-10.214-5.394-10.214l-1.277-11.143c-2.91-10 .568-10.286.568-10.286h.355c4.612 0 5.393 9.143 5.393 9.143s1.632 3.429 3.123 4.5V9.214c-.142.072-.426.072-.71.072-2.342 0-4.258-1.929-4.258-4.286 0-.286 0-.5.07-.786H23.156c.07.215.07.5.07.786 0 2.357-1.915 4.286-4.257 4.286-.284 0-.568 0-.78-.072v31.643c.567-.143 1.206-.143 1.844-.071 1.774.285 3.194 1.714 3.478 3.5.07.643.07 1.214-.071 1.785h4.4c0 .072.07.215.07.286l.356 3.357h-9.51c-2.342 0-4.258-1.928-4.258-4.285V4.714c0-2.357 1.916-4.285 4.258-4.285h21.787c2.342 0 4.258 1.928 4.258 4.285V27.93c2.129 1.285 10.148 10.214 10.929 10.785 2.697 2.286 1.42 6.5 1.42 6.5zm-24.91-33.643A2.553 2.553 0 0 0 29.685 9a2.553 2.553 0 0 0-2.555 2.571 2.553 2.553 0 0 0 2.555 2.572 2.553 2.553 0 0 0 2.555-2.572zm-2.554 4.286c5.11 0 9.297 4.214 9.297 9.357a9.432 9.432 0 0 1-3.265 7.143c-.922-.428-1.916-.714-2.98-.714h-.71c-.568.071-2.413.357-3.761 2.357-.071.143-.142.214-.213.357-4.4-.786-7.665-4.643-7.665-9.214 0-5.143 4.187-9.286 9.297-9.286zM24.929 25.5l1.703 1.786 1.774 1.857 1.846-1.786 4.116-4.143-1.774-1.857-4.117 4.143-1.703-1.857L24.93 25.5z"/></g></svg>