<svg width="76" height="76" xmlns="http://www.w3.org/2000/svg"><g fill-rule="nonzero" fill="none"><path d="M20.3 66.533l54.886-3.5-2.17-14.16L29.95 4.547.63 33.521 20.3 66.533z" stroke="#18E9A6" fill="#18E9A6"/><path d="M69.618 43.72L65.97 34.65a.417.417 0 0 0-.499-.245l-11.382 3.142H26.012L14.63 34.406a.417.417 0 0 0-.499.245l-3.648 9.069a.414.414 0 0 0 .272.552l11.207 3.177.017 26.447A1.104 1.104 0 0 0 23.089 75h33.939a1.11 1.11 0 0 0 1.11-1.104l.007-26.381c0-.023 0-.044-.002-.066l11.203-3.177a.414.414 0 0 0 .273-.552zm-45.156 2.714l1.805-6.724h27.568l1.805 6.724H24.462z" fill="#0B8FDF"/><path fill="#09DF9F" d="M33.587 51.311h13.607v2.707H33.587z"/><path d="M44.48 31.117v1c.001.784-.573 1.451-1.35 1.569l-.248.908a1.135 1.135 0 0 1-1.097.838H39.33c-.514 0-.963-.344-1.097-.838l-.24-.908a1.595 1.595 0 0 1-1.36-1.577v-1c0-.534.432-.963.97-.963h5.908a.974.974 0 0 1 .97.971zm4.55-13.471a8.36 8.36 0 0 1-2.377 5.849 7.712 7.712 0 0 0-2.08 4.195 1.399 1.399 0 0 1-1.387 1.175h-5.257c-.687 0-1.28-.493-1.38-1.169a7.802 7.802 0 0 0-2.094-4.209 8.368 8.368 0 0 1-2.364-5.75c-.05-4.687 3.7-8.48 8.413-8.516 4.705-.035 8.526 3.752 8.526 8.424zm-7.514-5.103a.953.953 0 0 0-.955-.95c-3.368 0-6.114 2.724-6.114 6.08.001.526.43.952.956.951a.953.953 0 0 0 .955-.95c0-2.309 1.889-4.18 4.202-4.18a.951.951 0 0 0 .956-.95zm-.956-6.088a.953.953 0 0 0 .955-.95v-3.33a.953.953 0 0 0-.954-.95.951.951 0 0 0-.956.95v3.33c.001.525.43.95.956.95zM29.318 17.64a.953.953 0 0 0-.956-.95h-3.346a.953.953 0 0 0-.955.95c0 .525.428.95.955.95h3.346a.951.951 0 0 0 .956-.95zm26.788-.95h-3.347a.953.953 0 0 0-.955.95c.001.525.428.95.955.95h3.347a.953.953 0 0 0 .955-.95.953.953 0 0 0-.955-.95zM31.264 25.55l-2.37 2.358a.944.944 0 0 0 .672 1.619c.24 0 .488-.092.672-.275l2.37-2.358a.944.944 0 0 0 0-1.345.947.947 0 0 0-1.344 0v.001zm17.922-15.54c.24 0 .489-.092.672-.275l2.37-2.358a.944.944 0 0 0 0-1.345.956.956 0 0 0-1.35 0l-2.371 2.359a.944.944 0 0 0 0 1.344.974.974 0 0 0 .68.274zm-17.922-.282a.958.958 0 0 0 1.626-.672.944.944 0 0 0-.281-.673l-2.371-2.357a.956.956 0 0 0-1.633.672c0 .253.102.495.282.672l2.377 2.358zM49.858 25.55a.956.956 0 0 0-1.632.672c0 .253.101.495.281.672l2.37 2.358a.955.955 0 0 0 1.626-.672.944.944 0 0 0-.282-.672l-2.363-2.358z" fill="#232323"/></g></svg>