<?xml version="1.0" encoding="UTF-8" standalone="no"?>
<svg width="76px" height="76px" viewBox="0 0 76 76" version="1.1" xmlns="http://www.w3.org/2000/svg" xmlns:xlink="http://www.w3.org/1999/xlink">
    <!-- Generator: Sketch 50.2 (55047) - http://www.bohemiancoding.com/sketch -->
    <title>wt-icon--icons/custom/lif-token</title>
    <desc>Created with Sketch.</desc>
    <defs></defs>
    <g id="icons/custom/lif-token" stroke="none" stroke-width="1" fill="none" fill-rule="evenodd">
        <g id="wt-icon--lif-token" fill-rule="nonzero">
            <path d="M73.5126028,44.3618144 L74.4047578,10.7605865 L23.5062887,18.9361611 L14.0536317,36.7738398 L38.2421521,73.4005925 L73.5126028,44.3618144 Z" id="Shape" stroke="#18E9A6" fill="#18E9A6"></path>
            <path d="M49.7634783,45.0286765 L47.164058,42.9959559 C48.1402471,41.7448345 48.9709534,40.3864479 49.6401159,38.9470588 L52.6305507,40.3400735 C51.8553411,42.0063203 50.8934744,43.5789175 49.7634783,45.0275735 L49.7634783,45.0286765 Z M35.675942,37.8860294 C34.1740165,37.8872854 32.7244447,37.3335341 31.6049855,36.3308824 C31.6853913,38.3382353 31.9508406,41.0360294 32.7593043,42.4852941 L27.8204058,42.4852941 C28.6288696,41.0360294 28.8943188,38.3382353 28.9747246,36.3308824 C27.8551474,37.3340589 26.4050289,37.8878692 24.9026667,37.8860294 C21.6392759,37.881781 18.9524856,35.3157963 18.7938136,32.0518475 C18.6351417,28.7878987 21.0603352,25.972729 24.3078841,25.6511029 C23.7546684,23.1948155 24.7571417,20.6495227 26.8358247,19.2326286 C28.9145076,17.8157345 31.6468973,17.81523 33.7261019,19.2313566 C35.8053064,20.6474831 36.8087169,23.1924055 36.2564058,25.6488971 C39.5108976,25.9589863 41.9483143,28.7741307 41.7934999,32.0440775 C41.6386855,35.3140242 38.9462348,37.8856387 35.6770435,37.8860294 L35.675942,37.8860294 Z M30.6555362,54.3794118 L30.6555362,51.0705882 C32.2471304,51.0705882 33.8354203,50.8908088 35.3730435,50.5367647 L36.1110145,53.7540441 C34.3220103,54.1685317 32.4918016,54.3783306 30.6555362,54.3794118 Z M16.9017391,50.0889706 C15.3897095,49.0442397 14.0004131,47.8317687 12.7602899,46.4746324 L15.2,44.2444853 C16.2707339,45.4179842 17.4704827,46.4665501 18.7764058,47.3702206 L16.9017391,50.0889706 Z M9.76324638,31.3411765 L6.46771014,31.5308824 C6.44017391,31.0621324 6.42365217,30.5900735 6.42365217,30.1147059 C6.42365217,28.725 6.54591304,27.3650735 6.7706087,26.0393382 L10.022087,26.5908088 C9.75826216,28.1595438 9.67143646,29.7530109 9.76324638,31.3411765 Z M19.1806377,8.73970588 L20.7457971,11.6514706 C19.3486799,12.4056412 18.0413705,13.3158553 16.8488696,14.3647059 L14.6724058,11.8841912 C16.0514752,10.6688882 17.5639092,9.61433766 19.1806377,8.74080882 L19.1806377,8.73970588 Z M35.1902029,6.28014706 C36.9946498,6.62276462 38.7540706,7.1708074 40.4342029,7.91360294 L39.1014493,10.9356618 C37.6515078,10.293851 36.1330242,9.82018547 34.5755942,9.52389706 L35.1902029,6.28125 L35.1902029,6.28014706 Z M52.2164058,19.0444853 C53.0574456,20.6804767 53.7086062,22.4075385 54.1571594,24.1919118 L50.9552464,24.9970588 C50.5686884,23.4568958 50.0077196,21.9659836 49.2832464,20.5533088 L52.2164058,19.0444853 Z M30.2898551,0 C13.5610435,0 0,13.5794118 0,30.3308824 C0,47.0823529 13.5610435,60.6617647 30.2898551,60.6617647 C47.0186667,60.6617647 60.5797101,47.0823529 60.5797101,30.3308824 C60.5797101,13.5794118 47.0186667,0 30.2898551,0 Z" id="Shape" fill="#0B8FDF"></path>
        </g>
    </g>
</svg>