<svg width="76" height="76" xmlns="http://www.w3.org/2000/svg"><g fill-rule="nonzero" fill="none"><path d="M8.532 43.434l40.042 25.31 26.765-30.99L57.943 6.852 22.08 24.345 8.532 43.434z" stroke="#18E9A6" fill="#18E9A6"/><g fill="#0B8FDF"><path d="M55.928 48.124c-1.109-.083-3.41 1.19-4.03 1.521-2.24 1.155-5.352 2.97-7.39 4.42-.144.095-.334.225-.477.32a8.554 8.554 0 0 1-2.968 1.249c-5.937 1.297-14.603 1.439-14.603 1.439l-.5.023a.739.739 0 0 1-.776-.624.737.737 0 0 1 .668-.838l12.874-1.261c1.419-.154 2.551-1.521 2.397-3.054-.156-1.533-1.527-2.653-2.945-2.488l-11.456-.141c-.775-.012-2.027-.213-2.777-.437-7.379-2.216-11.54-.141-13.757.826a2.66 2.66 0 0 0-2.48-1.309l-4.934.342c-1.645.118-2.886 1.52-2.766 3.148l.787 11.247a2.967 2.967 0 0 0 3.182 2.736l4.936-.341a2.645 2.645 0 0 0 2.265-1.629l21.683.957c2.42.258 4.685-.036 6.807-1.18l.62-.33 16.402-9.844c.811-.484 1.383-1.321 1.408-2.253.035-1.131-.61-2.381-2.17-2.499zM5.777 62.58a1.67 1.67 0 0 1-1.68-1.663c0-.92.751-1.662 1.68-1.662.93 0 1.681.743 1.681 1.662 0 .908-.75 1.663-1.68 1.663h-.001z"/><path d="M43.482 49.915c.23.67.32 1.381.263 2.088.167-.118.345-.248.512-.365 1.67-1.203 5.103-3.113 7.034-4.115.602-.32 1.223-.604 1.86-.85-.847-.577-1.753-.6-2.683-.234-1.848.742-5.233 2.428-6.962 3.394 0 .03-.009.058-.024.083zm2.564-4.798c-1.133.46-3.684 1.308-4.816 1.922.487.307.917.684 1.287 1.132.071-.047.143-.106.227-.153l.822-.472c1.216-.684 3.79-1.615 5.126-2.228-.847-.555-1.74-.578-2.646-.2zM17.59 27.243c.167.236.155.401 0 .637a139.424 139.424 0 0 0-2.134 3.266c-.668 1.061-.25 2.287.929 2.735 1.23.472 2.444.932 3.672 1.38.263.094.347.224.358.483.06 1.226.19 2.453.178 3.68-.011 1.249 1.098 2.345 2.6 1.874 1.19-.378 2.42-.65 3.624-.991.238-.07.38-.024.548.177.8.994 1.611 1.98 2.432 2.959.894 1.073 2.181 1.073 3.063 0 .81-.985 1.612-1.975 2.409-2.97.154-.189.285-.26.535-.189 1.252.342 2.504.671 3.768 1.002 1.287.341 2.371-.436 2.444-1.745.071-1.285.142-2.558.19-3.844.011-.295.143-.412.394-.506 1.192-.437 2.371-.896 3.552-1.357 1.276-.495 1.681-1.721.942-2.853-.704-1.061-1.396-2.134-2.11-3.183-.168-.236-.155-.401 0-.637.69-1.037 1.373-2.078 2.05-3.124.799-1.227.381-2.453-1.002-2.948-1.18-.424-2.348-.885-3.516-1.308-.25-.094-.345-.224-.358-.495-.06-1.274-.131-2.536-.202-3.797-.072-1.344-1.145-2.11-2.456-1.77-1.24.332-2.48.65-3.707 1.004-.286.082-.43.011-.608-.2-.787-.98-1.598-1.958-2.396-2.925-.87-1.073-2.182-1.073-3.064 0-.787.967-1.585 1.922-2.348 2.912-.215.271-.406.318-.715.224-1.205-.342-2.42-.648-3.29-.885-1.693-.4-2.683.284-2.778 1.651-.087 1.28-.15 2.562-.19 3.844-.013.271-.108.39-.347.484-1.216.447-2.428.907-3.635 1.38-1.252.495-1.645 1.709-.907 2.829a77.37 77.37 0 0 0 2.075 3.206zm9.12 5.412c.118-.423.237-.849.368-1.273.155-.495.287-.554.74-.318.775.4 1.609.624 2.467.73.55.08 1.11.006 1.622-.212.965-.412 1.12-1.52.297-2.18-.274-.225-.596-.39-.917-.531-.847-.366-1.729-.649-2.527-1.12-1.3-.767-2.123-1.817-2.015-3.384.107-1.77 1.12-2.865 2.753-3.454.68-.249.68-.236.68-.932v-.708c.012-.53.107-.612.632-.625h.488c1.121 0 1.121 0 1.133 1.11 0 .789 0 .789.799.919a6.972 6.972 0 0 1 1.752.518c.31.13.43.354.334.672-.143.484-.274.967-.43 1.438-.142.448-.298.52-.726.307a5.51 5.51 0 0 0-2.778-.542 2.021 2.021 0 0 0-.739.154c-.835.365-.978 1.273-.263 1.839.359.282.775.495 1.205.672.738.306 1.49.601 2.193.978 2.253 1.226 2.85 4.02 1.276 5.93a4.249 4.249 0 0 1-2.182 1.392c-.382.106-.549.294-.536.683.012.378 0 .767 0 1.145 0 .341-.179.53-.513.53-.417.012-.835.012-1.251 0-.37-.012-.537-.212-.537-.566 0-.283 0-.555-.012-.838-.012-.612-.024-.647-.632-.73-.763-.118-1.525-.295-2.229-.625-.56-.271-.608-.412-.453-.979z"/></g></g></svg>