<svg xmlns="http://www.w3.org/2000/svg" width="100" height="80"><g fill="none" fill-rule="evenodd"><path fill="#09DF9F" d="M84.003 15.044L55.154 3.082l-9.8 46.554 12.349 14.181 39.629-8.767z"/><path fill="#0B8FDF" d="M39.044 23.78a5.528 5.528 0 0 1-.103-.086c.009.056.016.112.022.168l.081-.083zm1.127 31.625a5.5 5.5 0 0 1-10.164-2.614 5.5 5.5 0 0 1-1.934-10.775A7.058 7.058 0 0 1 28 41a6.97 6.97 0 0 1 1.295-4.057 5.5 5.5 0 0 1-1.086-10.935 5.5 5.5 0 0 1 8.85-5.701 5.5 5.5 0 0 1 7.423-5.938 6.503 6.503 0 0 1 11.353 2.672 5.502 5.502 0 0 1 5.817 3.53 5.5 5.5 0 0 1 8.042 7.488 5.5 5.5 0 0 1 6.286 4.962 5.5 5.5 0 0 1-.049 10.962c-.05.358-.127.707-.23 1.045a5.5 5.5 0 1 1-8.337 6.446 7 7 0 0 1-9.688-10.02 5.529 5.529 0 0 1-.694-.817 7.024 7.024 0 0 1-3.47 2.899A15.524 15.524 0 0 0 53 47.5c0 4.39 1.826 8.355 4.76 11.176l-.102 7.869A8.488 8.488 0 0 0 64.5 70c.87 0 1.685.334 2.5.901V72H39v-1.38c.312-.763 2.252-1.62 3.5-1.62a8.466 8.466 0 0 0 5.478-2 8.631 8.631 0 0 0 1.772-2.06l-.526-12.733A7 7 0 0 1 43 56a6.976 6.976 0 0 1-2.829-.595z"/></g></svg>