<svg xmlns="http://www.w3.org/2000/svg" width="76" height="76"><path fill="#18E9A6" stroke="#18E9A6" d="M65.014 57.304l10.363-44.162-8.643-2.669-48.333 19.851-3.151 27.408 49.764-.428z"/><path fill="#0B8FDF" d="M.118 43.404c.002-.127.024-.254.066-.375 2.741 1.451 6.806 2.057 10.721 2.057s7.969-.591 10.72-2.057c.042.121.064.248.066.375v2.982c0 1.913-4.825 3.467-10.776 3.467-5.953 0-10.777-1.543-10.777-3.467l-.02-2.982zm0 19.13C.118 64.457 4.947 66 10.899 66c5.952 0 10.777-1.543 10.777-3.466v-2.982a1.205 1.205 0 0 0-.067-.376c-2.741 1.451-6.805 2.058-10.72 2.058-3.916 0-7.969-.592-10.721-2.058a1.176 1.176 0 0 0-.066.376l.016 2.982zm46.726 0v-2.982a1.204 1.204 0 0 0-.066-.376c-2.74 1.451-6.806 2.058-10.721 2.058-3.916 0-7.969-.592-10.721-2.058a1.204 1.204 0 0 0-.066.376v2.982C25.29 64.457 30.12 66 36.067 66s10.783-1.543 10.783-3.466h-.006zM.117 54.455c0 1.913 4.825 3.467 10.776 3.467 5.953 0 10.777-1.543 10.777-3.467v-2.982a1.148 1.148 0 0 0-.066-.375c-2.715 1.451-6.8 2.046-10.705 2.046-3.906 0-7.969-.591-10.721-2.057a1.176 1.176 0 0 0-.066.376l.005 2.992zm0-19.129v2.983c0 1.912 4.825 3.465 10.776 3.465 5.953 0 10.777-1.542 10.777-3.465v-2.983c0-1.913-4.824-3.465-10.777-3.465-5.952 0-10.776 1.553-10.776 3.47v-.005zm42.658-9.308c.175-.029.346-.078.51-.143.153-.06.3-.138.435-.232.306-.216.533-.524.649-.879.051-.191.065-.39.045-.585a1.723 1.723 0 0 0-.144-.582 1.944 1.944 0 0 0-.353-.514l-6.207-6.81a1.9 1.9 0 0 0-.331-.282 2.389 2.389 0 0 0-.842-.345 2.44 2.44 0 0 0-1.394.133c-.137.056-.27.127-.393.211-.12.081-.23.176-.327.282l-6.208 6.788c-.21.227-.363.5-.444.798-.085.315-.073.648.036.956a1.792 1.792 0 0 0 .408.642c.266.256.593.442.95.54.198.049.4.074.603.072h2.588l-.306 8.784c-.002.278.056.553.168.807.104.251.256.479.449.669.198.197.432.352.689.458.272.112.563.17.857.17h3.727a2.14 2.14 0 0 0 1.541-.622 2.021 2.021 0 0 0 .583-1.487l-.307-8.783h2.491c.177.002.353-.011.526-.041v-.005h.001zm4.084 25.455a1.193 1.193 0 0 0-.066-.375c-2.741 1.451-6.806 2.057-10.721 2.057s-7.969-.591-10.72-2.057a1.17 1.17 0 0 0-.066.375v2.982c0 1.913 4.825 3.467 10.776 3.467 5.952 0 10.776-1.543 10.776-3.467l.021-2.982zm0-8.073c0-1.914-4.824-3.467-10.777-3.467-5.952 0-10.776 1.543-10.776 3.467v2.982c0 1.912 4.825 3.465 10.776 3.465 5.953 0 10.777-1.543 10.777-3.465V43.4z"/></svg>