<?xml version="1.0" encoding="UTF-8" standalone="no"?>
<svg width="76px" height="76px" viewBox="0 0 76 76" version="1.1" xmlns="http://www.w3.org/2000/svg" xmlns:xlink="http://www.w3.org/1999/xlink">
    <!-- Generator: Sketch 50.2 (55047) - http://www.bohemiancoding.com/sketch -->
    <title>wt-icon--icons/custom/tree</title>
    <desc>Created with Sketch.</desc>
    <defs></defs>
    <g id="icons/custom/tree" stroke="none" stroke-width="1" fill="none" fill-rule="evenodd">
        <g id="wt-icon--tree" transform="translate(0.000000, 3.000000)" fill-rule="nonzero">
            <path d="M61.4139879,12.592883 L32.9479426,0.776167167 L23.1925286,47.1713885 L35.3478499,61.1459482 L74.6735769,52.4360862 L61.4139879,12.592883 Z" id="Shape" stroke="#18E9A6" fill="#18E9A6"></path>
            <path d="M16.25792,21.0811594 C16.2227776,21.0525011 16.1879839,21.0234168 16.1535467,20.993913 C16.1626667,21.0507246 16.16976,21.1075362 16.17584,21.1643478 L16.25792,21.0801449 L16.25792,21.0811594 Z M17.3999467,53.1644928 C16.1148696,55.2349806 13.6360068,56.2306395 11.2778831,55.6234782 C8.91975948,55.0163168 7.22828057,52.946893 7.10042667,50.5126087 C4.24268755,50.7407434 1.67821904,48.761246 1.17175024,45.9363002 C0.665281439,43.1113543 2.38203777,40.3625427 5.14064,39.5814493 C5.09121784,39.2401065 5.0664957,38.8956348 5.06666667,38.5507246 C5.06447793,37.0753283 5.52332454,35.6362004 6.37893333,34.4349275 C3.40298054,34.5955213 0.827439113,32.3838131 0.532904882,29.4147368 C0.238370652,26.4456605 2.32908177,23.7699972 5.27845333,23.3414493 C4.60446728,20.9775353 5.55523753,18.4505322 7.61952474,17.1192365 C9.68381194,15.7879409 12.3751808,15.9660636 14.2464533,17.5578261 C13.9550961,15.5933115 14.7287439,13.6218257 16.2778579,12.3812001 C17.826972,11.1405744 19.9180209,10.8178352 21.7684267,11.5337681 C23.3642883,9.59624634 25.9205104,8.73382991 28.3622192,9.30915897 C30.803928,9.88448803 32.7076177,11.7977738 33.2728,14.2444928 C35.8277822,13.9329408 38.2637301,15.4128677 39.16736,17.8256522 C41.2950989,15.7391795 44.685422,15.6962503 46.8651902,17.7281801 C49.0449583,19.7601099 49.243765,23.1487433 47.3165867,25.4221739 C48.8362505,25.196542 50.3815494,25.6089197 51.587412,26.5618844 C52.7932745,27.5148491 53.5527446,28.9238758 53.6864,30.456087 C56.5741874,30.7096901 58.7856193,33.1372303 58.7726615,36.0393944 C58.7597036,38.9415585 56.5266832,41.3492092 53.6367467,41.5769565 C53.58608,41.9401449 53.5080533,42.2942029 53.40368,42.6371014 C55.3401374,44.0266435 56.1801948,46.4948402 55.4940984,48.7790193 C54.808002,51.0631984 52.7474976,52.6581616 50.3666914,52.7479628 C47.9858853,52.8377639 45.8113471,51.4025414 44.95552,49.1765217 C42.0973474,51.4628186 37.9711944,51.1978513 35.4282094,48.5647109 C32.8852243,45.9315705 32.7596886,41.7941157 35.1383467,39.0113043 C34.8776668,38.7584807 34.6421424,38.4808962 34.4350933,38.1824638 C33.61884,39.52402 32.3826722,40.5579539 30.9188267,41.1234783 C30.5735185,42.435979 30.3991312,43.7876626 30.4,45.1449275 C30.4,49.5985507 32.2503467,53.6210145 35.2234667,56.4828986 L35.1201067,64.465942 C36.7426795,66.6719279 39.3169134,67.9733243 42.0533333,67.9710145 C42.9349333,67.9710145 43.7608,68.3098551 44.5866667,68.8850725 L44.5866667,70 L16.2133333,70 L16.2133333,68.6 C16.5294933,67.825942 18.49536,66.9565217 19.76,66.9565217 C21.7919708,66.9596915 23.7591007,66.2406771 25.31104,64.9275362 C26.0160467,64.3302058 26.6220979,63.624848 27.1066667,62.8376812 L26.5736533,49.9201449 C25.3567629,52.2838302 22.9228042,53.7688187 20.2666667,53.7681159 C19.279476,53.769514 18.3029373,53.5638918 17.3999467,53.1644928 Z" id="Shape" fill="#0B8FDF"></path>
        </g>
    </g>
</svg>