<svg width="76" height="76" xmlns="http://www.w3.org/2000/svg"><g fill="none" fill-rule="evenodd"><path d="M2.535 31.895l5.707 28.414 40.726-16.622 4.473-16.844L26.38.75 2.535 31.895z" stroke="#18E9A6" fill="#18E9A6" fill-rule="nonzero"/><g transform="translate(11 3)"><path d="M11.604 12.448l15.852 10.35m20.688-4.583l10.131 10.942M48.24 18.851l-7.02 12.282M10.44 13.085l-7.02 29.58m-.01-.638l11.45-5.874m-.107-.532l12.075-11.646m-.735.752L36.224 3.525M27.37 23.34l4.48 20.605m1.19 1.183v21.837m-1.172-23.123L16.642 56.125m10.08-33.971l20.897-3.296m1.152.092l10.134-7.095M32.397 44.483l17.106 2.67" stroke="#0B8FDF" stroke-width="1.5" stroke-linecap="square"/><ellipse fill="#232323" fill-rule="nonzero" cx="17.01" cy="55.751" rx="6.3" ry="6.408"/><ellipse fill="#0B8FDF" fill-rule="nonzero" cx="50.4" cy="47.42" rx="6.3" ry="6.408"/><ellipse fill="#0B8FDF" fill-rule="nonzero" cx="3.15" cy="42.935" rx="3.15" ry="3.204"/><ellipse fill="#0B8FDF" fill-rule="nonzero" cx="32.13" cy="44.216" rx="3.15" ry="3.204"/><ellipse fill="#0B8FDF" fill-rule="nonzero" cx="41.58" cy="32.041" rx="3.15" ry="3.204"/><ellipse fill="#0B8FDF" fill-rule="nonzero" cx="33.39" cy="68.567" rx="3.15" ry="3.204"/><ellipse fill="#0B8FDF" fill-rule="nonzero" cx="58.59" cy="28.837" rx="3.15" ry="3.204"/><ellipse fill="#0B8FDF" fill-rule="nonzero" cx="36.54" cy="3.204" rx="3.15" ry="3.204"/><ellipse fill="#232323" fill-rule="nonzero" cx="59.85" cy="11.534" rx="3.15" ry="3.204"/><ellipse fill="#0B8FDF" fill-rule="nonzero" cx="27.72" cy="22.429" rx="6.3" ry="6.408"/><ellipse fill="#0B8FDF" fill-rule="nonzero" cx="47.88" cy="19.224" rx="3.15" ry="3.204"/><ellipse fill="#232323" fill-rule="nonzero" cx="11.34" cy="12.816" rx="3.15" ry="3.204"/><ellipse fill="#0B8FDF" fill-rule="nonzero" cx="14.49" cy="35.885" rx="3.15" ry="3.204"/></g></g></svg>