<?xml version="1.0" encoding="UTF-8" standalone="no"?>
<svg width="76px" height="76px" viewBox="0 0 76 76" version="1.1" xmlns="http://www.w3.org/2000/svg" xmlns:xlink="http://www.w3.org/1999/xlink">
    <!-- Generator: Sketch 50.2 (55047) - http://www.bohemiancoding.com/sketch -->
    <title>wt-icon--icons/custom/alt/hand-click</title>
    <desc>Created with Sketch.</desc>
    <defs></defs>
    <g id="icons/custom/alt/hand-click" stroke="none" stroke-width="1" fill="none" fill-rule="evenodd">
        <g id="wt-icon--hand-click" transform="translate(3.000000, 0.000000)" fill-rule="nonzero">
            <path d="M26.1837144,75.3904584 L69.3345395,40.5768011 L57.7057157,22.7232533 L20.7967368,0.772382275 L5.56583734,61.0487011 L17.6402795,70.2078021 L26.1837144,75.3904584 Z" id="Shape" stroke="#18E9A6" fill="#18E9A6"></path>
            <path d="M28.134628,33.1136696 C29.3199539,32.8717263 30.5186552,33.4627549 31.0569987,34.5545663 C31.5953421,35.6463776 31.33904,36.9666235 30.4321475,37.7732561 L30.4878045,37.8576494 C31.3082314,37.3657741 32.326619,37.352538 33.1593504,37.8229269 C33.9920818,38.2933159 34.5126453,39.1758667 34.5249497,40.138131 C34.5372541,41.1003952 34.03943,41.9961821 33.219003,42.4880574 L33.2897987,42.7955542 C34.556816,42.2574429 36.0220633,42.7763255 36.677,43.9950512 C37.3319367,45.2137769 36.9628344,46.7346336 35.823749,47.5108043 L35.8518001,47.5390851 L25.4296995,58.0464975 C25.3562323,58.1295441 25.2800936,58.2107951 25.2008381,58.2906994 C22.9402748,60.5697669 19.275375,60.5697669 17.0148118,58.2906994 C16.8456122,58.1202108 16.6869513,57.9394129 16.5397239,57.7493254 L9.14936954,50.2975782 C8.06917917,49.2089947 6.73296677,45.1657485 5.14073233,38.1682885 L0.260729684,33.2474419 C-0.0869098947,32.8968508 -0.0869098947,32.3285426 0.260729684,31.9779515 L1.07421188,31.1573615 C1.47344469,30.7547802 2.00949465,30.520184 2.57383313,30.5010691 C5.26228714,30.4099423 7.32916417,31.0931687 8.77401897,32.5498506 C10.2211,34.0087771 11.850736,36.5199261 13.6647078,40.0837466 L31.4976444,22.1048353 L31.5239145,22.1308715 C32.1395859,21.2594708 33.2084539,20.8380654 34.2471324,21.0572322 C35.2858108,21.276399 36.0973493,22.0945805 36.3147366,23.1417612 C36.532124,24.1889419 36.11414,25.2665593 35.2498144,25.8872704 L35.2760844,25.9137555 L28.1341828,33.1136696 L28.134628,33.1136696 Z" id="Shape" fill="#0B8FDF"></path>
            <path d="M14.5003483,16 L17.1668461,16 L17.1668461,24.2447003 L14.5003483,24.2447003 L14.5003483,16 Z M25.1814095,18.3670504 L27,20.3772844 L21.1501931,26 L19.3316026,23.9897661 L25.1814095,18.3670504 Z M7.81859051,18.3670504 L6,20.3772844 L11.8498069,26 L13.6683974,23.9897661 L7.81859051,18.3670504 Z" id="Shape" fill="#232323"></path>
        </g>
    </g>
</svg>