<svg xmlns="http://www.w3.org/2000/svg" width="76" height="76"><path fill="#18E9A6" stroke="#18E9A6" d="M68.281 55.122l-.137.133.326-.141-.189.008zm-52.54 2.204l-.292.012.446.236-.154-.248zM1.052 34.651l14.843 22.923 52.576-2.46 6.108-6.286-27.918-35.613L1.052 34.651z"/><path fill="#0B8FDF" d="M45.779 61.165h-2.041V37.028c0-1.016-.908-1.917-1.928-1.917h-3.969c-.907-4.173-4.535-7.332-9.185-8.121v-1.467h6.464c1.021 0 1.927-.789 1.927-1.917v-4.174c0-1.015-.907-1.917-1.928-1.917h-6.576c-.227-.676-.908-1.24-1.815-1.24-1.021 0-1.928.902-1.928 1.917v8.798c-4.649.676-8.391 3.948-9.185 8.121h-3.968c-1.021 0-1.928.902-1.928 1.917v24.137H7.905c-1.021 0-1.927.789-1.927 1.917 0 1.129.906 1.918 1.927 1.918h37.988c1.021 0 1.928-.902 1.928-1.918s-.907-1.917-2.042-1.917zM23.78 38.944h6.124v4.286h-6.123l-.001-4.286zm0 16.468h6.124v4.286h-6.123l-.001-4.286zm9.866 0h6.237v4.286h-6.238l.001-4.286zm6.35-3.835h-6.35v-4.624h6.237v4.624h.113zm-10.092-4.624v4.624h-6.123v-4.624h6.123zm-9.865 4.624h-6.236v-4.624h6.236v4.624zm-6.351 3.835h6.35v4.286h-6.236v-4.286h-.114zM39.996 43.23h-6.35v-4.286h6.237v4.286h.113zm-26.308-4.286h6.35v4.286h-6.236v-4.286h-.114z"/></svg>