<?xml version="1.0" encoding="UTF-8" standalone="no"?>
<svg width="76px" height="76px" viewBox="0 0 76 76" version="1.1" xmlns="http://www.w3.org/2000/svg" xmlns:xlink="http://www.w3.org/1999/xlink">
    <!-- Generator: Sketch 50.2 (55047) - http://www.bohemiancoding.com/sketch -->
    <title>wt-icon--icons/custom/alt/token</title>
    <desc>Created with Sketch.</desc>
    <defs></defs>
    <g id="icons/custom/alt/token" stroke="none" stroke-width="1" fill="none" fill-rule="evenodd">
        <g id="wt-icon--token" fill-rule="nonzero">
            <path d="M20.1785654,73.4812256 L75.4243134,69.9043243 L73.2677559,55.6204905 L29.8535104,11.1537268 L0.627664693,40.4833776 L20.1785654,73.4812256 Z" id="Shape" stroke="#18E9A6" fill="#18E9A6"></path>
            <g id="Group" transform="translate(11.761905, 0.000000)">
                <ellipse id="Oval" fill="#0B8FDF" cx="28.2738095" cy="28.3742331" rx="28.2738095" ry="28.3742331"></ellipse>
                <path d="M32.2710476,35.0605644 C30.8686338,35.0620851 29.5150675,34.5437625 28.4701429,33.6050798 C28.5452381,35.484589 28.7931429,38.0073988 29.5477143,39.3625521 L24.9379524,39.3625521 C25.6925238,38.0078528 25.9399762,35.4854969 26.014619,33.6055337 C24.9698145,34.5437683 23.6166457,35.0619005 22.214619,35.0605644 C19.0574524,35.0605644 16.4987857,32.4923558 16.4987857,29.3244294 C16.4987857,26.344454 18.7625,23.8960982 21.6581905,23.6155337 C21.5677143,23.2105767 21.5188571,22.790184 21.5188571,22.3579877 C21.5188571,19.1900613 24.0775238,16.6218528 27.2346905,16.6218528 C30.3918571,16.6218528 32.9505238,19.1900613 32.9505238,22.3579877 C32.9505238,22.7897301 32.9016667,23.2096687 32.8116429,23.6141718 C35.7145714,23.8879264 37.986881,26.3394601 37.986881,29.3244294 C37.986881,32.4923558 35.4277619,35.0605644 32.2710476,35.0605644 Z" id="Shape" fill="#000000"></path>
                <path d="M49.4,30.2237791 C49.3051043,31.737811 49.0599056,33.2385623 48.6680476,34.7037301 L46.0460476,33.9986871 C46.3913133,32.7084451 46.6074158,31.3868458 46.6911429,30.0535337 L49.4004524,30.2237791 L49.4,30.2237791 Z M40.2275238,47.1112147 L38.6197619,44.916184 C39.6920341,44.1255518 40.682715,43.2291448 41.5769762,42.2403804 L43.5869048,44.0708589 C42.5710422,45.1943004 41.4456344,46.2128334 40.2275238,47.1112147 Z M27.5237619,50.6491411 L27.603381,47.9261227 C28.933381,47.9656196 30.2642857,47.8716442 31.5752857,47.6446503 L32.0367143,50.3290798 C30.5406905,50.5878528 29.028381,50.6931779 27.5237619,50.6491411 Z" id="Shape" fill="#09DF9F"></path>
                <path d="M32.3669524,7.64833129 C33.8477923,7.95354656 35.2945872,8.40629679 36.6858333,8.99985276 L35.625,11.507227 C34.4000369,10.9844959 33.1261548,10.5857352 31.8222857,10.3168712 L32.3669524,7.64833129 Z M47.7542381,19.1146994 L45.3647619,20.4067485 C44.73379,19.231208 43.9871046,18.1220304 43.135881,17.095816 L45.2218095,15.3525031 C46.1889793,16.5185877 47.037355,17.7789416 47.7542381,19.1146994 Z M7.59547619,21.7891411 C8.07779917,20.3514814 8.70185857,18.9657052 9.45838095,17.6524049 L11.8089524,19.0143681 C11.1426459,20.1708408 10.5929943,21.3911522 10.1681667,22.6571656 L7.59547619,21.7891411 Z M20.810881,7.85988957 L21.7975238,10.397681 C20.5580196,10.8827 19.3700225,11.4910514 18.2513095,12.2136319 L16.7815238,9.92371779 C18.0526297,9.10252348 19.402483,8.41113146 20.810881,7.85988957 Z" id="Shape" fill="#FFFFFF"></path>
                <path d="M18.2259762,48.0196442 C16.8745066,47.3402396 15.5939576,46.5272065 14.4033571,45.5926258 L16.074,43.4461718 C17.1225657,44.2692423 18.2503599,44.9852479 19.440619,45.583546 L18.2259762,48.0196442 Z M6.32021429,32.9472515 L8.96166667,32.3202945 C9.26787462,33.6197046 9.70297387,34.8850767 10.2604524,36.0974724 L7.79633333,37.2392515 C7.16277995,35.8617714 6.66827309,34.4240831 6.32021429,32.9477055 L6.32021429,32.9472515 Z" id="Shape" fill="#09DF9F"></path>
            </g>
        </g>
    </g>
</svg>