<svg width="76" height="76" xmlns="http://www.w3.org/2000/svg"><g fill-rule="nonzero" fill="none"><path d="M42.945 66.407l28.73-15.48-31.671-38.692-19.624.697L1.309 50.884l41.636 15.523z" stroke="#18E9A6" fill="#18E9A6"/><path d="M73.858 15.988l-.547-3.08c-.44-2.48-3.114-4.085-5.97-3.585l-37.168 6.51h42.101c.543 0 1.072.055 1.583.154h.001zm-1.583 3.691H24.05c-2.018 0-3.659 1.317-3.659 2.934v23.273c0 1.619 1.64 2.935 3.66 2.935h48.224c2.017 0 3.658-1.316 3.658-2.935V22.613c0-1.619-1.64-2.935-3.658-2.935l.001.001zM37.592 45.833h-3.871v-3.31h3.871v3.31zm0-6.62h-3.871v-3.31h3.871v3.31zm0-6.619h-3.871v-3.309h3.871v3.31-.001zm0-6.618h-3.871v-3.31h3.871v3.31zm28.443 3.984l-2.98 2.768 2.684 8.905-1.503 1.493a.426.426 0 0 1-.597 0l-4.001-7.222-3.68 3.605.587 2.84-.936.93a.319.319 0 0 1-.45 0l-5.3-5.263a.314.314 0 0 1 0-.447l.936-.93 2.808.568 3.631-3.668-7.22-3.949a.417.417 0 0 1-.001-.592l1.505-1.493 8.905 2.648 2.806-2.98c.82-.814 2.113-.85 2.887-.08.774.768.737 2.052-.081 2.867z" fill="#0B8FDF"/></g></svg>