<svg xmlns="http://www.w3.org/2000/svg" width="180" height="180"><g fill="none" fill-rule="evenodd"><path fill="#09DF9F" d="M58 175l-16-16-25-27L79 2l76 67 19 46z"/><g fill-rule="nonzero"><path fill="#232323" d="M126.618 51.124L93.85 32.205l-9.86 17.081c-1.244 2.155-4.46 1.824-5.254-.538a5.827 5.827 0 0 0-2.617-3.204c-2.765-1.597-6.312-.65-7.904 2.108-1.593 2.759-.64 6.304 2.126 7.9a5.827 5.827 0 0 0 4.084.664c2.463-.493 4.325 2.145 3.092 4.281l-6.876 11.91 7.84 4.526c.26-.932.637-1.835 1.128-2.685 3.187-5.52 10.277-7.411 15.81-4.217 5.532 3.194 7.439 10.28 4.252 15.8a11.626 11.626 0 0 1-1.76 2.32l13.021 7.518 18.877-32.695c2.393-4.146.965-9.451-3.19-11.85z"/><path fill="#0B8FDF" d="M57.69 64.101c.983 0 1.956.124 2.895.364V49.462H22.748c-4.798 0-8.688 3.88-8.688 8.668v37.753h19.768c2.489 0 3.821 2.94 2.166 4.808a5.8 5.8 0 0 0-1.47 3.86c0 3.185 2.598 5.778 5.79 5.778 3.193 0 5.792-2.593 5.792-5.778a5.8 5.8 0 0 0-1.47-3.86c-1.656-1.868-.323-4.808 2.166-4.808h13.783V86.85c-.939.24-1.912.364-2.896.364-6.388 0-11.583-5.183-11.583-11.557 0-6.374 5.195-11.557 11.583-11.557zm35.443 37.56c-2.488 0-3.821-2.94-2.166-4.808a5.8 5.8 0 0 0 1.47-3.86c0-3.185-2.598-5.778-5.79-5.778-3.193 0-5.792 2.593-5.792 5.779a5.8 5.8 0 0 0 1.47 3.86c1.656 1.867.323 4.807-2.166 4.807H66.376v9.032c.939-.24 1.912-.364 2.896-.364 6.388 0 11.583 5.183 11.583 11.557 0 6.374-5.195 11.557-11.583 11.557-.984 0-1.957-.124-2.896-.364v15.003h37.837c4.798 0 8.688-3.88 8.688-8.668v-37.753H93.133z"/><path fill="#0B8FDF" d="M69.272 116.108a5.827 5.827 0 0 0-3.869 1.467c-1.872 1.657-4.818.316-4.818-2.162v-13.752h-9.052c.24.937.365 1.908.365 2.89 0 6.373-5.195 11.557-11.583 11.557s-11.583-5.184-11.583-11.557c0-.982.125-1.953.365-2.89H14.06v37.753c0 4.787 3.89 8.668 8.688 8.668h37.837v-19.723c0-2.488 2.953-3.813 4.818-2.162a5.827 5.827 0 0 0 3.869 1.468c3.193 0 5.791-2.593 5.791-5.779 0-3.185-2.598-5.778-5.791-5.778z"/></g></g></svg>