<?xml version="1.0" encoding="UTF-8" standalone="no"?>
<svg width="76px" height="76px" viewBox="0 0 76 76" version="1.1" xmlns="http://www.w3.org/2000/svg" xmlns:xlink="http://www.w3.org/1999/xlink">
    <!-- Generator: Sketch 50.2 (55047) - http://www.bohemiancoding.com/sketch -->
    <title>wt-icon--icons/custom/plus-sign</title>
    <desc>Created with Sketch.</desc>
    <defs></defs>
    <g id="icons/custom/plus-sign" stroke="none" stroke-width="1" fill="none" fill-rule="evenodd">
        <g id="wt-icon--plus-sign" transform="translate(0.000000, 6.000000)" fill-rule="nonzero">
            <path d="M65.3043908,52.6711856 L75.2362282,18.5028475 L40.3299852,0.760985821 L11.3664965,51.0986644 L12.9659201,64.0613821 L65.3043908,52.6711856 Z" id="Shape" stroke="#18E9A6" fill="#18E9A6"></path>
            <path d="M22.1020845,12.9808197 L44.7629296,12.9808197 L44.7629296,39.7160656 L40.2864225,39.7160656 L40.2864225,44.1733607 L44.7629296,44.1733607 C47.2345022,44.1715976 49.2376655,42.1775081 49.2394366,39.7171311 L49.2394366,12.9808197 C49.2376655,10.5204427 47.2345022,8.52635324 44.7629296,8.52459016 L17.9060282,8.52459016 C15.4340376,8.52576554 13.4302225,10.520027 13.4284507,12.9808197 L13.4284507,17.4370492 L17.9049577,17.4370492 L17.9049577,12.9808197 L22.1010141,12.9808197 L22.1020845,12.9808197 Z M4.50164977e-16,26.3537705 C-0.000852482204,25.1704166 0.4709213,24.0352704 1.31138624,23.1984127 C2.15185118,22.361555 3.29204997,21.8916472 4.48078873,21.8922131 L31.3291268,21.8922131 C32.5180509,21.8913642 33.6585249,22.3611472 34.4992215,23.1980356 C35.339918,24.034924 35.8118387,25.1702319 35.8109859,26.3537705 L35.8109859,53.0804918 C35.8115545,54.2638459 35.3395083,55.3988798 34.4988426,56.2355376 C33.6581769,57.0721955 32.5178654,57.5418322 31.3291268,57.5409836 L4.48078873,57.5409836 C3.29223555,57.5415493 2.15219919,57.0717877 1.31176508,56.2351605 C0.471330973,55.3985334 -0.000568277975,54.2636611 -2.51979596e-17,53.0804918 L4.50164977e-16,26.3537705 Z M20.1432113,30.8046721 L15.6667042,30.8046721 L15.6667042,37.4890164 L8.95301408,37.4890164 L8.95301408,41.9452459 L15.6667042,41.9452459 L15.6667042,48.6285246 L20.1432113,48.6285246 L20.1432113,41.9452459 L26.8579718,41.9452459 L26.8579718,37.4890164 L20.1432113,37.4890164 L20.1432113,30.8046721 Z" id="Shape" fill="#0B8FDF"></path>
        </g>
    </g>
</svg>