<svg width="76" height="76" xmlns="http://www.w3.org/2000/svg"><g fill-rule="nonzero" fill="none"><path d="M73.513 44.362l.892-33.601-50.899 8.175-9.452 17.838L38.242 73.4l35.27-29.04z" stroke="#18E9A6" fill="#18E9A6"/><path d="M49.763 45.029l-2.599-2.033a20.915 20.915 0 0 0 2.476-4.049l2.99 1.393a24.26 24.26 0 0 1-2.867 4.688zm-14.087-7.143a6.094 6.094 0 0 1-4.071-1.555c.08 2.007.346 4.705 1.154 6.154H27.82c.809-1.449 1.074-4.147 1.155-6.154a6.09 6.09 0 0 1-4.072 1.555 6.128 6.128 0 0 1-6.11-5.834 6.13 6.13 0 0 1 5.515-6.4 6.136 6.136 0 0 1 2.528-6.42 6.117 6.117 0 0 1 6.89 0 6.136 6.136 0 0 1 2.53 6.417 6.13 6.13 0 0 1 5.537 6.395 6.128 6.128 0 0 1-6.116 5.842h-.001zm-5.02 16.493v-3.308c1.591 0 3.18-.18 4.717-.534l.738 3.217c-1.789.415-3.62.624-5.455.625zm-13.754-4.29a24.396 24.396 0 0 1-4.142-3.614l2.44-2.23a21.077 21.077 0 0 0 3.576 3.125l-1.874 2.719zM9.763 31.341l-3.295.19c-.028-.469-.044-.94-.044-1.416 0-1.39.122-2.75.347-4.076l3.251.552a21.249 21.249 0 0 0-.259 4.75zM19.181 8.74l1.565 2.911a21.017 21.017 0 0 0-3.897 2.714l-2.177-2.48a24.264 24.264 0 0 1 4.509-3.144V8.74zm16.01-2.46c1.804.343 3.563.89 5.243 1.634l-1.333 3.022a20.773 20.773 0 0 0-4.525-1.412l.614-3.243zm17.025 12.764a24.12 24.12 0 0 1 1.941 5.148l-3.202.805a20.873 20.873 0 0 0-1.672-4.444l2.933-1.509zM30.29 0C13.56 0 0 13.58 0 30.33c0 16.752 13.561 30.332 30.29 30.332s30.29-13.58 30.29-30.331C60.58 13.579 47.019 0 30.29 0z" fill="#0B8FDF"/></g></svg>