<svg xmlns="http://www.w3.org/2000/svg" width="100" height="80"><g fill="none" fill-rule="evenodd"><path fill="#09DF9F" d="M46.376 78.951l31.789-17.244L43.41 18.962l-21.76.778L.66 61.792z"/><path d="M79.689 23.59l-.59-3.345c-.476-2.694-3.36-4.437-6.442-3.894l-40.102 7.072H77.98c.586 0 1.157.059 1.708.166zm-1.708 4.01H25.948C23.77 27.6 22 29.03 22 30.786v25.28c0 1.758 1.77 3.188 3.948 3.188H77.98c2.176 0 3.947-1.43 3.947-3.188v-25.28c0-1.758-1.77-3.188-3.947-3.188zM40.56 56.008h-4.177v-3.595h4.177v3.595zm0-7.19h-4.177v-3.595h4.177v3.595zm0-7.19h-4.177v-3.594h4.177v3.595zm0-7.189h-4.177v-3.595h4.177v3.595zm30.688 4.328l-3.214 3.006 2.895 9.673-1.622 1.622a.457.457 0 0 1-.644 0l-4.317-7.845-3.97 3.916.633 3.085-1.01 1.011a.343.343 0 0 1-.486 0l-5.718-5.718a.343.343 0 0 1 0-.485l1.01-1.011 3.03.618 3.918-3.985-7.79-4.289a.455.455 0 0 1-.002-.643l1.624-1.622 9.608 2.876 3.028-3.236c.885-.885 2.28-.924 3.115-.088.835.835.795 2.23-.088 3.115z" fill="#0B8FDF" fill-rule="nonzero"/></g></svg>