<svg xmlns="http://www.w3.org/2000/svg" width="100" height="80"><g fill="none" fill-rule="evenodd"><path fill="#18E9A6" d="M77.916 61.174l-6.079-51.102-44.373-1.476-14.17 35.886L52.37 62.759z"/><path fill="#0B8FDF" fill-rule="nonzero" d="M59.856 42.215c.624.488.736 1.39.248 2.014l-2.181 2.792a1.435 1.435 0 0 1-2.014.247l-1.507-1.177-3.412 4.367c-3.955 5.061-10.629 6.747-16.341 4.604l-2.074 2.654a.957.957 0 0 1-1.342.165l-.754-.589-.59.755a11.874 11.874 0 0 0-2.444 8.816 2.392 2.392 0 0 1-4.746.584 16.627 16.627 0 0 1 3.422-12.343l.589-.755-.754-.589a.957.957 0 0 1-.164-1.342l2.073-2.654c-3.461-5.023-3.44-11.908.515-16.97l3.412-4.367-1.508-1.178a1.435 1.435 0 0 1-.247-2.014l2.182-2.792a1.435 1.435 0 0 1 2.013-.247l25.624 20.02zm-8.622-24.693l-7.654 9.797-3.768-2.944 7.654-9.797a2.39 2.39 0 0 1 3.768 2.944zm12.812 10.01l-7.654 9.797-3.768-2.945 7.654-9.797a2.39 2.39 0 0 1 3.768 2.945z"/></g></svg>