<?xml version="1.0" encoding="UTF-8" standalone="no"?>
<svg width="76px" height="76px" viewBox="0 0 76 76" version="1.1" xmlns="http://www.w3.org/2000/svg" xmlns:xlink="http://www.w3.org/1999/xlink">
    <!-- Generator: Sketch 50.2 (55047) - http://www.bohemiancoding.com/sketch -->
    <title>wt-icon--icons/custom/world-and-pin</title>
    <desc>Created with Sketch.</desc>
    <defs></defs>
    <g id="icons/custom/world-and-pin" stroke="none" stroke-width="1" fill="none" fill-rule="evenodd">
        <g id="wt-icon--world-and-pin" transform="translate(0.000000, 2.000000)" fill-rule="nonzero">
            <path d="M15.153087,56.9618052 L48.2762578,72.0749424 L61.6868781,17.8316181 L47.9087692,0.841674207 L1.15648761,9.48480456 L15.153087,56.9618052 Z" id="Shape" stroke="#18E9A6" fill="#18E9A6"></path>
            <g id="Group" transform="translate(24.000000, 0.000000)" fill="#0B8FDF">
                <path d="M37.515,40.553 C37.515,40.553 51.597,25.315 51.597,14.807 C51.597,7.031 45.292,0.726 37.515,0.726 C29.739,0.726 23.434,7.031 23.434,14.807 C23.539,25.315 37.515,40.553 37.515,40.553 Z M37.515,10.078 C38.770931,10.0726566 39.9769801,10.5691409 40.8651593,11.4571324 C41.7533385,12.3451238 42.2500778,13.5510679 42.245,14.807 C42.2500778,16.0629321 41.7533385,17.2688762 40.8651593,18.1568676 C39.9769801,19.0448591 38.770931,19.5413434 37.515,19.536 C36.259242,19.541076 35.0534508,19.0444737 34.1654886,18.1565114 C33.2775263,17.2685492 32.780924,16.062758 32.786,14.807 C32.892,12.18 34.993,10.078 37.516,10.078 L37.515,10.078 Z" id="Shape"></path>
                <path d="M43.085,38.871 L43.085,39.187 C43.085,44.021 41.193,48.539 38.145,51.797 C37.515,49.905 35.834,48.539 33.732,48.539 L31.42,48.539 L31.42,41.5 C31.4091339,40.2276457 30.3803543,39.1988661 29.108,39.188 L15.028,39.188 L15.028,34.458 L19.756,34.458 C21.0279685,34.4471419 22.0565917,33.4189637 22.068,32.147 L22.068,27.418 L24.275,27.418 C22.278,23.74 20.702,19.747 20.386,16.069 C9.353,17.961 0.841,27.629 0.841,39.188 C0.841,52.113 11.349,62.622 24.275,62.622 C37.2,62.622 47.708,52.113 47.708,39.188 C47.708,37.191 47.498,35.3 46.973,33.513 C45.712,35.51 44.346,37.401 43.085,38.873 L43.085,38.871 Z M22.068,57.787 C12.82,56.631 5.675,48.749 5.675,39.187 C5.675,37.715 5.885,36.349 6.2,34.983 L17.444,46.227 L17.444,48.539 C17.438924,49.794758 17.9355263,51.0005492 18.8234886,51.8885114 C19.7114508,52.7764737 20.917242,53.273076 22.173,53.268 L22.173,57.787 L22.068,57.787 Z" id="Shape"></path>
            </g>
        </g>
    </g>
</svg>