<svg width="76" height="76" xmlns="http://www.w3.org/2000/svg"><g fill-rule="nonzero" fill="none"><path d="M22.852 73.39L72.36 48.1l-8.006-19.14L32.02.806 5.599 55.515 16.18 66.8l6.673 6.59z" stroke="#18E9A6" fill="#18E9A6"/><path d="M52.127 21.173l-14.003-8.085-4.214 7.3c-.531.92-1.906.779-2.245-.23a2.49 2.49 0 0 0-1.118-1.37 2.475 2.475 0 0 0-3.378.9 2.475 2.475 0 0 0 .908 3.377 2.49 2.49 0 0 0 1.746.284c1.052-.211 1.848.916 1.321 1.83l-2.938 5.089 3.35 1.934c.111-.398.272-.784.482-1.147 1.362-2.36 4.392-3.167 6.756-1.802 2.365 1.365 3.18 4.393 1.818 6.752-.209.36-.461.693-.753.991l5.565 3.213 8.067-13.972a3.709 3.709 0 0 0-1.363-5.064z" fill="#232323"/><path d="M22.67 26.718c.421 0 .837.053 1.238.156v-6.412H7.738a3.708 3.708 0 0 0-3.712 3.705V40.3h8.448c1.063 0 1.632 1.257.925 2.055a2.479 2.479 0 0 0-.628 1.65 2.475 2.475 0 0 0 4.95 0c0-.609-.224-1.196-.629-1.65-.707-.798-.138-2.055.926-2.055h5.89v-3.86a4.998 4.998 0 0 1-1.237.156c-2.73 0-4.95-2.215-4.95-4.94 0-2.723 2.22-4.938 4.95-4.938zM37.819 42.77c-1.064 0-1.633-1.257-.926-2.055a2.479 2.479 0 0 0 .628-1.65 2.475 2.475 0 0 0-4.95 0c0 .61.224 1.196.629 1.65.707.798.138 2.055-.926 2.055h-5.89v3.86a4.998 4.998 0 0 1 1.238-.156c2.73 0 4.95 2.215 4.95 4.939s-2.22 4.939-4.95 4.939c-.421 0-.837-.053-1.238-.156v6.412h16.17a3.708 3.708 0 0 0 3.712-3.705V42.77h-8.447z" fill="#0B8FDF"/><path d="M27.62 48.944a2.49 2.49 0 0 0-1.653.627c-.8.708-2.059.135-2.059-.924V42.77H20.04c.102.4.156.815.156 1.235 0 2.723-2.22 4.939-4.95 4.939s-4.95-2.216-4.95-4.94c0-.419.053-.834.156-1.234H4.026v16.133a3.709 3.709 0 0 0 3.712 3.705h16.17v-8.429c0-1.063 1.262-1.63 2.06-.924a2.49 2.49 0 0 0 1.653.627 2.475 2.475 0 0 0 2.474-2.47c0-1.36-1.11-2.468-2.474-2.468z" fill="#0B8FDF"/></g></svg>