<svg width="76" height="76" xmlns="http://www.w3.org/2000/svg"><g fill-rule="nonzero" fill="none"><path d="M65.304 58.671l9.932-34.168L40.33 6.76 11.366 57.099l1.6 12.962 52.338-11.39z" stroke="#18E9A6" fill="#18E9A6"/><path d="M22.102 18.98h22.66v26.736h-4.476v4.457h4.477c2.472-.001 4.475-1.995 4.476-4.456V18.981c-.001-2.46-2.004-4.455-4.476-4.456H17.906c-2.472 0-4.476 1.995-4.478 4.456v4.456h4.477v-4.456h4.197zM0 32.355c0-1.184.47-2.319 1.311-3.156a4.489 4.489 0 0 1 3.17-1.306h26.848c1.19 0 2.33.47 3.17 1.306a4.448 4.448 0 0 1 1.312 3.156V59.08a4.448 4.448 0 0 1-1.312 3.156 4.489 4.489 0 0 1-3.17 1.305H4.481a4.489 4.489 0 0 1-3.17-1.306A4.448 4.448 0 0 1 0 59.08V32.354zm20.143 4.45h-4.476v6.685H8.953v4.456h6.714v6.684h4.476v-6.684h6.715V43.49h-6.715v-6.684z" fill="#0B8FDF"/></g></svg>