<svg width="76" height="70" fill="none" xmlns="http://www.w3.org/2000/svg"><path fill-rule="evenodd" clip-rule="evenodd" d="M52.29 68.645L6 70l6.744-46.191L32.178 15 76 41.076l-23.71 27.57z" fill="#09DF9F"/><path d="M18.693 20.438c-2.059-2.028-4.806-3.144-7.74-3.144h-.02C4.893 17.305-.01 22.26 0 28.337.009 33.057 7.09 43.688 10.983 49c3.876-5.376 10.93-16.142 10.922-20.863-.006-2.93-1.146-5.664-3.212-7.7zM10.958 32.09a3.217 3.217 0 0 1-3.212-3.222c-.003-1.782 1.43-3.23 3.2-3.233 1.772-.003 3.21 1.44 3.213 3.222.003 1.782-1.43 3.23-3.2 3.233zM53.096 0h-.013c-3.807.007-6.9 3.145-6.892 6.996.004 2.68 3.86 8.925 6.922 13.18C56.162 15.867 60.005 9.544 60 6.862 59.993 3.012 56.962 0 53.096 0zm.005 10.6a2.607 2.607 0 0 1-1.855-.775 2.648 2.648 0 0 1-.77-1.871c-.002-1.464 1.169-2.653 2.616-2.655 1.448-.003 2.623 1.181 2.626 2.646a2.66 2.66 0 0 1-.764 1.874 2.613 2.613 0 0 1-1.853.78z" fill="#0B8FDF"/><path d="M40.07 22a2.407 2.407 0 0 0-1.671.68c-.22.216-.394.472-.512.754a2.28 2.28 0 0 0 .515 2.526c.22.215.481.386.768.502.287.116.595.176.906.176h.004a2.39 2.39 0 0 0 1.672-.683c.442-.435.69-1.026.69-1.64a2.296 2.296 0 0 0-.697-1.64A2.39 2.39 0 0 0 40.071 22zm6.625 0a2.39 2.39 0 0 0-1.672.68 2.296 2.296 0 0 0-.692 1.641c.001.615.25 1.205.695 1.64a2.39 2.39 0 0 0 1.673.677h.005a2.39 2.39 0 0 0 1.671-.683c.443-.435.691-1.026.69-1.64a2.295 2.295 0 0 0-.696-1.64A2.39 2.39 0 0 0 46.695 22zm-4.732 9.74a2.39 2.39 0 0 0-1.672.68 2.296 2.296 0 0 0-.69 1.64c0 .615.25 1.205.694 1.64a2.39 2.39 0 0 0 1.673.677h.005a2.406 2.406 0 0 0 1.671-.683c.22-.215.393-.471.511-.753a2.278 2.278 0 0 0-.517-2.526 2.407 2.407 0 0 0-1.674-.676zm-.946 17.622c-.31 0-.618.061-.905.178a2.367 2.367 0 0 0-.766.504c-.22.216-.393.471-.511.753a2.295 2.295 0 0 0 .516 2.525 2.389 2.389 0 0 0 1.67.678h.004c.31 0 .618-.061.905-.178a2.37 2.37 0 0 0 .767-.504c.219-.216.393-.472.511-.753a2.278 2.278 0 0 0-.003-1.775 2.315 2.315 0 0 0-.514-.751 2.37 2.37 0 0 0-.768-.502 2.408 2.408 0 0 0-.906-.175zm7.096-17.623c-.31 0-.618.062-.905.179a2.369 2.369 0 0 0-.766.504c-.22.216-.393.472-.511.754a2.28 2.28 0 0 0 .517 2.524 2.39 2.39 0 0 0 1.672.677h.004c.311 0 .618-.061.905-.178.287-.117.547-.289.767-.504.219-.216.392-.472.51-.754a2.278 2.278 0 0 0-.004-1.775 2.316 2.316 0 0 0-.514-.751 2.37 2.37 0 0 0-.769-.501 2.408 2.408 0 0 0-.906-.175zm-.944 17.623a2.405 2.405 0 0 0-1.672.68c-.22.216-.394.472-.512.753a2.279 2.279 0 0 0 .514 2.527 2.408 2.408 0 0 0 1.673.678h.005a2.39 2.39 0 0 0 1.672-.682 2.296 2.296 0 0 0 .69-1.64 2.296 2.296 0 0 0-.696-1.64 2.39 2.39 0 0 0-1.674-.676zm11.736-9.464a2.302 2.302 0 0 0-.428-.802 2.355 2.355 0 0 0-.708-.58 2.398 2.398 0 0 0-1.8-.19 2.379 2.379 0 0 0-.818.418c-.242.19-.443.426-.592.694a2.282 2.282 0 0 0 .234 2.566c.195.237.435.434.708.58a2.4 2.4 0 0 0 2.617-.229c.242-.19.443-.426.592-.693a2.285 2.285 0 0 0 .194-1.764zm-1.402 4.525a2.406 2.406 0 0 0-2.596.526 2.28 2.28 0 0 0 .07 3.303c.227.212.496.376.79.485a2.41 2.41 0 0 0 1.787-.056 2.34 2.34 0 0 0 1.236-1.267 2.276 2.276 0 0 0-.02-1.753 2.343 2.343 0 0 0-1.267-1.237zm-2.619 5.149a2.336 2.336 0 0 0-.616-.673 2.386 2.386 0 0 0-1.753-.44 2.395 2.395 0 0 0-.87.3c-.268.155-.501.36-.688.604a2.298 2.298 0 0 0-.448 1.719c.044.301.148.59.306.853.32.529.841.912 1.449 1.064a2.408 2.408 0 0 0 1.792-.251c.54-.314.93-.825 1.085-1.42a2.279 2.279 0 0 0-.257-1.756zm-20.051-19.64a2.292 2.292 0 0 0-.33-.854 2.34 2.34 0 0 0-.642-.663 2.391 2.391 0 0 0-1.786-.385c-.309.055-.603.17-.866.337-.263.168-.49.386-.666.64a2.296 2.296 0 0 0-.364 1.756c.121.596.477 1.122.99 1.464a2.404 2.404 0 0 0 1.753.363 2.37 2.37 0 0 0 1.51-.945 2.283 2.283 0 0 0 .4-1.712zm1.479-6.048a2.348 2.348 0 0 0-.678-.614 2.395 2.395 0 0 0-1.788-.278c-.302.07-.587.2-.838.379v-.002a2.314 2.314 0 0 0-.946 1.515 2.286 2.286 0 0 0 .422 1.726c.22.296.508.538.841.704a2.4 2.4 0 0 0 2.31-.091c.372-.224.673-.544.87-.925a2.28 2.28 0 0 0-.193-2.414zm.596 7.937a2.408 2.408 0 0 0-1.795.227c-.27.151-.506.353-.695.594a2.297 2.297 0 0 0-.473 1.713c.04.302.14.593.295.857.154.264.36.495.606.681.247.186.527.322.827.402a2.393 2.393 0 0 0 2.175-.495c.43-.37.708-.882.783-1.438a2.282 2.282 0 0 0-.375-1.587 2.364 2.364 0 0 0-1.348-.954zm18.272 2.21a2.39 2.39 0 0 0-1.763-.407c-.307.05-.6.157-.865.317-.264.16-.494.37-.675.617a2.298 2.298 0 0 0-.416 1.728c.05.3.16.588.323.847.164.26.378.484.63.662.509.36 1.143.506 1.762.408a2.373 2.373 0 0 0 1.54-.934c.367-.499.517-1.12.416-1.728a2.314 2.314 0 0 0-.952-1.51zM29.663 49.362a2.406 2.406 0 0 0-1.672.682c-.22.216-.393.472-.511.754a2.277 2.277 0 0 0-.179.888c.001.614.25 1.203.694 1.636a2.389 2.389 0 0 0 1.67.678h.006c.31 0 .618-.06.905-.178a2.37 2.37 0 0 0 .767-.504 2.28 2.28 0 0 0 .508-2.529 2.315 2.315 0 0 0-.514-.75 2.406 2.406 0 0 0-1.674-.676zm-6.151 0a2.391 2.391 0 0 0-1.672.683 2.297 2.297 0 0 0-.69 1.64c.002.615.252 1.203.695 1.637a2.391 2.391 0 0 0 1.671.678h.005c.31 0 .618-.061.905-.178.287-.117.547-.288.767-.504.219-.216.393-.472.51-.754a2.28 2.28 0 0 0-.517-2.526 2.407 2.407 0 0 0-1.674-.676zm-6.151 0a2.391 2.391 0 0 0-1.671.683 2.297 2.297 0 0 0-.69 1.64c.002.615.251 1.203.695 1.637a2.391 2.391 0 0 0 1.67.678h.005c.311 0 .619-.061.905-.178.287-.117.548-.288.767-.504.22-.216.393-.472.511-.754a2.276 2.276 0 0 0-.004-1.775 2.318 2.318 0 0 0-.514-.75 2.406 2.406 0 0 0-1.674-.676zm17.506 0a2.39 2.39 0 0 0-1.673.681 2.296 2.296 0 0 0-.69 1.64c0 .615.25 1.205.694 1.64A2.39 2.39 0 0 0 34.87 54h.005a2.39 2.39 0 0 0 1.671-.683 2.279 2.279 0 0 0 .508-2.528 2.317 2.317 0 0 0-.514-.751 2.368 2.368 0 0 0-.769-.501 2.407 2.407 0 0 0-.905-.175z" fill="#000"/></svg>