<svg width="76" height="76" xmlns="http://www.w3.org/2000/svg"><g fill-rule="nonzero" fill="none"><path d="M29.184 75.39l43.15-34.813-11.628-17.854L23.796.773 8.567 61.048l12.074 9.159 8.544 5.182z" stroke="#18E9A6" fill="#18E9A6"/><path d="M31.135 33.114a2.665 2.665 0 0 1 2.922 1.44 2.709 2.709 0 0 1-.625 3.22l.056.084a2.653 2.653 0 0 1 2.671-.035 2.697 2.697 0 0 1 1.366 2.315 2.698 2.698 0 0 1-1.306 2.35l.07.308a2.662 2.662 0 0 1 3.388 1.2 2.708 2.708 0 0 1-.853 3.515l.028.028L28.43 58.046a5.755 5.755 0 0 1-8.89-.297l-7.39-7.451c-1.08-1.089-2.417-5.132-4.01-12.13l-4.88-4.92a.903.903 0 0 1 0-1.27l.814-.82c.4-.403.935-.638 1.5-.657 2.688-.091 4.755.592 6.2 2.049 1.447 1.459 3.077 3.97 4.89 7.534l17.834-17.98.026.027a2.661 2.661 0 0 1 2.723-1.074 2.683 2.683 0 0 1 2.068 2.085 2.704 2.704 0 0 1-1.065 2.745l.026.027-7.142 7.2z" fill="#0B8FDF"/><path d="M17.5 16h2.667v8.245H17.5V16zm10.681 2.367L30 20.377 24.15 26l-1.818-2.01 5.85-5.623zm-17.362 0L9 20.377 14.85 26l1.818-2.01-5.85-5.623z" fill="#232323"/></g></svg>