<?xml version="1.0" encoding="UTF-8" standalone="no"?>
<svg width="76px" height="76px" viewBox="0 0 76 76" version="1.1" xmlns="http://www.w3.org/2000/svg" xmlns:xlink="http://www.w3.org/1999/xlink">
    <!-- Generator: Sketch 50.2 (55047) - http://www.bohemiancoding.com/sketch -->
    <title>wt-icon--icons/custom/comment-bubble</title>
    <desc>Created with Sketch.</desc>
    <defs></defs>
    <g id="icons/custom/comment-bubble" stroke="none" stroke-width="1" fill="none" fill-rule="evenodd">
        <g id="wt-icon--comment-bubble" transform="translate(0.000000, 11.000000)" fill-rule="nonzero">
            <path d="M30.7244676,54.3654381 L74.7450459,26.9915241 L67.1165828,16.782213 L13.0522977,0.906066591 L0.784952396,37.0106078 L30.7244676,54.3654381 Z" id="Shape" stroke="#18E9A6" fill="#18E9A6"></path>
            <path d="M22.8590118,12.1883607 C10.4227294,12.1883607 0.295952941,20.8801639 0.295952941,31.4987705 C0.295952941,35.232459 1.53967059,38.7921311 3.79016471,41.767541 L0.354964706,48.3594262 C0.0599058824,48.9427869 0.118023529,49.7019672 0.533788235,50.2258197 C0.888752941,50.6937705 1.42164706,50.9263934 1.95454118,50.9263934 L2.36851765,50.9263934 L12.0813176,48.4766393 C15.4566118,50.0518033 19.1287529,50.8686885 22.8590118,50.810082 C35.2961882,50.810082 45.4220706,42.117377 45.4220706,31.4987705 C45.4220706,20.8810656 35.2952941,12.1883607 22.8590118,12.1883607 Z M32.8677647,27.5315574 L21.0233882,38.0329508 C20.6684235,38.325082 20.2535529,38.5 19.8386824,38.5 C19.3648,38.5 18.8909176,38.325082 18.5958588,37.9752459 L13.2651294,32.7240984 C12.5552,32.0244262 12.5552,30.9154098 13.2061176,30.2734426 L13.2651294,30.2157377 C13.9721276,29.5739008 15.0455665,29.5739008 15.7525647,30.2157377 L19.8985882,34.3001639 L30.4983529,24.9059836 C31.2091765,24.2640164 32.3348706,24.3217213 32.9857882,25.0222951 C33.6376,25.7805738 33.5785882,26.8886885 32.8677647,27.5306557 L32.8677647,27.5315574 Z" id="Shape" fill="#0B8FDF"></path>
        </g>
    </g>
</svg>