<svg xmlns="http://www.w3.org/2000/svg" width="180" height="180"><g fill="none" fill-rule="evenodd"><path fill="#09DF9F" d="M45 171L1 97l66-66 97 99 5 33z"/><g transform="translate(27 8)"><circle cx="62.5" cy="62.5" r="62.5" fill="#0B8FDF"/><path fill="#000" d="M71.336 77.228a12.577 12.577 0 0 1-8.402-3.206c.166 4.14.714 9.697 2.382 12.682h-10.19c1.668-2.984 2.215-8.54 2.38-12.681a12.579 12.579 0 0 1-8.4 3.205c-6.979 0-12.635-5.657-12.635-12.635 0-6.564 5.004-11.957 11.405-12.575-.2-.892-.308-1.818-.308-2.77 0-6.978 5.656-12.635 12.635-12.635s12.635 5.657 12.635 12.635c0 .951-.108 1.876-.307 2.767 6.417.603 11.44 6.003 11.44 12.578 0 6.978-5.657 12.635-12.635 12.635z"/><path fill="#09DF9F" fill-rule="nonzero" d="M109.2 66.574a50.232 50.232 0 0 1-1.618 9.868l-5.796-1.553a44.232 44.232 0 0 0 1.426-8.69l5.989.375zm-20.276 37.198l-3.554-4.835a44.056 44.056 0 0 0 6.537-5.894l4.443 4.032a50.056 50.056 0 0 1-7.426 6.697zm-28.082 7.793l.176-5.998c2.94.087 5.882-.12 8.78-.62l1.02 5.913c-3.307.57-6.65.802-9.976.705z"/><path fill="#FFF" fill-rule="nonzero" d="M71.548 16.847a50.232 50.232 0 0 1 9.547 2.977l-2.345 5.523a44.232 44.232 0 0 0-8.406-2.622l1.204-5.878zm34.014 25.257l-5.282 2.846a44.056 44.056 0 0 0-4.927-7.293l4.611-3.84a50.056 50.056 0 0 1 5.598 8.287zM16.79 47.995a50.232 50.232 0 0 1 4.118-9.112l5.196 3a44.232 44.232 0 0 0-3.627 8.024l-5.687-1.912zm29.213-30.682l2.181 5.59a44.056 44.056 0 0 0-7.839 4l-3.249-5.044a50.056 50.056 0 0 1 8.907-4.546z"/><path fill="#09DF9F" fill-rule="nonzero" d="M40.289 105.773a50.232 50.232 0 0 1-8.45-5.346l3.693-4.728a44.232 44.232 0 0 0 7.442 4.708l-2.685 5.366zm-26.318-33.2l5.839-1.381a44.056 44.056 0 0 0 2.871 8.32l-5.447 2.515a50.056 50.056 0 0 1-3.263-9.453z"/></g></g></svg>