<?xml version="1.0" encoding="UTF-8" standalone="no"?>
<svg width="76px" height="76px" viewBox="0 0 76 76" version="1.1" xmlns="http://www.w3.org/2000/svg" xmlns:xlink="http://www.w3.org/1999/xlink">
    <!-- Generator: Sketch 50.2 (55047) - http://www.bohemiancoding.com/sketch -->
    <title>wt-icon--icons/custom/plug</title>
    <desc>Created with Sketch.</desc>
    <defs></defs>
    <g id="icons/custom/plug" stroke="none" stroke-width="1" fill="none" fill-rule="evenodd">
        <g id="wt-icon--plug" fill-rule="nonzero">
            <path d="M75.3423408,61.2839781 L68.3486132,2.89175083 L17.2465324,1.2034621 L0.982949702,42.1118152 L46.1283443,63.0842491 L75.3423408,61.2839781 Z" id="Shape" stroke="#18E9A6" fill="#18E9A6"></path>
            <path d="M54.7854769,39.7335484 C55.5150769,40.3002581 55.6460308,41.3477419 55.0754462,42.0723871 L52.5253538,45.3147097 C51.9547606,46.0396394 50.9005821,46.1680475 50.1705231,45.6015484 L48.4084923,44.2347097 L44.4190769,49.3060645 C39.7947692,55.1833548 31.9913231,57.1412903 25.3126769,54.6526452 L22.8876923,57.7347097 C22.5073544,58.2174235 21.8053267,58.3031522 21.3185846,57.9263226 L20.4369846,57.2423226 L19.7471385,58.1190968 C17.4560585,61.0156777 16.4270574,64.7022843 16.8895385,68.3570323 C17.0285264,69.8519842 15.9464211,71.1861057 14.4461592,71.3694607 C12.9458974,71.5528157 11.5704286,70.5190474 11.3403692,69.0352258 C10.6932846,63.9183178 12.1340196,58.7569432 15.3414769,54.7014194 L16.0301538,53.8246452 L15.1485538,53.1406452 C14.6629147,52.7625406 14.5771285,52.0653258 14.9568,51.5821935 L17.3806154,48.500129 C13.3339077,42.6669677 13.3584615,34.6714839 17.9827692,28.7930323 L21.9721846,23.7216774 L20.2089846,22.3536774 C19.4790981,21.7869592 19.349812,20.7399398 19.9201846,20.0148387 L22.4714462,16.7725161 C23.0419576,16.0483306 24.0952407,15.9199679 24.8251077,16.4856774 L54.7854769,39.7347097 L54.7854769,39.7335484 Z M44.7043692,11.0578065 L35.7550769,22.4349677 L31.3494154,19.016129 L40.2987077,7.63896774 C41.2492492,6.43064006 43.0060563,6.21643002 44.2226461,7.16051623 C45.4392359,8.10460244 45.6549107,9.84947868 44.7043692,11.0578065 Z M59.6845538,22.6823226 L50.7352615,34.0594839 L46.3296,30.6394839 L55.2788923,19.2623226 C56.2297567,18.0539948 57.9868255,17.8400447 59.2034154,18.7844516 C60.4200052,19.7288585 60.6354183,21.4739948 59.6845538,22.6823226 Z" id="Shape" fill="#0B8FDF"></path>
        </g>
    </g>
</svg>