<svg xmlns="http://www.w3.org/2000/svg" width="100" height="80"><g fill="none" fill-rule="evenodd"><path fill="#09DF9F" d="M91.19 52.44L58.619 79.22 36.232 45.367l8.814-16.61 46.974-7.535z"/><path fill="#0B8FDF" d="M69.18 52.826l-2.36-1.843a18.958 18.958 0 0 0 2.248-3.671l2.715 1.263a21.99 21.99 0 0 1-2.603 4.25zM56.39 46.35a5.537 5.537 0 0 1-3.696-1.41c.073 1.82.314 4.266 1.048 5.58h-4.484c.734-1.314.975-3.76 1.048-5.58a5.534 5.534 0 0 1-3.697 1.41 5.56 5.56 0 0 1-.54-11.093 5.56 5.56 0 1 1 10.848-.002 5.56 5.56 0 0 1-.526 11.095zm-4.558 14.954v-3c1.445 0 2.887-.163 4.283-.484l.67 2.917a22.03 22.03 0 0 1-4.953.567zm-12.487-3.89a22.14 22.14 0 0 1-3.76-3.277l2.215-2.022a19.128 19.128 0 0 0 3.247 2.834l-1.702 2.465zm-6.481-16.998l-2.992.172c-.025-.425-.04-.853-.04-1.284 0-1.26.111-2.493.315-3.695l2.952.5a19.24 19.24 0 0 0-.235 4.307zm8.55-20.492l1.421 2.64a19.082 19.082 0 0 0-3.538 2.46l-1.976-2.249a22.03 22.03 0 0 1 4.093-2.85zm14.535-2.23a21.88 21.88 0 0 1 4.761 1.481l-1.21 2.74a18.878 18.878 0 0 0-4.109-1.28l.558-2.94zm15.458 11.573a21.85 21.85 0 0 1 1.762 4.667l-2.907.73a18.909 18.909 0 0 0-1.518-4.029l2.663-1.368zM51.5 12C36.312 12 24 24.312 24 39.5S36.312 67 51.5 67 79 54.688 79 39.5 66.688 12 51.5 12z"/></g></svg>