<svg width="76" height="76" xmlns="http://www.w3.org/2000/svg"><g fill-rule="nonzero" fill="none"><path d="M75.342 61.284L68.35 2.892 17.247 1.203.983 42.112l45.145 20.972 29.214-1.8z" stroke="#18E9A6" fill="#18E9A6"/><path d="M54.785 39.734c.73.566.861 1.614.29 2.338l-2.55 3.243a1.686 1.686 0 0 1-2.354.287l-1.763-1.367-3.989 5.071c-4.624 5.877-12.428 7.835-19.106 5.347l-2.425 3.082a1.124 1.124 0 0 1-1.57.191l-.881-.684-.69.877a13.722 13.722 0 0 0-2.857 10.238 2.782 2.782 0 0 1-2.444 3.012 2.794 2.794 0 0 1-3.106-2.334 19.215 19.215 0 0 1 4.001-14.334l.69-.876-.882-.684a1.106 1.106 0 0 1-.192-1.559L17.38 48.5c-4.047-5.833-4.023-13.829.602-19.707l3.99-5.071-1.764-1.368a1.659 1.659 0 0 1-.289-2.34l2.551-3.241a1.686 1.686 0 0 1 2.354-.287l29.96 23.249v-.001zm-10.08-28.676l-8.95 11.377-4.406-3.419L40.3 7.64a2.808 2.808 0 0 1 3.924-.478 2.764 2.764 0 0 1 .481 3.897zm14.98 11.624l-8.95 11.377-4.405-3.42 8.949-11.377a2.809 2.809 0 0 1 3.924-.478 2.764 2.764 0 0 1 .482 3.898z" fill="#0B8FDF"/></g></svg>