<svg xmlns="http://www.w3.org/2000/svg" width="180" height="180"><g fill="none" fill-rule="evenodd"><path fill="#09DF9F" d="M46.272 153.384L2 78.896l66.221-65.608 96.22 99.29 5.034 32.93z"/><path fill="#0B8FDF" fill-rule="nonzero" d="M155.893 101.676l-8.066-20.098a.922.922 0 0 0-1.103-.544l-25.16 6.964H59.501l-25.16-6.964a.922.922 0 0 0-1.103.544l-8.066 20.098a.92.92 0 0 0 .603 1.224l24.772 7.042.038 58.612A2.45 2.45 0 0 0 53.04 171h75.022a2.45 2.45 0 0 0 2.455-2.446l.015-58.467c0-.05-.003-.098-.006-.146l24.765-7.04a.916.916 0 0 0 .603-1.224zm-99.82 6.016l3.99-14.903h60.94l3.99 14.903h-68.92z"/><path fill="#09DF9F" d="M76.244 118.5h30.08v6h-30.08z"/><path d="M100.326 73.746v2.215a3.516 3.516 0 0 1-2.988 3.478l-.547 2.012a2.51 2.51 0 0 1-2.424 1.857h-5.428a2.51 2.51 0 0 1-2.424-1.857l-.532-2.012a3.532 3.532 0 0 1-3.003-3.494V73.73c0-1.185.954-2.137 2.143-2.137h13.06a2.156 2.156 0 0 1 2.143 2.153zm10.057-29.855c0 5.038-2.002 9.608-5.256 12.962a17.108 17.108 0 0 0-4.598 9.297 3.094 3.094 0 0 1-3.066 2.604h-11.62c-1.518 0-2.831-1.091-3.05-2.589-.548-3.478-2.159-6.785-4.63-9.328a18.569 18.569 0 0 1-5.224-12.743c-.11-10.389 8.18-18.796 18.597-18.874 10.4-.078 18.847 8.314 18.847 18.67zm-16.61-11.309a2.11 2.11 0 0 0-2.112-2.106c-7.445 0-13.514 6.037-13.514 13.477a2.11 2.11 0 0 0 2.112 2.106 2.11 2.11 0 0 0 2.111-2.106c0-5.116 4.176-9.265 9.29-9.265a2.1 2.1 0 0 0 2.112-2.106zM91.66 19.09a2.11 2.11 0 0 0 2.111-2.106V9.606a2.11 2.11 0 0 0-2.11-2.106 2.1 2.1 0 0 0-2.112 2.106v7.378a2.11 2.11 0 0 0 2.112 2.106zM66.808 43.875a2.11 2.11 0 0 0-2.112-2.106h-7.398a2.11 2.11 0 0 0-2.111 2.106 2.11 2.11 0 0 0 2.111 2.106h7.398a2.1 2.1 0 0 0 2.112-2.106zm59.215-2.106h-7.398a2.11 2.11 0 0 0-2.111 2.106 2.11 2.11 0 0 0 2.111 2.106h7.398a2.11 2.11 0 0 0 2.112-2.106 2.11 2.11 0 0 0-2.112-2.106zM71.11 61.408l-5.24 5.225a2.095 2.095 0 0 0 0 2.98c.407.405.955.608 1.486.608.532 0 1.08-.203 1.486-.609l5.24-5.225a2.095 2.095 0 0 0 0-2.98 2.09 2.09 0 0 0-2.972 0zm39.618-34.441c.531 0 1.079-.203 1.485-.609l5.24-5.225a2.095 2.095 0 0 0 0-2.98 2.11 2.11 0 0 0-2.987 0l-5.24 5.226a2.095 2.095 0 0 0 0 2.98 2.15 2.15 0 0 0 1.502.608zm-39.618-.624c.407.405.954.608 1.486.608s1.08-.203 1.486-.608a2.095 2.095 0 0 0 0-2.98l-5.24-5.225a2.11 2.11 0 0 0-2.987 0 2.095 2.095 0 0 0 0 2.98l5.255 5.225zm41.103 35.065a2.11 2.11 0 0 0-2.987 0 2.095 2.095 0 0 0 0 2.979l5.24 5.225c.406.406.954.609 1.486.609.531 0 1.079-.203 1.485-.609a2.095 2.095 0 0 0 0-2.979l-5.224-5.225z" fill="#232323" fill-rule="nonzero"/></g></svg>