<?xml version="1.0" encoding="utf-8"?>
<!-- Generator: Adobe Illustrator 16.0.3, SVG Export Plug-In . SVG Version: 6.00 Build 0)  -->
<!DOCTYPE svg PUBLIC "-//W3C//DTD SVG 1.1//EN" "http://www.w3.org/Graphics/SVG/1.1/DTD/svg11.dtd">
<svg version="1.1" id="Layer_1" xmlns="http://www.w3.org/2000/svg" xmlns:xlink="http://www.w3.org/1999/xlink" x="0px" y="0px"
	 width="76px" height="76px" viewBox="0 0 76 76" enable-background="new 0 0 76 76" xml:space="preserve">
<title>wt-icon--icons/custom/payment</title>
<desc>Created with Sketch.</desc>
<polygon fill="#18E9A6" points="0.65,60.992 4.38,27.767 64.584,2.53 75.247,6.404 62.005,61.496 "/>
<g id="icons_x2F_custom_x2F_payment">
	<g id="wt-icon--payment" transform="translate(0.000000, 1.000000)">
		<path id="Shape" fill="#18E9A6" stroke="#18E9A6" d="M4.38,26.767 M64.764,1.592l0.177-0.073L64.584,1.53
			C64.645,1.55,64.705,1.571,64.764,1.592z"/>
		<path id="Shape_1_" fill="#0B8FDF" d="M60.322,47.798c-1.047,0.981-3.145,19.633-3.67,24.466c-0.074,0.68-0.6,1.133-1.272,1.133
			H41.745c-0.673,0-1.272-0.605-1.272-1.285v-1.283c-4.195-4.379-5.694-10.797-5.694-10.797l-1.348-11.78
			c-3.072-10.571,0.6-10.874,0.6-10.874h0.375c4.869,0,5.693,9.666,5.693,9.666s1.723,3.625,3.297,4.757V9.741
			c-0.15,0.076-0.45,0.076-0.75,0.076c-2.473,0-4.495-2.039-4.495-4.531c0-0.302,0-0.528,0.074-0.831H24.442
			c0.074,0.228,0.074,0.529,0.074,0.831c0,2.492-2.021,4.531-4.493,4.531c-0.3,0-0.6,0-0.823-0.076v33.451
			c0.598-0.15,1.273-0.15,1.946-0.074c1.873,0.301,3.372,1.812,3.671,3.699c0.074,0.68,0.074,1.283-0.075,1.887h4.645
			c0,0.076,0.074,0.228,0.074,0.303l0.376,3.549H19.798c-2.472,0-4.495-2.038-4.495-4.529V4.983c0-2.492,2.022-4.53,4.495-4.53
			h22.997c2.473,0,4.495,2.038,4.495,4.53v24.542c2.247,1.358,10.712,10.798,11.536,11.402c2.847,2.416,1.499,6.871,1.499,6.871
			L60.322,47.798z M34.029,12.232c0.005-0.719-0.276-1.411-0.782-1.921s-1.194-0.797-1.913-0.797c-0.718,0-1.407,0.286-1.914,0.796
			c-0.506,0.511-0.788,1.202-0.783,1.922c-0.005,0.719,0.276,1.411,0.783,1.922c0.507,0.511,1.196,0.797,1.914,0.797
			c0.719,0,1.408-0.286,1.914-0.797s0.789-1.203,0.783-1.922H34.029z M31.333,16.763c5.394,0,9.813,4.455,9.813,9.892
			c0.002,2.899-1.256,5.656-3.446,7.551c-0.973-0.453-2.022-0.755-3.146-0.755h-0.75c-0.6,0.075-2.547,0.377-3.97,2.492
			c-0.075,0.151-0.15,0.226-0.225,0.377c-4.645-0.831-8.091-4.908-8.091-9.741C21.52,21.143,25.939,16.763,31.333,16.763z
			 M26.314,26.957l1.797,1.888l1.873,1.963l1.949-1.888l4.345-4.38l-1.873-1.963l-4.346,4.38l-1.798-1.963L26.314,26.957
			L26.314,26.957z"/>
	</g>
</g>
</svg>
