<?xml version="1.0" encoding="UTF-8" standalone="no"?>
<svg width="76px" height="76px" viewBox="0 0 76 76" version="1.1" xmlns="http://www.w3.org/2000/svg" xmlns:xlink="http://www.w3.org/1999/xlink">
    <!-- Generator: Sketch 50.2 (55047) - http://www.bohemiancoding.com/sketch -->
    <title>wt-icon--icons/custom/alt/idea</title>
    <desc>Created with Sketch.</desc>
    <defs></defs>
    <g id="icons/custom/alt/idea" stroke="none" stroke-width="1" fill="none" fill-rule="evenodd">
        <g id="wt-icon--idea" transform="translate(0.000000, 1.000000)" fill-rule="nonzero">
            <path d="M20.3009253,65.532887 L75.1855131,62.0332872 L73.0152033,47.8726168 L29.9498931,3.54735606 L0.629959639,32.5212993 L20.3009253,65.532887 Z" id="Shape" stroke="#18E9A6" fill="#18E9A6"></path>
            <path d="M69.6182619,42.7196585 L65.9693571,33.6510488 C65.8900284,33.4543715 65.6751145,33.348648 65.470381,33.4055854 L54.0884762,36.547878 L26.0123571,36.547878 L14.6304524,33.4055854 C14.4257188,33.348648 14.2108049,33.4543715 14.1314762,33.6510488 L10.4825714,42.7196585 C10.4392049,42.8286999 10.4441164,42.9509518 10.4960914,43.0561824 C10.5480664,43.161413 10.6422521,43.2397972 10.7553571,43.2719512 L21.9617381,46.449439 L21.9789286,72.8963171 C21.979408,73.1895891 22.0967008,73.4706528 22.3049909,73.6776466 C22.5132811,73.8846403 22.7954971,74.0005989 23.0895238,74 L57.0280476,74 C57.3220743,74.0005989 57.6042904,73.8846403 57.8125805,73.6776466 C58.0208707,73.4706528 58.1381634,73.1895891 58.1386429,72.8963171 L58.1454286,46.5148659 C58.1454286,46.4923049 58.1440714,46.4706463 58.1427143,46.4489878 L69.3459286,43.2724024 C69.4593687,43.2407445 69.5539393,43.1624264 69.6059971,43.0570281 C69.6580549,42.9516299 69.6626793,42.8291138 69.6187143,42.7201098 L69.6182619,42.7196585 Z M24.4615952,45.4341951 L26.2665952,38.7096707 L53.8346905,38.7096707 L55.6396905,45.4341951 L24.4615952,45.4341951 Z" id="Shape" fill="#0B8FDF"></path>
            <polygon id="Shape" fill="#09DF9F" points="33.5865714 50.3109756 47.1941905 50.3109756 47.1941905 53.0182927 33.5865714 53.0182927"></polygon>
            <path d="M44.4808095,30.1170976 L44.4808095,31.1165488 C44.4812281,31.9010611 43.9067078,32.5680796 43.1290952,32.6858902 L42.8816429,33.5937439 C42.7480746,34.0882018 42.298481,34.4317463 41.7850714,34.4316585 L39.3295476,34.4316585 C38.8161381,34.4317463 38.3665445,34.0882018 38.2329762,33.5937439 L37.9923095,32.6858902 C37.2108768,32.5678211 36.6333979,31.8976476 36.6338095,31.1093293 L36.6338095,30.109878 C36.6338095,29.5751829 37.065381,29.145622 37.6032619,29.145622 L43.5113571,29.145622 C44.0471919,29.1488441 44.4800737,29.5826293 44.4808095,30.1170976 Z M49.0304048,16.645939 C49.0304048,18.9191829 48.1247381,20.9812561 46.6526905,22.4946463 C45.5408414,23.6446015 44.8140837,25.1103081 44.5726429,26.6896341 C44.4634755,27.3685295 43.8749803,27.8670641 43.1856429,27.8646098 L37.9289762,27.8646098 C37.2422619,27.8646098 36.6482857,27.3723293 36.5492143,26.6964024 C36.3013095,25.127061 35.5725238,23.634878 34.4546905,22.4874268 C32.9571318,20.9438027 32.1111407,18.885459 32.0914524,16.7375366 C32.0416905,12.0498171 35.7919286,8.25641463 40.504381,8.22121951 C45.2091429,8.18602439 49.0304048,11.9726585 49.0304048,16.6454878 L49.0304048,16.645939 Z M41.5163571,11.5430976 C41.5153587,11.0176346 41.0877448,10.5923303 40.5609286,10.5928293 C37.1929524,10.5928293 34.4474524,13.3168415 34.4474524,16.6739146 C34.4484508,17.1993776 34.8760647,17.6246819 35.402881,17.6241829 C35.9295206,17.6244328 36.3568588,17.1992013 36.3578571,16.6739146 C36.3578571,14.3654756 38.247,12.4933659 40.5604762,12.4933659 C40.8138422,12.494811 41.0572895,12.395245 41.2367039,12.2167996 C41.4161183,12.0383542 41.5166328,11.7958162 41.5159048,11.5430976 L41.5163571,11.5430976 Z M40.5604762,5.4552439 C41.0871159,5.4554938 41.5144541,5.03026231 41.5154524,4.50497561 L41.5154524,1.17587805 C41.5144543,0.650767542 41.0873917,0.225608813 40.5609286,0.225609756 C40.3075625,0.2241646 40.0641153,0.323730605 39.8847009,0.50217603 C39.7052864,0.680621455 39.6047719,0.923159409 39.6055,1.17587805 L39.6055,4.50497561 C39.6064985,5.0304386 40.0341123,5.45574292 40.5609286,5.4552439 L40.5604762,5.4552439 Z M29.3179048,16.6387195 C29.3169063,16.1132565 28.8892924,15.6879522 28.3624762,15.6884512 L25.0157619,15.6884512 C24.4891222,15.6882013 24.061784,16.1134328 24.0607857,16.6387195 C24.061784,17.1640062 24.4891222,17.5892377 25.0157619,17.5889878 L28.3624762,17.5889878 C28.6158422,17.590433 28.8592895,17.490867 29.0387039,17.3124215 C29.2181183,17.1339761 29.3186328,16.8914382 29.3179048,16.6387195 Z M56.1056429,15.6884512 L52.7589286,15.6884512 C52.2322889,15.6882013 51.8049507,16.1134328 51.8039524,16.6387195 C51.8049507,17.1640062 52.2322889,17.5892377 52.7589286,17.5889878 L56.1056429,17.5889878 C56.6324591,17.5894868 57.060073,17.1641825 57.0610714,16.6387195 C57.060073,16.1132565 56.6324591,15.6879522 56.1056429,15.6884512 Z M31.2640476,24.5499512 L28.8935714,26.9075732 C28.7134408,27.0851586 28.612067,27.3272695 28.612067,27.5798902 C28.612067,27.832511 28.7134408,28.0746219 28.8935714,28.2522073 C29.0776905,28.4349512 29.3255952,28.5265488 29.5658095,28.5265488 C29.8064762,28.5265488 30.054381,28.4349512 30.2380476,28.2517561 L32.6085238,25.8941341 C32.7886545,25.7165488 32.8900282,25.4744378 32.8900282,25.2218171 C32.8900282,24.9691963 32.7886545,24.7270854 32.6085238,24.5495 C32.4309216,24.3703844 32.1888532,24.269591 31.9362857,24.269591 C31.6837182,24.269591 31.4416498,24.3703844 31.2640476,24.5495 L31.2640476,24.5499512 Z M49.1864762,9.0095 C49.4266905,9.0095 49.6745952,8.91790244 49.8582619,8.73470732 L52.2287381,6.37708537 C52.4088688,6.19949998 52.5102425,5.95738902 52.5102425,5.70476829 C52.5102425,5.45214756 52.4088688,5.21003661 52.2287381,5.03245122 C52.0496751,4.85348716 51.8065964,4.75291581 51.5531071,4.75291581 C51.2996179,4.75291581 51.0565392,4.85348716 50.8774762,5.03245122 L48.507,7.39052439 C48.3268693,7.56810978 48.2254956,7.81022073 48.2254956,8.06284146 C48.2254956,8.31546219 48.3268693,8.55757315 48.507,8.73515854 C48.6889527,8.91149502 48.9327807,9.00994163 49.1864762,9.0095 Z M31.2640476,8.72793902 C31.4481667,8.91068293 31.695619,9.00228049 31.9362857,9.00228049 C32.1769524,9.00228049 32.4248571,8.91068293 32.6085238,8.72793902 C32.7886545,8.55035364 32.8900282,8.30824268 32.8900282,8.05562195 C32.8900282,7.80300122 32.7886545,7.56089026 32.6085238,7.38330488 L30.2380476,5.02568293 C30.0589846,4.84671887 29.8159059,4.74614752 29.5624167,4.74614752 C29.3089274,4.74614752 29.0658487,4.84671887 28.8867857,5.02568293 C28.706655,5.20326831 28.6052813,5.44537927 28.6052813,5.698 C28.6052813,5.95062073 28.706655,6.19273169 28.8867857,6.37031707 L31.2640476,8.72793902 Z M49.8582619,24.5499512 C49.6791989,24.3709872 49.4361202,24.2704158 49.182631,24.2704158 C48.9291417,24.2704158 48.686063,24.3709872 48.507,24.5499512 C48.3270091,24.7275193 48.2257243,24.9695332 48.2257243,25.2220427 C48.2257243,25.4745522 48.3270091,25.716566 48.507,25.8941341 L50.8774762,28.2517561 C51.0611429,28.4349512 51.3090476,28.5265488 51.5497143,28.5265488 C51.7899286,28.5265488 52.0378333,28.4349512 52.2215,28.2517561 C52.4014909,28.074188 52.5027757,27.8321741 52.5027757,27.5796646 C52.5027757,27.3271552 52.4014909,27.0851413 52.2215,26.9075732 L49.8582619,24.5499512 Z" id="Shape" fill="#232323"></path>
        </g>
    </g>
</svg>