<?xml version="1.0" encoding="utf-8"?>
<!-- Generator: Adobe Illustrator 16.0.3, SVG Export Plug-In . SVG Version: 6.00 Build 0)  -->
<!DOCTYPE svg PUBLIC "-//W3C//DTD SVG 1.1//EN" "http://www.w3.org/Graphics/SVG/1.1/DTD/svg11.dtd">
<svg version="1.1" id="Layer_1" xmlns="http://www.w3.org/2000/svg" xmlns:xlink="http://www.w3.org/1999/xlink" x="0px" y="0px"
	 width="76px" height="76px" viewBox="0 0 76 76" enable-background="new 0 0 76 76" xml:space="preserve">
<title>wt-icon--icons/custom/government-buillding</title>
<desc>Created with Sketch.</desc>
<g id="icons_x2F_custom_x2F_government-buillding">
	<g id="wt-icon--government-buillding" transform="translate(0.000000, 12.000000)">
		<path id="Shape" fill="#18E9A6" stroke="#18E9A6" d="M68.281,43.122c-0.045,0.044-0.092,0.089-0.137,0.133l0.326-0.141
			L68.281,43.122z M15.741,45.326l-0.292,0.012l0.446,0.236L15.741,45.326z M1.052,22.651l14.843,22.923l52.576-2.46l6.108-6.286
			L46.661,1.215L1.052,22.651z"/>
		<path id="Shape_1_" fill="#0B8FDF" d="M45.779,49.165h-2.041V25.028c0-1.016-0.908-1.917-1.928-1.917h-3.969
			c-0.907-4.173-4.535-7.332-9.185-8.121v-1.467h6.464c1.021,0,1.927-0.789,1.927-1.917V7.432c0-1.015-0.907-1.917-1.928-1.917
			h-6.576c-0.227-0.676-0.908-1.24-1.815-1.24c-1.021,0-1.928,0.902-1.928,1.917v8.798c-4.649,0.676-8.391,3.948-9.185,8.121h-3.968
			c-1.021,0-1.928,0.902-1.928,1.917v24.137H7.905c-1.021,0-1.927,0.789-1.927,1.917C5.978,52.211,6.884,53,7.905,53h37.988
			c1.021,0,1.928-0.902,1.928-1.918S46.914,49.165,45.779,49.165z M23.78,26.944h6.124v4.286h-6.123L23.78,26.944L23.78,26.944z
			 M23.78,43.412h6.124v4.286h-6.123L23.78,43.412L23.78,43.412z M33.646,43.412h6.237v4.286h-6.238L33.646,43.412L33.646,43.412z
			 M39.996,39.577h-6.35v-4.624h6.237v4.624H39.996z M29.904,34.953v4.624h-6.123v-4.624H29.904z M20.039,39.577h-6.236v-4.624
			h6.236V39.577z M13.688,43.412h6.35v4.286h-6.236v-4.286H13.688z M39.996,31.23h-6.35v-4.286h6.237v4.286H39.996z M13.688,26.944
			h6.35v4.286h-6.236v-4.286H13.688z"/>
	</g>
</g>
</svg>
