<svg width="76" height="76" xmlns="http://www.w3.org/2000/svg"><g fill-rule="nonzero" fill="none"><path d="M20.179 73.481l55.245-3.577-2.156-14.284-43.414-44.466L.628 40.484l19.55 32.997z" stroke="#18E9A6" fill="#18E9A6"/><g transform="translate(11.762)"><ellipse fill="#0B8FDF" cx="28.274" cy="28.374" rx="28.274" ry="28.374"/><path d="M32.271 35.06a5.678 5.678 0 0 1-3.8-1.455c.074 1.88.322 4.402 1.077 5.758h-4.61c.755-1.355 1.002-3.878 1.077-5.757a5.679 5.679 0 0 1-3.8 1.455c-3.158 0-5.716-2.569-5.716-5.737a5.728 5.728 0 0 1 5.16-5.708 5.76 5.76 0 0 1-.14-1.258c0-3.168 2.559-5.736 5.716-5.736s5.716 2.568 5.716 5.736c0 .432-.05.852-.14 1.256a5.729 5.729 0 0 1 5.176 5.71c0 3.168-2.56 5.737-5.716 5.737z" fill="#000"/><path d="M49.4 30.224a22.879 22.879 0 0 1-.732 4.48l-2.622-.705c.345-1.29.561-2.612.645-3.945l2.71.17H49.4zM40.228 47.11l-1.608-2.195a19.955 19.955 0 0 0 2.957-2.676l2.01 1.83a22.672 22.672 0 0 1-3.36 3.041zM27.524 50.65l.08-2.723c1.33.04 2.66-.054 3.971-.281l.462 2.684a22.6 22.6 0 0 1-4.513.32z" fill="#09DF9F"/><path d="M32.367 7.648c1.48.306 2.928.758 4.319 1.352l-1.061 2.507a19.958 19.958 0 0 0-3.803-1.19l.545-2.669zm15.387 11.467l-2.39 1.292a20.005 20.005 0 0 0-2.228-3.311l2.086-1.743a22.73 22.73 0 0 1 2.532 3.762zM7.595 21.789a22.844 22.844 0 0 1 1.863-4.137l2.351 1.362a20.116 20.116 0 0 0-1.64 3.643l-2.574-.868zM20.811 7.86l.987 2.539a19.904 19.904 0 0 0-3.547 1.816l-1.47-2.29a22.614 22.614 0 0 1 4.03-2.064z" fill="#FFF"/><path d="M18.226 48.02a22.713 22.713 0 0 1-3.823-2.427l1.671-2.147a20 20 0 0 0 3.367 2.138l-1.215 2.436zM6.32 32.947l2.642-.627c.306 1.3.741 2.565 1.298 3.777L7.796 37.24a22.78 22.78 0 0 1-1.476-4.291z" fill="#09DF9F"/></g></g></svg>