<svg id="Layer_1" xmlns="http://www.w3.org/2000/svg" width="133" height="25">
  <style>
    .st1{fill:#fffdfd}
  </style>
  <path class="st1" d="M22.6 15.6l-1.4-2.7 1.8-2.2c.1.5.1 1 .1 1.6 0 1.1-.2 2.2-.5 3.3zm-6.5 6.8v-4.3l4.8.8c-1.2 1.5-2.9 2.7-4.8 3.5zm-5.6.6l-2.3-3.1 3.6-.3h.1l3.5-1.4v4.5c-1 .3-2.1.5-3.3.5-.4-.1-1-.1-1.6-.2zm-6.9-4.2l3.9 1.1 2.1 2.9c-2.4-.6-4.5-2-6-4zm-2.2-7.1l1.1.3 2.8 1 1.9 6.1L3 18c-1.1-1.7-1.7-3.7-1.7-5.7 0-.3 0-.4.1-.6zm4.2-8.2l.8 1.3-.2 2-3.6.3c.8-1.4 1.8-2.6 3-3.6zM13 1.4l-1.7 2-4.3 1-.8-1.2c1.8-1.2 3.9-1.8 6-1.8.3-.1.5-.1.8 0zm7 3.2l-2.6.1-3.6.5L12 3.6l1.8-2.2c2.3.4 4.5 1.5 6.2 3.2zm.8 7.7l-2.1-2.4-.9-4.6 2.7-.1c1.1 1.3 1.9 2.9 2.3 4.6l-2 2.5zm-12.1.8l2.6 5.9h-1.2l-2.2.2L6 13.1h2.7zm8.4-7.7L18 10l-3 2.7-5.4-.3 4.3-6.6c-.1.1 3.2-.4 3.2-.4zM11.4 4l1.7 1.6-4.4 6.8H5.9l1.2-7.3L11.4 4zm-8.7 7.4L1.4 11c.1-1.2.4-2.3.9-3.3l3.8-.2-.8 4.8-2.6-.9zm9.3 7.4l-2.6-5.7 5.4.3.6 4.1-3.4 1.3zm9.3-.6l-5.2-.8-.6-4.2 2.9-2.6 2.1 2.5 1.7 3.4c-.2.6-.5 1.1-.9 1.7zM12.2 0C5.5 0 0 5.5 0 12.2 0 19 5.5 24.4 12.2 24.4s12.2-5.5 12.2-12.2S19 0 12.2 0zM99.1 7.6v2h2.8v7h2.6v-7h2.8v-2h-8.2z"/>
  <path class="st1" d="M79.3 4.7c.3-.2.4-.6.4-1s-.1-.7-.4-1c-.3-.2-.7-.3-1.2-.3h-1.4V5h1.4c.5 0 .9-.1 1.2-.3zm2.5.7c-.3.5-.7.9-1.3 1.1l2 2.8h-2.7L78.1 7h-1.4v2.4h-2.6v-9h4.1c.8 0 1.5.1 2.1.4s1.1.7 1.4 1.2.5 1.1.5 1.8c.1.6-.1 1.1-.4 1.6zm3.9.4h3.4l.6-1.9h-4V2.3h4.6v-2h-7.1v9h7.3v-2h-4.7l-.1-1.5z" transform="translate(34 7.22)"/>
  <path class="st1" d="M2.8 5.8h3.4l.6-1.9h-4V2.3h4.6v-2H.3v9h7.3v-2H2.8V5.8z" transform="translate(125.063 7.22)"/>
  <path class="st1" d="M5.7 9.4l1.8-5.5 1.7 5.5H12l2.9-9h-2.4l-1.9 5.8L8.7.4H6.4L4.5 6.1 2.6.4H0l2.9 9h2.8zM15.5 9.4H18v-9h-2.6l.1 9zm12.4-9h-2.5v4.8l-4-4.8h-2.1v9h2.5V4.6l4 4.8h2.1v-9zm7.2 6.3c-.5.4-1.1.7-1.9.7h-1.6v-5h1.6c.8 0 1.4.2 1.9.7.5.4.7 1 .7 1.8s-.2 1.4-.7 1.8M36 .9c-.8-.4-1.6-.6-2.6-.6h-4.3v9h4.3c1 0 1.9-.2 2.6-.6.8-.4 1.4-.9 1.8-1.6.4-.7.6-1.5.6-2.4s-.2-1.7-.6-2.4c-.5-.5-1.1-1-1.8-1.4m3.3 8.5h2.6v-9h-2.6v9zm9.9-4.2l-4-4.8H43v9h2.5V4.6l4 4.8h2.1v-9h-2.5l.1 4.8zm9.9-.5v2.5c-.4.2-.9.3-1.4.3s-.9-.1-1.3-.3c-.4-.2-.7-.5-.9-.9s-.3-.9-.3-1.3c0-.8.2-1.4.7-1.9s1.1-.7 1.9-.7c.8 0 1.6.3 2.2 1l.6-2.4c-.2-.2-.5-.3-.8-.4-.7-.3-1.4-.4-2.3-.4-1 0-1.8.2-2.6.6-.7.4-1.4 1-1.8 1.7-.4.7-.6 1.5-.6 2.4s.2 1.7.6 2.4c.5.7 1.1 1.3 1.9 1.7s1.6.6 2.6.6c.7 0 1.3-.1 2-.3.6-.2 1.2-.5 1.8-.9V4.7h-2.3z" transform="translate(34 7.22)"/>
</svg>
