<svg xmlns="http://www.w3.org/2000/svg" viewBox="0 0 70 70">
  <path d="M35 0c19.4 0 35 15.7 35 35S54.3 70 35 70C16 70 .6 55 0 36.2v-2.4C.6 15 16 0 35 0zm21.9 16.4l4.1.7c-.9-1.2-1.8-2.4-2.8-3.5l-1.3 2.8zm7 5.9c-.5-1.2-1.1-2.4-1.8-3.5l-1.8 2.4 3.6 1.1zm1.2 2.9c-.1-.5-.3-.9-.5-1.3l-4.8-1.5v3.7l.2 2.5 5.1-3.4zm1.2 5.1c-.2-1.3-.5-2.5-.8-3.7l-4.2 2.8 5 .9zm.3 4.7c0-1.1-.1-2.2-.2-3.3l-6.2-1.1.2 1.9.2 2 6 .9V35zm-.3 4.2c.1-.8.2-1.5.2-2.3l-6.2-1-1.7 2.8 3.2 3.1 4.5-2.6zM65 44.9c.4-1.3.8-2.6 1-3.9l-3.2 1.9 2.2 2zm-2 4.7c.6-1.1 1.1-2.2 1.5-3.3l-2.9-2.8-3.6 2.1 5 4zm-27.4 17c11-.2 21.2-6.2 26.7-15.8l-1.8-1.4-5.1 3.7c-.3.2-.7.2-.9-.1l-3.3-3.9-3.9 2.3-3.5 2.1c-.2.1-.6.1-.8-.1l-3.5-2.8-3.9 6v10zm-.7-11.3l3.4-5.2-3.5-.9h-.1s-.1 0-.1-.1l-.1-.1c-.1 0-.1-.1-.1-.2 0 0 0-.1-.1-.1L33 44.5l-3 3.9c.1 0 4.9 6.9 4.9 6.9zm-.6 11.3v-9.9l-5.1-7.2-2.7 3.4c-.2.2-.5.3-.8.2L18 50.2l-3 2.1s-.1.1-.2.1h-.1l-5.8.6c5.8 8.3 15.2 13.4 25.4 13.6zM7.8 51.2c.1.2.2.3.3.5l5.5-.5-2.7-4.5-1.1.6-2 3.9zm-3-6.7c.6 1.8 1.3 3.6 2.2 5.3L8.3 47l-3.5-2.5zM4 41.3c.1.4.2.7.2 1.1l5 3.5 2.9-1.5-1.8-3.4L9 39.5l-5 1.8zM3.4 36c0 1.3.2 2.6.4 3.9l4.3-1.6-2.3-2.9c-.1.1-2.4.6-2.4.6zm.4-6.2c-.3 1.6-.4 3.2-.4 4.8l5.5-1.2-1.9-4c-.1 0-3.2.4-3.2.4zm1.1-4.7c-.4 1.1-.6 2.2-.9 3.3l2.3-.3-1.4-3zm1.4-3.5c-.3.6-.5 1.1-.7 1.7L7.8 28l5.5-.6-.7-1.5c-.1-.1-6.3-4.3-6.3-4.3zm6.4-9.1c-2.1 2.1-3.9 4.4-5.3 7l4.9-2.3 1.7-4.6-1.3-.1zm4.7-3.8c-1.1.8-2.2 1.6-3.3 2.5l5.7.4-2.4-2.9zm4.7-2.6c-1.2.6-2.4 1.2-3.6 1.9l2.7 3.2L22.9 8l-.8-1.9zM28.7 4c-1.8.4-3.6.9-5.4 1.6l.7 1.7 3.1-.6c0-.1 1.6-2.7 1.6-2.7zm2.6-.4c-.3 0-.5.1-.8.1l-2.1 3.5 2.7 3.7 3.2.3V6.5l-3-2.9zm3.7-.2c-.6 0-1.3 0-1.9.1l2.1 2 2.9-1.9c-1-.2-2.1-.2-3.1-.2zm9.3 1.4c-1.3-.4-2.7-.7-4.1-1L36.8 6l6.9 1.9.6-3.1zm6.6 7.7l-6.4-3-2.4 2.7 4.6 2.6 4.2-2.3zm-5.3-7.3L45 8.3l6.1 2.8L49.6 7c-1.3-.7-2.6-1.3-4-1.8zm13 15.9l2-2.6-4.4-.7-2.9 3.7 5.1 3.5v-3.4-.1s0-.1.1-.1l.1-.3zm-1.5 17.4l2.1-3.5-.1-1.5-3.9 1.1-2.7.6 2.2 3.1v.2l.9 2.4 1.5-2.4zm-.8 4l.8 2.1 3.5-2-2.7-2.6c0-.1-1.6 2.5-1.6 2.5zm-2.2 4.9l-1.6 1.1 2.8 3.2 4.3-3.1-2.8-2.2-2.7 1zm-5.4-3l-.8 5.3 3.2-1.9 1.4-.9-3.8-2.5zm-1.3-27.3l6.1 1.9 1.6-2-2.9-3.6-4.8 2.6v1.1zm4.5 4l.7-.9-5.2-1.6v2.7l2.2 2.5 2.3-2.7zM49 29.5l8.7-3.5-5.2-3.6-2.3 2.7-1.2 4.4zm.7 1.2l5.4 2.5 3.9-1.1-.5-5-8.8 3.6zm1.5 3.4l1.8-.4-4.3-2v3l2.5-.6zm2.5 5.5l-5 1.7.1 1.5 5 3.2 2.1-.8-1-2.5-1.2-3.1zm-5 .3l4.3-1.5-2-2.8-2.3.4v3.9zm-4.4-15.5l3.4 4.6 1.1-4.2-2.5-2.8-2.8-.6c.1.1.8 3 .8 3zm-3 19.2l6.1-.9-.1-1.4-5.7-2.5-.3 4.8zm1.1 1.2l4.2 4.6.8-5.4-5 .8zm-1.5.4l-4.3 3 3 .8s.1 0 .1.1c0 0 .1 0 .1.1l3.7 3 2.4-1.4-5-5.6zm-.7-6.1l-6.1 4.2 1.2 4 4.5-3.1c.1.1.4-5.1.4-5.1zM33.4 36v3.6l.4 2.4 3.5-2.4c0-.1-3.9-3.6-3.9-3.6zm-1.9-7.9l1.7 5.6 2.8-.3-2.4-5.3h-2.1zm-4.8 13.7l5.8.5-.5-2.6V39.4h-5.1l-.2 2.4zm-1.6 3.8l4 1.9 3-3.9-5.6-.5c-.1 0-1.4 2.5-1.4 2.5zm-4.1-.5l-1.9 4.1 6.7 2.5 2.4-3.1-4.4-2.1-2.8-1.4zm-2.5-1.9l-5.1 2.3-1.3.6 2.9 4.7 2.7-1.9.2-.1 2.1-4.4c-.1 0-1.5-1.2-1.5-1.2zm-5.9-3.6l-.9 1.2 1.7 3.1 3.8-1.7c-.1.1-4.6-2.6-4.6-2.6zm-2.6-5l-2.8.6 3.6 4.5 3.3-4.7-.1-1.5-4 1.1zm3.9-2.5l-.3-3.4-5.3.6 1.8 3.8 3.8-1zm2.6-13.5l-3.5-.2-5.3 2.5 5.2 3.5 2.4-4c0 .1 1.2-1.8 1.2-1.8zm.9-1.3l2.7-4.2-4.7-.3-1.7 4.3c.1 0 3.7.2 3.7.2zm10.5-1.8l-6.3-2.3-2.6 4.1h6.9l2-1.8zm.9-1.1l1.1-2.8L27.3 8l-3.2.7-1.8 3.4 6.5 2.3zm2.4 5.2l-2.1-3.3-2.2 2v3.1l4.1-.3c-.1 0 .2-1.5.2-1.5zm4.5-.6l-1.3-6.5-3.2-.3-1.2 3 2.3 3.6 3.4.2zm5-7.3L43 9.1l-7.4-2v4.2l5.1.4zm-.7 7.9l2.9-5.3-2.1-1.2-5-.4 1.3 6.5 1.8.3 1.1.1zm2.8.4l3.2.7V16l-1.9-1-2.6 4.9 1.3.1zm-5.5 14.7h-.2l-2.8.3 4.1 3.7 1.9-1.3v-3.9l-3 1.2zm1.3-6.2l-3.5-.3 2.2 4.9 2.8-1.1c0 .1-1.5-3.5-1.5-3.5zm.5-7.6l-3.9 6 3.7.3 4-2.7-.8-3.2-3-.4zm-5.4 5.9l4-6.1-1.2-.2-4-.3-1.1 6.6h2.3zm-10.5 12l2.6-.6 1-2.9-3.8-3.5-1.6 3.8 1.8 3.2zm-.1 1.4l-3.4 2.3 1.4 1.2 2.8 1.3 1.5-2.8.2-2.6-2.5.6zm-7.9-4.3l-1.9 2.6 5.2 3.1 3.4-2.3-1.7-3.1-5-.3zm5.8-11l-4.9-3.1-2.3 3.7 1 2 2.9-.1 3.3-2.5zm4.5-3.1v-3.1h-7.4l-1.3 1.9 5.4 3.4 3.3-2.2zm-1.7 2.8l4 1.2 2.2.8.7-4-4.3.3c0-.1-2.6 1.7-2.6 1.7zm-4.6 3.3l3.5 1.9 3.5-3.1-3.9-1.1-3.1 2.3zm-4.2.9l.5 5.7 4.7.3 1.6-4-4.1-2.2c.1.1-2.7.2-2.7.2zm17 6.4l-4 .4-.7 2.4h4.8c-.1 0-.1-2.8-.1-2.8zm-4.2-.9l4-.5L30 28l-2.3-.8-3.9 3.5 4 3.6zm19.5-.6l-5.6-.5v4.1l5.6 2.5v-6.1zm-5.8-1.9l5.8.6v-1.5l-3.8-5.2-3.5 2.4 1.5 3.7zm15.7-19.3c-1.7-1.7-3.6-3.2-5.7-4.5l1.5 4.1 2.8 3.5 1.4-3.1z" fill="#fff"/>
</svg>
